<?xml version="1.0" encoding="utf-8"?>
<!-- Generator: Adobe Illustrator 15.0.0, SVG Export Plug-In . SVG Version: 6.00 Build 0)  -->
<!DOCTYPE svg PUBLIC "-//W3C//DTD SVG 1.1//EN" "http://www.w3.org/Graphics/SVG/1.1/DTD/svg11.dtd">
<svg version="1.1" id="Vrstva_1" xmlns="http://www.w3.org/2000/svg" xmlns:xlink="http://www.w3.org/1999/xlink" x="0px" y="0px"
	 width="1190px" height="1684px" viewBox="0 0 1190 1684" enable-background="new 0 0 1190 1684" xml:space="preserve">
<path fill-rule="evenodd" clip-rule="evenodd" fill="#F2F2F2" d="M1151.03,1074.789c-0.137-7.016-1.715-13.674-4.456-19.695
	l-118.195-284.678c61.805-57.327,93.094-126.795,93.094-206.896c0-87-31.907-160.029-94.837-217.061l-0.082-0.074
	c-53.096-47.853-126.176-73.448-217.212-76.076l-0.279-0.008l-15.523-0.231H390.748c-98.582,0-177.046,25.678-233.29,76.387
	C94.459,403.541,62.517,476.571,62.517,563.52c0,80.059,31.315,149.527,93.171,206.891L36.829,1056.504l-0.025,0.123
	c-2.491,5.943-3.87,12.467-3.87,19.313c0,0.008,0,0.014,0,0.02l0,124.307c0,27.5,22.5,50,50,50h1018.121c27.5,0,50-22.5,50-50
	v-125.354L1151.03,1074.789z"/>
<g>
	<path fill="#AE2024" d="M101.496,1120.857c13.499,0,23.822,2.402,31,7.201c7.186,4.799,10.775,12.26,10.775,22.377
		c0,6.316-1.454,11.438-4.353,15.375c-2.898,3.939-7.066,7.025-12.523,9.275c1.822,2.25,3.727,4.822,5.714,7.721
		c1.997,2.893,3.957,5.926,5.907,9.082c1.942,3.156,3.819,6.439,5.641,9.859c1.822,3.412,3.506,6.768,5.052,10.047h-22.617
		c-1.647-2.936-3.322-5.916-5.015-8.947c-1.693-3.023-3.432-5.969-5.199-8.82c-1.785-2.857-3.542-5.559-5.282-8.107
		c-1.729-2.547-3.469-4.867-5.208-6.941h-9.993v32.816H75.162v-90.604C79.569,1120.33,97.77,1120.857,101.496,1120.857z
		 M102.665,1138.111c-1.472,0-2.797,0.045-3.966,0.129c-1.168,0.092-2.264,0.174-3.303,0.262v24.389h5.714
		c7.609,0,13.047-0.953,16.341-2.854c3.285-1.904,4.923-5.143,4.923-9.725c0-4.418-1.647-7.551-4.987-9.414
		C114.056,1139.045,109.152,1138.111,102.665,1138.111z"/>
	<path fill="#AE2024" d="M161.691,1211.795v-89.902h60.71v17h-40.486v17.645h35.94v16.598h-35.94v21.67h43.458v16.99H161.691z"/>
	<path fill="#AE2024" d="M305.167,1135.902c-2.77,2.861-6.054,6.551-9.873,11.098c-3.8,4.541-7.729,9.49-11.796,14.855
		c-4.076,5.363-8.097,10.895-12.072,16.604c-3.984,5.709-7.527,11.156-10.646,16.346h45.813v16.99h-70.703v-12.063
		c2.42-4.408,5.383-9.316,8.889-14.723c3.497-5.4,7.159-10.854,10.959-16.346c3.8-5.498,7.674-10.813,11.621-15.961
		c3.929-5.143,7.582-9.748,10.959-13.811H237.97v-17h67.197V1135.902z"/>
	<path fill="#AE2024" d="M384.557,1211.795c-1.012-3.115-2.089-6.33-3.229-9.619c-1.16-3.295-2.31-6.574-3.451-9.832h-35.103
		c-1.132,3.275-2.282,6.561-3.414,9.859c-1.141,3.289-2.208,6.49-3.184,9.592H315.16c3.386-9.68,6.588-18.633,9.625-26.85
		c3.037-8.217,6-15.955,8.907-23.225c2.907-7.264,5.769-14.16,8.594-20.689c2.816-6.531,5.751-12.908,8.787-19.139h19.185
		c2.944,6.23,5.852,12.607,8.723,19.139c2.862,6.529,5.76,13.426,8.686,20.689c2.908,7.27,5.88,15.008,8.916,23.225
		c3.037,8.217,6.257,17.17,9.643,26.85H384.557z M360.237,1142.266c-0.451,1.301-1.113,3.082-1.987,5.322
		c-0.865,2.25-1.85,4.85-2.963,7.799c-1.113,2.939-2.355,6.188-3.727,9.721c-1.38,3.553-2.76,7.26-4.187,11.143h25.708
		c-1.371-3.896-2.705-7.619-3.993-11.174c-1.289-3.549-2.512-6.797-3.671-9.75c-1.16-2.939-2.181-5.535-3.064-7.783
		C361.479,1145.301,360.78,1143.539,360.237,1142.266z"/>
	<path fill="#AE2024" d="M473.81,1121.893v17.258h-27.107v72.645h-20.243v-72.645h-27.116v-17.258H473.81z"/>
	<path fill="#AE2024" d="M524.122,1158.768c3.635-6.119,7.104-12.246,10.397-18.365c3.294-6.123,6.313-12.299,9.091-18.51h22.313
		c-4.932,9.695-10.039,19.076-15.302,28.156c-5.282,9.078-10.857,18.205-16.737,27.369v34.377h-20.233v-34.113
		c-5.898-9.17-11.493-18.334-16.811-27.508c-5.318-9.164-10.443-18.586-15.375-28.281h23.482c2.77,6.211,5.742,12.387,8.944,18.51
		C517.074,1146.521,520.497,1152.648,524.122,1158.768z M541.927,1098.287l-21.338,18.029l-8.888-7.912l18.347-21.016
		L541.927,1098.287z"/>
	<path fill="#094D74" d="M634.409,1120.857c13.498,0,23.832,2.402,31.009,7.201c7.187,4.799,10.774,12.26,10.774,22.377
		c0,6.316-1.444,11.438-4.343,15.375c-2.898,3.939-7.076,7.025-12.523,9.275c1.813,2.25,3.708,4.822,5.714,7.721
		c1.979,2.893,3.948,5.926,5.898,9.082c1.941,3.156,3.828,6.439,5.641,9.859c1.813,3.412,3.506,6.768,5.061,10.047h-22.626
		c-1.647-2.936-3.331-5.916-5.006-8.947c-1.692-3.023-3.432-5.969-5.217-8.82c-1.776-2.857-3.533-5.559-5.272-8.107
		c-1.739-2.547-3.479-4.867-5.217-6.941h-9.983v32.816h-20.233v-90.604C612.491,1120.33,630.701,1120.857,634.409,1120.857z
		 M635.578,1138.111c-1.463,0-2.788,0.045-3.957,0.129c-1.168,0.092-2.264,0.174-3.303,0.262v24.389h5.714
		c7.609,0,13.047-0.953,16.342-2.854c3.284-1.904,4.932-5.143,4.932-9.725c0-4.418-1.666-7.551-4.996-9.414
		C646.979,1139.045,642.074,1138.111,635.578,1138.111z"/>
	<path fill="#094D74" d="M758.949,1211.795c-1.003-3.115-2.079-6.33-3.229-9.619c-1.159-3.295-2.301-6.574-3.441-9.832h-35.104
		c-1.141,3.275-2.281,6.561-3.413,9.859c-1.142,3.289-2.209,6.49-3.193,9.592h-21.016c3.377-9.68,6.588-18.633,9.625-26.85
		c3.045-8.217,6.008-15.955,8.916-23.225c2.907-7.264,5.769-14.16,8.594-20.689c2.815-6.531,5.741-12.908,8.778-19.139h19.193
		c2.944,6.23,5.853,12.607,8.724,19.139c2.861,6.529,5.75,13.426,8.667,20.689c2.908,7.27,5.889,15.008,8.926,23.225
		c3.045,8.217,6.266,17.17,9.652,26.85H758.949z M734.63,1142.266c-0.46,1.301-1.113,3.082-1.979,5.322
		c-0.874,2.25-1.858,4.85-2.963,7.799c-1.122,2.939-2.364,6.188-3.735,9.721c-1.371,3.553-2.761,7.26-4.187,11.143h25.709
		c-1.371-3.896-2.706-7.619-3.984-11.174c-1.298-3.549-2.521-6.797-3.689-9.75c-1.16-2.939-2.172-5.535-3.046-7.783
		C735.872,1145.301,735.164,1143.539,734.63,1142.266z"/>
	<path fill="#094D74" d="M845.156,1211.795c-1.821-2.922-3.966-6.082-6.44-9.482c-2.467-3.391-5.135-6.822-7.987-10.273
		c-2.861-3.449-5.843-6.758-8.971-9.928c-3.12-3.166-6.248-5.963-9.358-8.387v38.07h-20.233v-89.902h20.233v33.797
		c5.199-5.469,10.49-11.188,15.854-17.156c5.373-5.961,10.333-11.506,14.878-16.641h24.016
		c-6.119,7.293-12.274,14.295-18.467,21.021c-6.184,6.727-12.707,13.488-19.553,20.303c7.195,6,14.143,13.117,20.822,21.348
		c6.671,8.234,13.103,17.311,19.268,27.23H845.156z"/>
	<path fill="#094D74" d="M880.903,1211.795v-89.902h60.711v17h-40.477v17.645h35.931v16.598h-35.931v21.67h43.457v16.99H880.903z"/>
	<path fill="#094D74" d="M1026.192,1121.893v17.258h-27.107v72.645h-20.233v-72.645h-27.125v-17.258H1026.192z"/>
	<path fill="#094D74" d="M1076.505,1158.768c3.626-6.119,7.095-12.246,10.389-18.365c3.294-6.123,6.321-12.299,9.091-18.51h22.313
		c-4.932,9.695-10.029,19.076-15.302,28.156c-5.282,9.078-10.857,18.205-16.737,27.369v34.377h-20.234v-34.113
		c-5.897-9.17-11.482-18.334-16.811-27.508c-5.309-9.164-10.443-18.586-15.366-28.281h23.482c2.76,6.211,5.741,12.387,8.935,18.51
		C1069.457,1146.521,1072.88,1152.648,1076.505,1158.768z"/>
</g>
<path fill-rule="evenodd" clip-rule="evenodd" fill="#094D74" d="M438.125,941.387l75.976-78.984
	c-21.22-189.976-12.319-378.559,73.208-552.333H393.619h-2.871c-88.848,0-157.573,21.978-206.432,66.029
	c-54.444,49.333-81.8,111.746-81.8,187.422c0,77.346,33.852,142.262,101.26,195.399L72.934,1073.857h238.342h114.901
	L438.125,941.387z"/>
<path fill-rule="evenodd" clip-rule="evenodd" fill="#AE2024" d="M661.626,865.033c0.01-0.086,0.019-0.172,0.028-0.256l-0.028-0.029
	V865.033z"/>
<path fill-rule="evenodd" clip-rule="evenodd" fill="#AE2024" d="M980.295,758.919c67.418-53.137,101.178-118.053,101.178-195.399
	c0-75.676-27.264-138.089-81.698-187.422c-48.878-44.051-117.694-66.029-206.533-66.029h-2.871H588.811
	c85.747,174.451,94.275,363.872,72.843,554.708L737.5,943.82l11.797,130.037h123.426h238.332L980.295,758.919z"/>
</svg>
