<?xml version="1.0" encoding="utf-8"?>
<!-- Generator: Adobe Illustrator 16.0.0, SVG Export Plug-In . SVG Version: 6.00 Build 0)  -->
<!DOCTYPE svg PUBLIC "-//W3C//DTD SVG 1.1//EN" "http://www.w3.org/Graphics/SVG/1.1/DTD/svg11.dtd">
<svg version="1.1" id="Layer_1" xmlns="http://www.w3.org/2000/svg" xmlns:xlink="http://www.w3.org/1999/xlink" x="0px" y="0px"
	 width="826px" height="479px" viewBox="0 0 826 479" enable-background="new 0 0 826 479" xml:space="preserve">
<rect x="-17" y="347" fill="#000000" stroke="#231F20" stroke-miterlimit="10" width="1022" height="132"/>
<g>
	<path id="Shuttle-Launch" d="M162.696,344.673h-4.653V219.025v-2.327h-2.327h-25.595v-4.654h6.98h18.614h6.981V344.673
		L162.696,344.673z M155.715,259.405L155.715,259.405l-23.756-19.438l23.756-19.438V259.405z M155.715,301.287L155.715,301.287
		l-23.756-19.438l23.756-19.439l0,0V301.287z M155.715,343.17l-23.756-19.438l23.756-19.438l0,0V343.17z M130.121,344.673v-19.438
		l0,0l23.757,19.438H130.121z M130.121,307.443v-2.326v-21.766l0,0l23.757,19.438l-23.757,19.438l0,0V307.443L130.121,307.443z
		 M130.121,249.273v-2.327v-5.478l0,0l23.757,19.438l-23.757,19.438l0,0V249.273L130.121,249.273z M130.121,219.025h23.757
		l-23.757,19.438l0,0V219.025L130.121,219.025z M139.428,209.717h13.961v-9.307h-13.961V209.717z M127.794,305.118h-16.288v-44.21
		v-2.327l-2.327-9.308h18.615V305.118z M155.715,209.717v-11.634h-18.614v11.634h-9.307v37.229h-19.196l-4.072-16.287v-9.309
		c0-3.033-1.948-5.591-4.654-6.552V200.41c0-1.279-1.047-2.327-2.327-2.327c-1.28,0-2.327,1.047-2.327,2.327v14.389
		c-2.706,0.961-4.654,3.518-4.654,6.553v9.308l-6.98,27.921v2.327v59.216l-11.139,16.141c-1.188,1.528-0.1,3.756,1.836,3.756h9.302
		h2.327h2.327v2.326c0,2.571,2.083,4.653,4.653,4.653h9.308c2.571,0,4.653-2.083,4.653-4.653v-2.326h2.327h2.327h9.302
		c1.936,0,3.025-2.228,1.836-3.756l-11.139-16.141v-12.68h16.288V347h37.229V209.717H155.715z"/>
</g>
<g>
	<path d="M546.897,210.62h-9.307v37.229h-22.914c-0.281,0.765-0.604,1.511-0.979,2.233c0.016,0.031,0.032,0.063,0.049,0.093h23.846
		v55.844h-15.904c0.24,0.748,0.438,1.524,0.592,2.327h15.312v39.557h37.229V210.62h-9.31 M539.917,219.928h23.756l-23.756,19.438
		V219.928z M539.917,242.373l23.756,19.438l-23.756,19.438V242.373z M539.917,284.256l23.756,19.438l-23.756,19.438V284.256z
		 M539.917,345.576v-19.438l23.756,19.438H539.917z M565.511,344.072l-23.756-19.438l23.756-19.438V344.072z M565.511,302.189
		l-23.756-19.438l23.756-19.439V302.189z M565.511,260.308l-23.756-19.438l23.756-19.438V260.308z"/>
	<path opacity="0.99" enable-background="new    " d="M531.018,315.727l-11.67-15.852c0.019-0.301,0.028-0.465,0.028-0.465
		l0.628-48.379c0.943-27.607-12.558-69.939-12.558-69.939s-0.003,0.009-0.008,0.025l-0.012-0.038l-0.108,0.363
		c-0.585,1.869-3.443,11.168-6.28,23.219v0.074c-3.339,14.192-6.64,32.171-6.156,46.296l0.628,48.379c0,0,0.01,0.164,0.029,0.463
		l-11.672,15.853l-1.673,25.843l0,0l-0.324,5.021h4.228h1.444h2.767l5.592-4.309h1.529v4.523h1.691l-0.036-0.46h2.199v-2.498
		l-1.738-0.192v-1.518c-0.002-0.01-0.003-0.021-0.006-0.032l0.054-2.637v1.157h1.448c0.033,0.438,0.267,0.779,0.549,0.779h11.702
		c0.282,0,0.515-0.341,0.551-0.779h1.447v-1.174l0.056,2.754v1.449l-1.739,0.191v2.498h2.199l-0.035,0.46h1.69v-4.522h1.521
		l5.591,4.308h2.769h1.443h4.228L531.018,315.727z"/>
</g>
<g>

		<rect x="763.295" y="212.363" fill="none" stroke="#000000" stroke-width="2" stroke-miterlimit="10" width="12" height="133.796"/>
	<g>
		<polyline fill="none" stroke="#000000" stroke-width="2" stroke-miterlimit="10" points="763.337,285.161 774.869,272.454
			763.453,259.874 774.138,248.101 763.545,236.428 774.201,224.105 763.545,212.363 		"/>
		<polyline fill="none" stroke="#000000" stroke-width="2" stroke-miterlimit="10" points="774.201,346.159 763.43,334.289
			774.611,321.968 763.311,309.517 774.375,297.324 763.337,285.161 		"/>
	</g>

		<line fill="none" stroke="#000000" stroke-width="2" stroke-miterlimit="10" x1="762.795" y1="234.672" x2="730.128" y2="234.672"/>
	<line fill="none" stroke="#000000" stroke-width="2" stroke-miterlimit="10" x1="763.35" y1="310.166" x2="745.128" y2="310.166"/>

		<line fill="none" stroke="#000000" stroke-width="2" stroke-miterlimit="10" x1="762.795" y1="265.333" x2="732.512" y2="265.333"/>
	<path d="M749.447,339.875l-0.01,0.354v-2.068c-0.115-1.666-0.234-3.318-0.359-4.953h-0.002
		c-1.984-25.938-5.295-48.314-8.301-74.223c-1.033-8.91-2.318-15.217-5.252-24.091l-1.824-34.533h-0.039
		c-0.602-3.912-6.982-19.061-7.564-19.061c-0.611,0-7.012,15.216-7.633,19.061h-0.057l-1.824,34.533
		c-2.934,8.874-4.219,15.181-5.252,24.091c-3.006,25.908-6.318,48.285-8.301,74.223h-0.002c-0.125,1.635-0.246,3.287-0.359,4.953
		v6.709l-0.15-4.994l-7.264,6.115h7.414v1.922h1.35c-0.221,1.145-0.32,1.877-0.313,2.504h1.803c0.006-0.627-0.094-1.359-0.314-2.504
		h2.416c-0.504,1.328-0.73,2.172-0.715,2.893h4.064c0.016-0.721-0.213-1.564-0.717-2.893h2.32c-0.504,1.328-0.73,2.172-0.715,2.893
		h4.064c0.016-0.721-0.211-1.564-0.715-2.893h1.889h0.559h1.146c-0.219,1.145-0.32,1.877-0.313,2.504h1.803
		c0.008-0.627-0.092-1.359-0.313-2.504h2.059c-0.504,1.328-0.732,2.172-0.715,2.893h4.063c0.018-0.721-0.211-1.564-0.715-2.893
		h1.393h1.221c-0.504,1.328-0.73,2.172-0.715,2.893h4.064c0.016-0.721-0.213-1.564-0.717-2.893h2.227
		c-0.219,1.145-0.32,1.877-0.313,2.504h1.805c0.006-0.627-0.094-1.359-0.314-2.504h1.15h0.559h1.521
		c-0.504,1.328-0.73,2.172-0.715,2.893h4.064c0.016-0.721-0.213-1.564-0.715-2.893h2.221c-0.504,1.328-0.73,2.172-0.715,2.893h4.064
		c0.016-0.721-0.211-1.564-0.715-2.893h2.879c-0.221,1.145-0.32,1.877-0.313,2.504h1.803c0.008-0.627-0.092-1.359-0.313-2.504h1.35
		v-1.922h7.273L749.447,339.875z"/>
</g>
<g>
	<g>
		<path fill="#0C0003" d="M307.983,213.32c0.256-0.443,0.216-0.43,0.037-0.836c-0.18-0.406-0.096-0.602-0.755-0.787
			c-0.793,0.007-1.323-0.3-1.883,0.043c0.043,0.523-0.272,0.763-0.357,1.328c0.166,0.398,0.414,0.787,0.38,1.25
			c0.509,0.252,1.098-0.161,1.647-0.164C307.686,213.734,307.729,213.764,307.983,213.32z"/>
		<path fill="#0C0003" d="M320.202,211.987c0.007,0.094-0.729,0.064-0.717,0.246c-0.023,0.316-0.877,0.186-0.877,0.186l-0.025,0.464
			c0,0,0.844-0.022,0.813,0.259c0.041,0.176,0.234,0.221,0.787,0.26c0.057,0.244,0.19,0.44,0.724,0.558
			c0.107,0.06,1.038,0.176,1.104,0.178c0.339-0.028,0.545-0.474,0.545-0.474s0.071-0.283,0.06-0.627
			c0.316-0.271,0.483-0.516-0.108-0.749c-0.024-0.432,0.134-0.77-0.174-0.946c-0.08-0.008-1.488,0.1-1.606,0.152
			C320.27,211.585,320.202,211.987,320.202,211.987z"/>
		<path fill="#0C0003" d="M321.19,201.968c0.008,0.094-0.731,0.064-0.717,0.245c-0.019,0.236-0.494,0.224-0.738,0.202
			c0.078-0.387,0.155-0.745,0.232-1.049c0.066-0.386,0.264-3.494,0.264-3.494s-0.941-0.06-1.844,0.021
			c-1.084-0.015-1.585-0.43-2.227-0.598c-0.664-0.509-1.229-0.533-1.974-0.001c-0.744-0.488-1.095-0.534-2.029,0.017
			c-0.865,0.226-0.86,0.483-1.85,0.668c-0.7,0.204-2.105,0.071-2.105,0.071s0.563,3.894,0.452,6.006
			c0.008,0.988-0.134,4.533-0.192,5.438c0.01,0.646-0.265,5.164-0.617,6.708c0.641,0.843,1.198,1.297,1.35,2.342
			c0.032,0.558-0.043,2.129-0.062,2.506l0,0l-0.003,0.047c-0.001,0.021-0.002,0.036-0.002,0.036h0.001l-0.157,4.776l-0.604,28.584
			l-0.702,27.299l-0.275,9.399l0.004,0.033l-0.003,0.002c0,0-1.579,4.268-4.419,3.188c-6.799-2.955-1.488-9.34-3.32-9.183
			c-6.585,2.343-7.841,11.192-7.752,11.641c-0.731,5.375,0.628,9.854,2.4,13.809c0.526,0.877,0.86,1.723,1.048,2.534l-0.552,4.933
			c-0.63,1.394-1.54,2.522-2.24,3.312c-4.129,4.954-5.378,8.796-4.628,13.887c0.617,2.183,1.056,5.634,5.516,9.103
			c4.459,3.468,12.339,4.919,12.339,4.919s2.921,0.911,6.95,1.002s9.165-0.64,9.165-0.64s3.972-0.543,7.67-1.648
			c3.237-1.484,4.872-2.438,7.391-6.542c1.938-3.8,2.753-9.056,0.487-13.244c-1.506-3.75-3.581-5.701-5.395-8.248
			c-2.214-3.407-2.482-4.245-0.889-8.514c1.535-4.066,2.634-5.707,2.597-10.429c-0.277-3.354-1.289-5.998-2.75-8.457
			c-1.373-1.991-3.164-4.424-4.235-3.875c-1.328,0.137,1.301,3.807-3.178,5.938c-2.265,0.582-5.095-1.004-5.934-3.686
			c-0.565-2.123-1.027-4.444-1.027-4.444l0.02-0.037l-0.207,0.104l-0.021-2.819l-0.279-40.802l0.03-20.664l0.108-3.403
			c0.5-1.022,1.414-1.808,2.306-2.285c-0.276-1.372-0.084-3.371-0.066-3.847c0.04-0.194,0.221-3.872,0.408-4.913
			c0.142-0.001,0.813,0.007,0.786,0.258c0.04,0.178,0.232,0.221,0.785,0.261c0.058,0.243,0.19,0.44,0.726,0.557
			c0.104,0.059,1.037,0.177,1.103,0.178c0.341-0.03,0.546-0.474,0.546-0.474s0.071-0.283,0.061-0.627
			c0.314-0.272,0.481-0.514-0.11-0.748c-0.023-0.433,0.136-0.77-0.173-0.946c-0.079-0.008-1.488,0.099-1.607,0.152
			c-0.454,0.093-0.521,0.494-0.521,0.494c0.007,0.094-0.731,0.065-0.717,0.245c-0.021,0.272-0.652,0.214-0.83,0.192
			c0.083-0.92,0.36-2.94,0.67-4.595c0.208,0.002,0.759,0.03,0.735,0.258c0.04,0.178,0.232,0.22,0.785,0.261
			c0.058,0.243,0.19,0.44,0.725,0.557c0.105,0.06,1.038,0.177,1.104,0.179c0.341-0.03,0.545-0.474,0.545-0.474
			s0.072-0.283,0.062-0.627c0.315-0.272,0.481-0.514-0.11-0.748c-0.023-0.432,0.136-0.77-0.173-0.946
			c-0.079-0.008-1.488,0.099-1.607,0.153C321.258,201.566,321.19,201.968,321.19,201.968z"/>
		<path fill="#0C0003" d="M308.193,208.416c0.255-0.444,0.216-0.431,0.036-0.837c-0.18-0.406-0.095-0.601-0.754-0.787
			c-0.794,0.008-1.323-0.3-1.883,0.043c0.043,0.524-0.272,0.764-0.357,1.328c0.166,0.399,0.413,0.787,0.38,1.25
			c0.509,0.252,1.099-0.162,1.647-0.165C307.896,208.829,307.938,208.859,308.193,208.416z"/>
		<path fill="#0C0003" d="M308.307,203.401c0.256-0.443,0.216-0.431,0.036-0.837c-0.181-0.406-0.096-0.6-0.754-0.787
			c-0.794,0.008-1.322-0.3-1.884,0.042c0.044,0.524-0.271,0.764-0.356,1.329c0.167,0.399,0.414,0.787,0.381,1.25
			c0.508,0.252,1.097-0.162,1.646-0.165C308.01,203.815,308.052,203.845,308.307,203.401z"/>
	</g>

		<rect x="347.108" y="213.024" fill="none" stroke="#000000" stroke-width="2" stroke-miterlimit="10" width="12" height="133.796"/>
	<g>
		<polyline fill="none" stroke="#000000" stroke-width="2" stroke-miterlimit="10" points="347.151,285.822 358.684,273.115
			347.267,260.535 357.952,248.762 347.358,237.089 358.015,224.766 347.358,213.024 		"/>
		<polyline fill="none" stroke="#000000" stroke-width="2" stroke-miterlimit="10" points="358.015,346.82 347.243,334.95
			358.425,322.629 347.125,310.178 358.189,297.985 347.151,285.822 		"/>
	</g>

		<line fill="none" stroke="#000000" stroke-width="2" stroke-miterlimit="10" x1="346.608" y1="235.333" x2="313.942" y2="235.333"/>

		<line fill="none" stroke="#000000" stroke-width="2" stroke-miterlimit="10" x1="347.164" y1="310.827" x2="328.942" y2="310.827"/>

		<line fill="none" stroke="#000000" stroke-width="2" stroke-miterlimit="10" x1="346.608" y1="265.994" x2="316.325" y2="265.994"/>
</g>
</svg>
