<?xml version="1.0" encoding="UTF-8" standalone="no"?>
<!-- Generator: Adobe Illustrator 16.0.0, SVG Export Plug-In . SVG Version: 6.00 Build 0)  -->

<svg
   xmlns:dc="http://purl.org/dc/elements/1.1/"
   xmlns:cc="http://creativecommons.org/ns#"
   xmlns:rdf="http://www.w3.org/1999/02/22-rdf-syntax-ns#"
   xmlns:svg="http://www.w3.org/2000/svg"
   xmlns="http://www.w3.org/2000/svg"
   xmlns:sodipodi="http://sodipodi.sourceforge.net/DTD/sodipodi-0.dtd"
   xmlns:inkscape="http://www.inkscape.org/namespaces/inkscape"
   version="1.1"
   id="Layer_1"
   x="0px"
   y="0px"
   width="826px"
   height="479px"
   viewBox="0 0 826 479"
   enable-background="new 0 0 826 479"
   xml:space="preserve"
   sodipodi:docname="bg.svg"
   inkscape:version="0.92.4 (f8dce91, 2019-08-02)"><metadata
   id="metadata5432"><rdf:RDF><cc:Work
       rdf:about=""><dc:format>image/svg+xml</dc:format><dc:type
         rdf:resource="http://purl.org/dc/dcmitype/StillImage" /></cc:Work></rdf:RDF></metadata><defs
   id="defs5430" /><sodipodi:namedview
   pagecolor="#ffffff"
   bordercolor="#666666"
   borderopacity="1"
   objecttolerance="10"
   gridtolerance="10"
   guidetolerance="10"
   inkscape:pageopacity="0"
   inkscape:pageshadow="2"
   inkscape:window-width="1080"
   inkscape:window-height="1883"
   id="namedview5428"
   showgrid="false"
   inkscape:zoom="0.43946731"
   inkscape:cx="762.50434"
   inkscape:cy="282.7595"
   inkscape:window-x="3840"
   inkscape:window-y="0"
   inkscape:window-maximized="1"
   inkscape:current-layer="Layer_1" />

<g
   id="g5373"
   transform="translate(0,78)">
	<path
   id="Shuttle-Launch"
   d="m 162.696,344.673 h -4.653 v -125.648 -2.327 h -2.327 -25.595 v -4.654 h 6.98 18.614 6.981 z m -6.981,-85.268 v 0 l -23.756,-19.438 23.756,-19.438 z m 0,41.882 v 0 l -23.756,-19.438 23.756,-19.439 v 0 z m 0,41.883 -23.756,-19.438 23.756,-19.438 v 0 z m -25.594,1.503 v -19.438 0 l 23.757,19.438 z m 0,-37.23 v -2.326 -21.766 0 l 23.757,19.438 -23.757,19.438 v 0 z m 0,-58.17 v -2.327 -5.478 0 l 23.757,19.438 -23.757,19.438 v 0 z m 0,-30.248 h 23.757 l -23.757,19.438 v 0 z m 9.307,-9.308 h 13.961 v -9.307 h -13.961 z m -11.634,95.401 h -16.288 v -44.21 -2.327 l -2.327,-9.308 h 18.615 z m 27.921,-95.401 v -11.634 h -18.614 v 11.634 h -9.307 v 37.229 h -19.196 l -4.072,-16.287 v -9.309 c 0,-3.033 -1.948,-5.591 -4.654,-6.552 V 200.41 c 0,-1.279 -1.047,-2.327 -2.327,-2.327 -1.28,0 -2.327,1.047 -2.327,2.327 v 14.389 c -2.706,0.961 -4.654,3.518 -4.654,6.553 v 9.308 l -6.98,27.921 v 2.327 59.216 l -11.139,16.141 c -1.188,1.528 -0.1,3.756 1.836,3.756 h 9.302 2.327 2.327 v 2.326 c 0,2.571 2.083,4.653 4.653,4.653 h 9.308 c 2.571,0 4.653,-2.083 4.653,-4.653 v -2.326 h 2.327 2.327 9.302 c 1.936,0 3.025,-2.228 1.836,-3.756 l -11.139,-16.141 v -12.68 h 16.288 V 347 h 37.229 V 209.717 Z"
   inkscape:connector-curvature="0" />
</g>
<g
   id="g5379"
   transform="translate(0,78)">
	<path
   d="m 546.897,210.62 h -9.307 v 37.229 h -22.914 c -0.281,0.765 -0.604,1.511 -0.979,2.233 0.016,0.031 0.032,0.063 0.049,0.093 h 23.846 v 55.844 h -15.904 c 0.24,0.748 0.438,1.524 0.592,2.327 h 15.312 v 39.557 h 37.229 V 210.62 h -9.31 m -25.594,9.308 h 23.756 l -23.756,19.438 z m 0,22.445 23.756,19.438 -23.756,19.438 z m 0,41.883 23.756,19.438 -23.756,19.438 z m 0,61.32 v -19.438 l 23.756,19.438 z m 25.594,-1.504 -23.756,-19.438 23.756,-19.438 z m 0,-41.883 -23.756,-19.438 23.756,-19.439 z m 0,-41.881 -23.756,-19.438 23.756,-19.438 z"
   id="path5375"
   inkscape:connector-curvature="0" />
	<path
   enable-background="new    "
   d="m 531.018,315.727 -11.67,-15.852 c 0.019,-0.301 0.028,-0.465 0.028,-0.465 l 0.628,-48.379 c 0.943,-27.607 -12.558,-69.939 -12.558,-69.939 0,0 -0.003,0.009 -0.008,0.025 l -0.012,-0.038 -0.108,0.363 c -0.585,1.869 -3.443,11.168 -6.28,23.219 v 0.074 c -3.339,14.192 -6.64,32.171 -6.156,46.296 l 0.628,48.379 c 0,0 0.01,0.164 0.029,0.463 l -11.672,15.853 -1.673,25.843 v 0 l -0.324,5.021 h 4.228 1.444 2.767 l 5.592,-4.309 h 1.529 v 4.523 h 1.691 l -0.036,-0.46 h 2.199 v -2.498 l -1.738,-0.192 v -1.518 c -0.002,-0.01 -0.003,-0.021 -0.006,-0.032 l 0.054,-2.637 v 1.157 h 1.448 c 0.033,0.438 0.267,0.779 0.549,0.779 h 11.702 c 0.282,0 0.515,-0.341 0.551,-0.779 h 1.447 v -1.174 l 0.056,2.754 v 1.449 l -1.739,0.191 v 2.498 h 2.199 l -0.035,0.46 h 1.69 v -4.522 h 1.521 l 5.591,4.308 h 2.769 1.443 4.228 z"
   id="path5377"
   inkscape:connector-curvature="0"
   style="opacity:0.98999999" />
</g>
<g
   id="g5397"
   transform="translate(0,74)">

		<rect
   x="763.29498"
   y="216.36301"
   stroke-miterlimit="10"
   width="12"
   height="133.79601"
   id="rect5381"
   style="fill:none;stroke:#000000;stroke-width:2;stroke-miterlimit:10" />
	<g
   id="g5387"
   transform="translate(0,4)">
		<polyline
   stroke-miterlimit="10"
   points="763.337,285.161 774.869,272.454    763.453,259.874 774.138,248.101 763.545,236.428 774.201,224.105 763.545,212.363   "
   id="polyline5383"
   style="fill:none;stroke:#000000;stroke-width:2;stroke-miterlimit:10" />
		<polyline
   stroke-miterlimit="10"
   points="774.201,346.159 763.43,334.289    774.611,321.968 763.311,309.517 774.375,297.324 763.337,285.161   "
   id="polyline5385"
   style="fill:none;stroke:#000000;stroke-width:2;stroke-miterlimit:10" />
	</g>

		<line
   stroke-miterlimit="10"
   x1="762.79498"
   y1="238.672"
   x2="730.12799"
   y2="238.672"
   id="line5389"
   style="fill:none;stroke:#000000;stroke-width:2;stroke-miterlimit:10" />
	<line
   stroke-miterlimit="10"
   x1="763.34998"
   y1="314.16599"
   x2="745.12799"
   y2="314.16599"
   id="line5391"
   style="fill:none;stroke:#000000;stroke-width:2;stroke-miterlimit:10" />

		<line
   stroke-miterlimit="10"
   x1="762.79498"
   y1="269.33301"
   x2="732.51202"
   y2="269.33301"
   id="line5393"
   style="fill:none;stroke:#000000;stroke-width:2;stroke-miterlimit:10" />
	<path
   d="m 749.447,339.875 -0.01,0.354 v -2.068 c -0.115,-1.666 -0.234,-3.318 -0.359,-4.953 h -0.002 c -1.984,-25.938 -5.295,-48.314 -8.301,-74.223 -1.033,-8.91 -2.318,-15.217 -5.252,-24.091 l -1.824,-34.533 h -0.039 c -0.602,-3.912 -6.982,-19.061 -7.564,-19.061 -0.611,0 -7.012,15.216 -7.633,19.061 h -0.057 l -1.824,34.533 c -2.934,8.874 -4.219,15.181 -5.252,24.091 -3.006,25.908 -6.318,48.285 -8.301,74.223 h -0.002 c -0.125,1.635 -0.246,3.287 -0.359,4.953 v 6.709 l -0.15,-4.994 -7.264,6.115 h 7.414 v 1.922 h 1.35 c -0.221,1.145 -0.32,1.877 -0.313,2.504 h 1.803 c 0.006,-0.627 -0.094,-1.359 -0.314,-2.504 h 2.416 c -0.504,1.328 -0.73,2.172 -0.715,2.893 h 4.064 c 0.016,-0.721 -0.213,-1.564 -0.717,-2.893 h 2.32 c -0.504,1.328 -0.73,2.172 -0.715,2.893 h 4.064 c 0.016,-0.721 -0.211,-1.564 -0.715,-2.893 h 1.889 0.559 1.146 c -0.219,1.145 -0.32,1.877 -0.313,2.504 h 1.803 c 0.008,-0.627 -0.092,-1.359 -0.313,-2.504 h 2.059 c -0.504,1.328 -0.732,2.172 -0.715,2.893 h 4.063 c 0.018,-0.721 -0.211,-1.564 -0.715,-2.893 h 1.393 1.221 c -0.504,1.328 -0.73,2.172 -0.715,2.893 h 4.064 c 0.016,-0.721 -0.213,-1.564 -0.717,-2.893 h 2.227 c -0.219,1.145 -0.32,1.877 -0.313,2.504 h 1.805 c 0.006,-0.627 -0.094,-1.359 -0.314,-2.504 h 1.15 0.559 1.521 c -0.504,1.328 -0.73,2.172 -0.715,2.893 h 4.064 c 0.016,-0.721 -0.213,-1.564 -0.715,-2.893 h 2.221 c -0.504,1.328 -0.73,2.172 -0.715,2.893 h 4.064 c 0.016,-0.721 -0.211,-1.564 -0.715,-2.893 h 2.879 c -0.221,1.145 -0.32,1.877 -0.313,2.504 h 1.803 c 0.008,-0.627 -0.092,-1.359 -0.313,-2.504 h 1.35 v -1.922 h 7.273 z"
   id="path5395"
   inkscape:connector-curvature="0" />
</g>
<g
   id="g5425"
   transform="translate(0,78)">
	<g
   id="g5409"
   transform="translate(0,-2)">
		<path
   d="m 307.983,213.32 c 0.256,-0.443 0.216,-0.43 0.037,-0.836 -0.18,-0.406 -0.096,-0.602 -0.755,-0.787 -0.793,0.007 -1.323,-0.3 -1.883,0.043 0.043,0.523 -0.272,0.763 -0.357,1.328 0.166,0.398 0.414,0.787 0.38,1.25 0.509,0.252 1.098,-0.161 1.647,-0.164 0.634,-0.42 0.677,-0.39 0.931,-0.834 z"
   id="path5399"
   inkscape:connector-curvature="0"
   style="fill:#0c0003" />
		<path
   d="m 320.202,211.987 c 0.007,0.094 -0.729,0.064 -0.717,0.246 -0.023,0.316 -0.877,0.186 -0.877,0.186 l -0.025,0.464 c 0,0 0.844,-0.022 0.813,0.259 0.041,0.176 0.234,0.221 0.787,0.26 0.057,0.244 0.19,0.44 0.724,0.558 0.107,0.06 1.038,0.176 1.104,0.178 0.339,-0.028 0.545,-0.474 0.545,-0.474 0,0 0.071,-0.283 0.06,-0.627 0.316,-0.271 0.483,-0.516 -0.108,-0.749 -0.024,-0.432 0.134,-0.77 -0.174,-0.946 -0.08,-0.008 -1.488,0.1 -1.606,0.152 -0.458,0.091 -0.526,0.493 -0.526,0.493 z"
   id="path5401"
   inkscape:connector-curvature="0"
   style="fill:#0c0003" />
		<path
   d="m 321.19,201.968 c 0.008,0.094 -0.731,0.064 -0.717,0.245 -0.019,0.236 -0.494,0.224 -0.738,0.202 0.078,-0.387 0.155,-0.745 0.232,-1.049 0.066,-0.386 0.264,-3.494 0.264,-3.494 0,0 -0.941,-0.06 -1.844,0.021 -1.084,-0.015 -1.585,-0.43 -2.227,-0.598 -0.664,-0.509 -1.229,-0.533 -1.974,-10e-4 -0.744,-0.488 -1.095,-0.534 -2.029,0.017 -0.865,0.226 -0.86,0.483 -1.85,0.668 -0.7,0.204 -2.105,0.071 -2.105,0.071 0,0 0.563,3.894 0.452,6.006 0.008,0.988 -0.134,4.533 -0.192,5.438 0.01,0.646 -0.265,5.164 -0.617,6.708 0.641,0.843 1.198,1.297 1.35,2.342 0.032,0.558 -0.043,2.129 -0.062,2.506 v 0 l -0.003,0.047 c -10e-4,0.021 -0.002,0.036 -0.002,0.036 h 0.001 l -0.157,4.776 -0.604,28.584 -0.702,27.299 -0.275,9.399 0.004,0.033 -0.003,0.002 c 0,0 -1.579,4.268 -4.419,3.188 -6.799,-2.955 -1.488,-9.34 -3.32,-9.183 -6.585,2.343 -7.841,11.192 -7.752,11.641 -0.731,5.375 0.628,9.854 2.4,13.809 0.526,0.877 0.86,1.723 1.048,2.534 l -0.552,4.933 c -0.63,1.394 -1.54,2.522 -2.24,3.312 -4.129,4.954 -5.378,8.796 -4.628,13.887 0.617,2.183 1.056,5.634 5.516,9.103 4.459,3.468 12.339,4.919 12.339,4.919 0,0 2.921,0.911 6.95,1.002 4.029,0.091 9.165,-0.64 9.165,-0.64 0,0 3.972,-0.543 7.67,-1.648 3.237,-1.484 4.872,-2.438 7.391,-6.542 1.938,-3.8 2.753,-9.056 0.487,-13.244 -1.506,-3.75 -3.581,-5.701 -5.395,-8.248 -2.214,-3.407 -2.482,-4.245 -0.889,-8.514 1.535,-4.066 2.634,-5.707 2.597,-10.429 -0.277,-3.354 -1.289,-5.998 -2.75,-8.457 -1.373,-1.991 -3.164,-4.424 -4.235,-3.875 -1.328,0.137 1.301,3.807 -3.178,5.938 -2.265,0.582 -5.095,-1.004 -5.934,-3.686 -0.565,-2.123 -1.027,-4.444 -1.027,-4.444 l 0.02,-0.037 -0.207,0.104 -0.021,-2.819 -0.279,-40.802 0.03,-20.664 0.108,-3.403 c 0.5,-1.022 1.414,-1.808 2.306,-2.285 -0.276,-1.372 -0.084,-3.371 -0.066,-3.847 0.04,-0.194 0.221,-3.872 0.408,-4.913 0.142,-0.001 0.813,0.007 0.786,0.258 0.04,0.178 0.232,0.221 0.785,0.261 0.058,0.243 0.19,0.44 0.726,0.557 0.104,0.059 1.037,0.177 1.103,0.178 0.341,-0.03 0.546,-0.474 0.546,-0.474 0,0 0.071,-0.283 0.061,-0.627 0.314,-0.272 0.481,-0.514 -0.11,-0.748 -0.023,-0.433 0.136,-0.77 -0.173,-0.946 -0.079,-0.008 -1.488,0.099 -1.607,0.152 -0.454,0.093 -0.521,0.494 -0.521,0.494 0.007,0.094 -0.731,0.065 -0.717,0.245 -0.021,0.272 -0.652,0.214 -0.83,0.192 0.083,-0.92 0.36,-2.94 0.67,-4.595 0.208,0.002 0.759,0.03 0.735,0.258 0.04,0.178 0.232,0.22 0.785,0.261 0.058,0.243 0.19,0.44 0.725,0.557 0.105,0.06 1.038,0.177 1.104,0.179 0.341,-0.03 0.545,-0.474 0.545,-0.474 0,0 0.072,-0.283 0.062,-0.627 0.315,-0.272 0.481,-0.514 -0.11,-0.748 -0.023,-0.432 0.136,-0.77 -0.173,-0.946 -0.079,-0.008 -1.488,0.099 -1.607,0.153 -0.462,0.09 -0.53,0.492 -0.53,0.492 z"
   id="path5403"
   inkscape:connector-curvature="0"
   style="fill:#0c0003" />
		<path
   d="m 308.193,208.416 c 0.255,-0.444 0.216,-0.431 0.036,-0.837 -0.18,-0.406 -0.095,-0.601 -0.754,-0.787 -0.794,0.008 -1.323,-0.3 -1.883,0.043 0.043,0.524 -0.272,0.764 -0.357,1.328 0.166,0.399 0.413,0.787 0.38,1.25 0.509,0.252 1.099,-0.162 1.647,-0.165 0.634,-0.419 0.676,-0.389 0.931,-0.832 z"
   id="path5405"
   inkscape:connector-curvature="0"
   style="fill:#0c0003" />
		<path
   d="m 308.307,203.401 c 0.256,-0.443 0.216,-0.431 0.036,-0.837 -0.181,-0.406 -0.096,-0.6 -0.754,-0.787 -0.794,0.008 -1.322,-0.3 -1.884,0.042 0.044,0.524 -0.271,0.764 -0.356,1.329 0.167,0.399 0.414,0.787 0.381,1.25 0.508,0.252 1.097,-0.162 1.646,-0.165 0.634,-0.418 0.676,-0.388 0.931,-0.832 z"
   id="path5407"
   inkscape:connector-curvature="0"
   style="fill:#0c0003" />
	</g>

		<rect
   x="347.108"
   y="213.024"
   stroke-miterlimit="10"
   width="12"
   height="133.79601"
   id="rect5411"
   style="fill:none;stroke:#000000;stroke-width:2;stroke-miterlimit:10" />
	<g
   id="g5417">
		<polyline
   stroke-miterlimit="10"
   points="347.151,285.822 358.684,273.115    347.267,260.535 357.952,248.762 347.358,237.089 358.015,224.766 347.358,213.024   "
   id="polyline5413"
   style="fill:none;stroke:#000000;stroke-width:2;stroke-miterlimit:10" />
		<polyline
   stroke-miterlimit="10"
   points="358.015,346.82 347.243,334.95    358.425,322.629 347.125,310.178 358.189,297.985 347.151,285.822   "
   id="polyline5415"
   style="fill:none;stroke:#000000;stroke-width:2;stroke-miterlimit:10" />
	</g>

		<line
   stroke-miterlimit="10"
   x1="346.608"
   y1="235.33299"
   x2="313.94199"
   y2="235.33299"
   id="line5419"
   style="fill:none;stroke:#000000;stroke-width:2;stroke-miterlimit:10" />

		<line
   stroke-miterlimit="10"
   x1="347.164"
   y1="310.827"
   x2="328.94199"
   y2="310.827"
   id="line5421"
   style="fill:none;stroke:#000000;stroke-width:2;stroke-miterlimit:10" />

		<line
   stroke-miterlimit="10"
   x1="346.608"
   y1="265.99399"
   x2="316.32501"
   y2="265.99399"
   id="line5423"
   style="fill:none;stroke:#000000;stroke-width:2;stroke-miterlimit:10" />
</g>
</svg>