<?xml version="1.0" encoding="utf-8"?>
<!-- Generator: Adobe Illustrator 16.0.0, SVG Export Plug-In . SVG Version: 6.00 Build 0)  -->
<!DOCTYPE svg PUBLIC "-//W3C//DTD SVG 1.1//EN" "http://www.w3.org/Graphics/SVG/1.1/DTD/svg11.dtd">
<svg version="1.1" id="Layer_1" xmlns="http://www.w3.org/2000/svg" xmlns:xlink="http://www.w3.org/1999/xlink" x="0px" y="0px"
	 width="826px" height="479px" viewBox="0 0 826 479" enable-background="new 0 0 826 479" xml:space="preserve">
<rect x="-17" y="375" fill="#090001" stroke="#231F20" stroke-miterlimit="10" width="1022" height="119"/>
<path id="Shuttle-Launch" d="M162.696,372.673h-4.653V247.025v-2.327h-2.327h-25.595v-4.654h6.98h18.614h6.981L162.696,372.673
	L162.696,372.673z M155.715,287.405L155.715,287.405l-23.756-19.438l23.756-19.438V287.405z M155.715,329.287L155.715,329.287
	l-23.756-19.438l23.756-19.439l0,0V329.287z M155.715,371.17l-23.756-19.438l23.756-19.438l0,0V371.17z M130.121,372.673v-19.438
	l0,0l23.757,19.438H130.121z M130.121,335.444v-2.327v-21.765l0,0l23.757,19.438l-23.757,19.438l0,0V335.444L130.121,335.444z
	 M130.121,277.273v-2.327v-5.477l0,0l23.757,19.438l-23.757,19.438l0,0V277.273L130.121,277.273z M130.121,247.025h23.757
	l-23.757,19.438l0,0V247.025L130.121,247.025z M139.428,237.717h13.961v-9.307h-13.961V237.717z M127.794,333.118h-16.288v-44.21
	v-2.327l-2.327-9.307h18.615V333.118z M155.715,237.717v-11.634h-18.614v11.634h-9.307v37.229h-19.196l-4.072-16.288v-9.308
	c0-3.034-1.948-5.591-4.654-6.552V228.41c0-1.279-1.047-2.327-2.327-2.327s-2.327,1.047-2.327,2.327v14.389
	c-2.706,0.961-4.654,3.518-4.654,6.553v9.307l-6.98,27.921v2.327v59.216l-11.139,16.141c-1.188,1.528-0.1,3.755,1.836,3.755h9.302
	h2.327h2.327v2.327c0,2.571,2.083,4.653,4.653,4.653h9.308c2.571,0,4.653-2.083,4.653-4.653v-2.327h2.327h2.327h9.302
	c1.936,0,3.025-2.227,1.836-3.755l-11.139-16.141v-12.679h16.288V375h37.229V237.717H155.715z"/>

<g>
	<path fill="#0C0003" d="M306.375,241.321c0.256-0.444,0.216-0.431,0.037-0.837c-0.18-0.406-0.096-0.601-0.755-0.787
		c-0.793,0.007-1.323-0.3-1.883,0.043c0.043,0.524-0.272,0.763-0.357,1.328c0.166,0.399,0.414,0.787,0.38,1.251
		c0.509,0.252,1.098-0.162,1.647-0.165C306.077,241.734,306.12,241.764,306.375,241.321z"/>
	<path fill="#0C0003" d="M318.594,239.987c0.007,0.094-0.73,0.064-0.717,0.245c-0.023,0.317-0.877,0.186-0.877,0.186l-0.025,0.464
		c0,0,0.843-0.023,0.813,0.258c0.041,0.177,0.235,0.221,0.787,0.261c0.057,0.243,0.191,0.44,0.724,0.557
		c0.107,0.06,1.038,0.176,1.104,0.178c0.339-0.029,0.545-0.474,0.545-0.474s0.072-0.283,0.06-0.627
		c0.316-0.272,0.483-0.515-0.109-0.749c-0.024-0.432,0.134-0.77-0.173-0.946c-0.08-0.008-1.489,0.1-1.607,0.152
		C318.661,239.585,318.594,239.987,318.594,239.987z"/>
	<path fill="#0C0003" d="M319.582,229.968c0.008,0.094-0.731,0.064-0.717,0.245c-0.018,0.236-0.494,0.224-0.738,0.202
		c0.078-0.387,0.155-0.745,0.232-1.049c0.067-0.386,0.264-3.494,0.264-3.494s-0.941-0.06-1.844,0.021
		c-1.084-0.015-1.585-0.43-2.226-0.598c-0.664-0.509-1.23-0.533-1.974-0.001c-0.744-0.488-1.095-0.534-2.029,0.017
		c-0.865,0.226-0.861,0.483-1.85,0.668c-0.7,0.204-2.105,0.071-2.105,0.071s0.563,3.894,0.452,6.006
		c0.008,0.988-0.134,4.533-0.192,5.438c0.009,0.646-0.265,5.164-0.618,6.708c0.641,0.843,1.199,1.297,1.35,2.342
		c0.032,0.558-0.043,2.129-0.062,2.506l0,0l-0.002,0.047c-0.001,0.021-0.002,0.036-0.002,0.036h0.001l-0.158,4.776l-0.604,28.584
		l-0.702,27.299l-0.276,9.399l0.004,0.034l-0.003,0.001c0,0-1.579,4.268-4.419,3.189c-6.799-2.955-1.488-9.34-3.32-9.183
		c-6.585,2.343-7.841,11.193-7.752,11.641c-0.731,5.375,0.628,9.853,2.4,13.809c0.526,0.876,0.86,1.723,1.048,2.534l-0.552,4.932
		c-0.63,1.394-1.54,2.523-2.24,3.312c-4.129,4.954-5.378,8.796-4.628,13.887c0.617,2.182,1.056,5.634,5.516,9.102
		c4.459,3.468,12.339,4.919,12.339,4.919s2.921,0.912,6.95,1.002c4.029,0.091,9.165-0.639,9.165-0.639s3.972-0.544,7.67-1.649
		c3.237-1.484,4.872-2.438,7.391-6.542c1.938-3.799,2.753-9.055,0.487-13.244c-1.506-3.75-3.581-5.701-5.395-8.248
		c-2.213-3.407-2.482-4.245-0.888-8.514c1.535-4.066,2.634-5.707,2.596-10.428c-0.277-3.355-1.289-5.999-2.75-8.457
		c-1.373-1.992-3.164-4.424-4.235-3.875c-1.328,0.136,1.301,3.806-3.178,5.937c-2.264,0.582-5.094-1.004-5.933-3.686
		c-0.566-2.122-1.028-4.444-1.028-4.444l0.02-0.037l-0.207,0.105l-0.021-2.82l-0.279-40.802l0.03-20.664l0.109-3.403
		c0.5-1.023,1.414-1.807,2.305-2.285c-0.276-1.372-0.084-3.371-0.066-3.847c0.04-0.194,0.221-3.872,0.408-4.913
		c0.142-0.001,0.813,0.007,0.786,0.258c0.04,0.178,0.233,0.221,0.786,0.261c0.057,0.243,0.19,0.44,0.725,0.557
		c0.105,0.059,1.037,0.177,1.103,0.178c0.34-0.03,0.546-0.474,0.546-0.474s0.071-0.283,0.06-0.627
		c0.315-0.272,0.482-0.514-0.11-0.748c-0.024-0.433,0.135-0.77-0.173-0.946c-0.079-0.008-1.488,0.099-1.608,0.152
		c-0.454,0.093-0.521,0.494-0.521,0.494c0.007,0.094-0.731,0.065-0.717,0.245c-0.02,0.272-0.652,0.214-0.83,0.192
		c0.083-0.92,0.36-2.94,0.67-4.595c0.208,0.002,0.759,0.03,0.735,0.258c0.04,0.178,0.233,0.22,0.786,0.261
		c0.057,0.243,0.19,0.44,0.724,0.557c0.106,0.06,1.038,0.177,1.104,0.179c0.34-0.03,0.545-0.474,0.545-0.474
		s0.072-0.283,0.061-0.627c0.315-0.272,0.482-0.514-0.11-0.748c-0.024-0.432,0.135-0.77-0.173-0.946
		c-0.079-0.008-1.488,0.099-1.608,0.153C319.649,229.566,319.582,229.968,319.582,229.968z"/>
	<path fill="#0C0003" d="M306.585,236.416c0.255-0.444,0.216-0.431,0.036-0.837c-0.18-0.406-0.095-0.601-0.754-0.787
		c-0.794,0.008-1.323-0.3-1.883,0.043c0.043,0.524-0.272,0.764-0.357,1.328c0.166,0.399,0.413,0.787,0.38,1.25
		c0.509,0.252,1.098-0.162,1.647-0.165C306.288,236.829,306.33,236.859,306.585,236.416z"/>
	<path fill="#0C0003" d="M306.698,231.401c0.256-0.443,0.216-0.431,0.036-0.837c-0.18-0.406-0.095-0.6-0.754-0.787
		c-0.793,0.008-1.322-0.3-1.883,0.042c0.044,0.524-0.271,0.764-0.357,1.329c0.167,0.399,0.414,0.787,0.381,1.25
		c0.508,0.252,1.097-0.162,1.646-0.165C306.401,231.815,306.443,231.845,306.698,231.401z"/>
</g>
<path d="M369.172,237.717v-11.634h-18.613v11.634h-9.307v37.229h-12.914c-0.281,0.764-0.605,1.511-0.98,2.234
	c0.016,0.03,0.033,0.062,0.049,0.092h13.846v55.844h-13.904c0.24,0.748,0.438,1.524,0.592,2.327h13.311V375h37.23V237.717H369.172z
	 M343.578,247.025h23.756l-23.756,19.438V247.025z M343.578,269.47l23.756,19.438l-23.756,19.438V269.47z M343.578,311.353
	l23.756,19.438l-23.756,19.438V311.353z M343.578,372.673v-19.438l23.756,19.438H343.578z M369.172,371.17l-23.756-19.438
	l23.756-19.438V371.17z M369.172,329.287l-23.756-19.438l23.756-19.439V329.287z M369.172,287.405l-23.756-19.438l23.756-19.438
	V287.405z M376.152,372.673H371.5V244.698h-27.922v-4.654h32.576L376.152,372.673z"/>
<path d="M743,238.815v-11.634h-18.613v11.634h-9.307v37.229h-12.914c-0.281,0.764-0.605,1.511-0.98,2.234
	c0.016,0.03,0.033,0.062,0.049,0.092h13.846v55.844h-13.904c0.24,0.748,0.438,1.524,0.592,2.327h13.311v39.556h37.23V238.815H743z
	 M717.406,248.123h23.756l-23.756,19.438V248.123z M717.406,270.568l23.756,19.438l-23.756,19.438V270.568z M717.406,312.451
	l23.756,19.438l-23.756,19.438V312.451z M717.406,373.771v-19.438l23.756,19.438H717.406z M743,372.268l-23.756-19.438L743,333.392
	V372.268z M743,330.385l-23.756-19.438L743,291.508V330.385z M743,288.503l-23.756-19.438L743,249.626V288.503z M749.98,373.771
	h-4.652V245.796h-27.922v-4.654h32.576L749.98,373.771z"/>
<path id="Shuttle-Launch_1_" d="M590.029,372.673h-4.652V247.025v-2.327h-2.328h-25.594v-4.654h6.98h18.613h6.981L590.029,372.673
	L590.029,372.673z M583.049,287.405L583.049,287.405l-23.756-19.438l23.756-19.438V287.405z M583.049,329.287L583.049,329.287
	l-23.756-19.438l23.756-19.439l0,0V329.287z M583.049,371.17l-23.756-19.438l23.756-19.438l0,0V371.17z M557.455,372.673v-19.438
	l0,0l23.756,19.438H557.455z M557.455,335.444v-2.327v-21.765l0,0l23.756,19.438l-23.756,19.438l0,0V335.444L557.455,335.444z
	 M557.455,277.273v-2.327v-5.477l0,0l23.756,19.438l-23.756,19.438l0,0V277.273L557.455,277.273z M557.455,247.025h23.756
	l-23.756,19.438l0,0V247.025L557.455,247.025z M566.762,237.717h13.961v-9.307h-13.961V237.717z M555.128,333.118H538.84v-44.21
	v-2.327l-2.326-9.307h18.614V333.118z M583.049,237.717v-11.634h-18.613v11.634h-9.308v37.229h-19.196l-4.072-16.288v-9.308
	c0-3.034-1.947-5.591-4.653-6.552V228.41c0-1.279-1.047-2.327-2.327-2.327c-1.279,0-2.326,1.047-2.326,2.327v14.389
	c-2.706,0.961-4.654,3.518-4.654,6.553v9.307l-6.98,27.921v2.327v59.216l-11.139,16.141c-1.188,1.528-0.1,3.755,1.837,3.755h9.302
	h2.327h2.327v2.327c0,2.571,2.082,4.653,4.652,4.653h9.309c2.57,0,4.652-2.083,4.652-4.653v-2.327h2.327h2.327h9.302
	c1.937,0,3.025-2.227,1.837-3.755l-11.139-16.141v-12.679h16.287V375h37.229V237.717H583.049z"/>
<path opacity="0.99" enable-background="new    " d="M711.832,343.922l-9.769-15.852c0.016-0.3,0.024-0.464,0.024-0.464
	l0.526-48.379c0.789-27.608-10.511-69.94-10.511-69.94s-0.003,0.009-0.007,0.025l-0.01-0.038l-0.091,0.363
	c-0.489,1.869-2.882,11.168-5.257,23.219v0.074c-2.795,14.192-5.557,32.171-5.153,46.296l0.525,48.379c0,0,0.009,0.164,0.025,0.464
	l-9.77,15.852l-1.4,25.843l0,0l-0.272,5.021h3.539h1.209h2.316l4.681-4.308h1.28V375h1.416l-0.03-0.46h1.84v-2.498l-1.455-0.192
	v-1.518c-0.002-0.01-0.003-0.021-0.005-0.032l0.045-2.637v1.157h1.212c0.029,0.438,0.224,0.779,0.46,0.779h9.795
	c0.237,0,0.431-0.34,0.461-0.779h1.212v-1.173l0.047,2.753v1.449l-1.456,0.192v2.498h1.841l-0.03,0.46h1.415v-4.523h1.274
	l4.68,4.308h2.317h1.208h3.539L711.832,343.922z"/>
</svg>
