<?xml version="1.0" encoding="utf-8"?>
<!-- Generator: Adobe Illustrator 15.0.0, SVG Export Plug-In . SVG Version: 6.00 Build 0)  -->
<!DOCTYPE svg PUBLIC "-//W3C//DTD SVG 1.1//EN" "http://www.w3.org/Graphics/SVG/1.1/DTD/svg11.dtd">
<svg version="1.1" id="Layer_1" xmlns="http://www.w3.org/2000/svg" xmlns:xlink="http://www.w3.org/1999/xlink" x="0px" y="0px"
	 width="297.693px" height="125.695px" viewBox="0 0 297.693 125.695" enable-background="new 0 0 297.693 125.695"
	 xml:space="preserve">
<path opacity="0.59" fill="#FFFFFF" d="M57.805,30.469L54.459,42.63c-0.538,1.956-0.708,3.359-0.508,4.208
	c0.198,0.85,0.789,1.718,1.768,2.602c0.373,0.309,0.99,0.659,1.851,1.05c0.859,0.39,1.386,0.611,1.575,0.664
	c1.09,0.3,2.313,0.484,3.669,0.551c0.442,0.061,1.025,0.067,1.751,0.024l-7.619,12.413l-2.912-0.803
	c-1.896-0.521-3.561-1.133-4.998-1.833c-2.062-1.025-3.801-2.295-5.219-3.809c-2.315-2.32-3.73-4.956-4.245-7.904
	c-0.441-2.469-0.291-5.056,0.453-7.758l4.209-15.3l-7.175-1.975l6.691-10.988l4.19,1.152l2.289-8.316l14.629-1.786l-3.774,13.72
	l8.667,2.385l-3.282,11.929L57.805,30.469z"/>
<path opacity="0.59" fill="#FFFFFF" d="M86.753,51.445L81.78,69.521l-14.365-2.499l11.999-43.609l13.592,1.979l-1.979,7.188
	c1.749-1.912,3.84-3.17,6.272-3.773c2.433-0.604,4.928-0.554,7.486,0.15c0.804,0.222,1.46,0.43,1.969,0.618
	c0.508,0.191,0.938,0.386,1.291,0.584l-8.064,12.37c-0.165-0.146-0.392-0.286-0.688-0.418c-0.295-0.132-0.773-0.29-1.438-0.472
	c-0.852-0.234-1.861-0.359-3.029-0.375c-2.1,0.036-3.781,0.874-5.048,2.515c-0.946,1.22-1.754,3.04-2.419,5.459l-0.304,1.103
	L86.753,51.445z"/>
<path opacity="0.59" fill="#FFFFFF" d="M178.375,32.141c2.343,0.645,4.065,1.894,5.172,3.747c1.104,1.854,1.355,3.876,0.754,6.063
	c-0.572,2.08-1.776,3.675-3.613,4.788c-1.838,1.111-3.746,1.395-5.726,0.85l-0.497-0.137c-2.089-0.575-3.724-1.769-4.899-3.581
	c-1.21-1.871-1.532-3.836-0.966-5.896c0.603-2.186,1.859-3.85,3.771-4.99C174.283,31.846,176.284,31.565,178.375,32.141"/>
<polygon opacity="0.59" fill="#FFFFFF" points="211.748,106.945 202.224,81.587 196.931,100.826 183.087,98.39 199.122,40.107 
	213.065,42.188 203.65,76.405 223.619,60.746 235.747,68.588 216.572,82.479 227.071,107.344 "/>
<path opacity="0.59" fill="#FFFFFF" d="M260.809,104.193c0.443-1.609,0.167-3.135-0.824-4.58c-0.992-1.444-2.446-2.429-4.36-2.956
	c-1.724-0.474-3.343-0.386-4.861,0.265c-1.518,0.653-2.49,1.761-2.92,3.321c-0.469,1.704-0.25,3.242,0.661,4.612
	c0.909,1.371,2.417,2.346,4.522,2.925c1.819,0.5,3.39,0.5,4.711-0.002C259.291,107.187,260.315,105.993,260.809,104.193
	 M277.955,91.292l-8.14,29.582l-12.604-1.938l0.996-3.621c-0.726,0.412-1.339,0.702-1.843,0.868
	c-3.125,1.176-6.273,1.328-9.443,0.457c-4.544-1.25-7.943-3.611-10.195-7.082c-2.405-3.666-2.979-7.771-1.73-12.313
	c1.158-4.212,3.685-7.285,7.577-9.217c3.893-1.936,8.253-2.236,13.082-0.907c2.603,0.716,4.742,1.916,6.418,3.598
	c0.559,0.563,1.153,1.362,1.783,2.401c0.185-0.669,0.354-1.327,0.506-1.978c0.153-0.651,0.224-1.414,0.21-2.291
	c-0.04-1.705-0.569-3.109-1.591-4.21c-1.021-1.103-2.879-2.025-5.578-2.769c-1.941-0.535-4.583-0.649-7.925-0.347
	c-2.815,0.244-4.438,0.484-4.856,0.725l5.806-11.386c0.43-0.084,2.119-0.029,5.07,0.173c3.697,0.253,6.611,0.673,8.742,1.26
	c5.063,1.394,8.841,3.58,11.333,6.562C278.491,82.313,279.285,86.458,277.955,91.292"/>
<path opacity="0.59" fill="#FFFFFF" d="M138.666,67.476c-0.63,1.541-1.216,3.159-2.291,4.461c-1.047,1.268-1.69,2.896-2.577,4.298
	c-0.927,1.464-1.313,3.129-1.623,4.814c-2.984-0.739-5.942-1.585-8.905-2.404c-0.754-0.208-1.508-0.415-2.262-0.618
	c0.119-0.62,0.309-1.225,0.511-1.819c0.402-1.181,0.906-2.358,1.083-3.601c0.261-1.824-1.113-3.822-1.662-5.541
	c-0.647-2.026-1.933-4.088-1.937-6.29c-0.521-1.802-1.075-3.458-1.798-5.095c-0.315-0.72-0.392-1.65-0.765-2.311
	c-0.441-0.78-1.354-1.253-1.832-2.063c-1.268-2.151,3.271-1.05,4.103-0.076c0.526,0.615,1.117,1.052,1.54,1.736
	c0.167,0.272,0.902,1.518,0.765,1.761c-0.243,0.363,1.467,2.805,1.675,3.359c0.522-0.183,1.275-2.818,1.352-3.187
	c0.397-1.931,0.264-3.912,0.219-5.884c-0.039-1.66,0.131-3.644,0.659-5.211c0.571-1.696,0.534-3.605,1.187-5.336
	c0.499-1.32,2.588-2.137,2.906-0.268c0.238,1.417-0.17,2.785-0.337,4.133c-0.224,2.359,0.114,4.667,0.193,6.909
	c0.035,1.01-0.045,1.907,0.68,2.652c0.823,0.848,1.127,0.118,1.521-0.692c0.896-1.837,1.324-3.832,2.353-5.613
	c1.005-1.743,2.026-3.454,2.974-5.221c0.496-0.927,1.487-2.362,2.728-1.917c1.965,0.706,0.446,2.842-0.074,3.998
	c-1.061,2.35-2.147,4.724-2.955,7.175c-0.506,1.534-1.661,2.928-2.021,4.534c-0.491,2.2,1.618,0.466,3.019,2.173
	c0.721,0.881,1.453,1.812,0.934,2.77c1.5,0.439,1.729,2.146,1.999,2.721c0.164,0.927-0.005-0.012,0,0
	C140.369,63.766,139.38,65.73,138.666,67.476 M152.22,45.905c-3.713-6.229-9.504-10.427-17.377-12.592
	c-7.024-1.934-13.75-0.984-20.173,2.846c-6.424,3.831-10.646,9.418-12.667,16.76c-1.904,6.92-0.823,13.526,3.242,19.815
	c3.951,6.088,9.438,10.098,16.465,12.03l1.665,0.458c6.655,1.83,13.067,0.878,19.239-2.858c6.172-3.737,10.218-9.098,12.14-16.083
	C156.778,58.927,155.932,52.134,152.22,45.905"/>
<path opacity="0.59" fill="#FFFFFF" d="M173.694,52.211c-3.313-0.861-4.024-1.374-5.2-3.186c-0.21-0.324-0.719-0.926-0.874-1.256
	l-0.053,0.188l-8.565,30.924c-0.457,1.659-0.912,2.948-1.368,3.867c-0.457,0.918-1.176,1.675-2.155,2.273
	c-0.738,0.459-1.609,0.665-2.617,0.618c-1.006-0.048-2.03-0.216-3.071-0.502c-0.521-0.144-0.897-0.26-1.128-0.35
	c-0.229-0.089-0.433-0.184-0.609-0.282l0.999,13.041l2.06,0.567c1.802,0.496,3.619,0.741,5.456,0.737
	c2.502-0.024,4.765-0.548,6.777-1.571c2.463-1.359,4.258-2.927,5.384-4.703c1.125-1.778,2.243-4.678,3.35-8.699l9.027-32.3
	C180.235,52.155,176.76,53.01,173.694,52.211"/>
</svg>
