<?xml version="1.0" encoding="UTF-8" standalone="no"?>
<!DOCTYPE svg PUBLIC "-//W3C//DTD SVG 1.1//EN" "http://www.w3.org/Graphics/SVG/1.1/DTD/svg11.dtd">
<svg width="100%" height="100%" viewBox="0 0 942 708" version="1.1" xmlns="http://www.w3.org/2000/svg" xmlns:xlink="http://www.w3.org/1999/xlink" xml:space="preserve" xmlns:serif="http://www.serif.com/" style="fill-rule:evenodd;clip-rule:evenodd;stroke-linejoin:round;stroke-miterlimit:2;">
    <g transform="matrix(-1,0,0,1,900,131)">
        <path d="M737.391,-31.441C755.927,-32.514 753.463,-35.616 772,-36.73L776,-8L776,-36L847,-47L855.155,15L855.155,30L845.465,52L860,72L860,117L832,123L860,151L847.887,262L828.507,265L847.887,272L847.887,296L828.507,303L847.887,307L847.887,321L847.887,358L811.549,362L847.887,368L845,495L800,502L769,479L755,502L749,489L717.238,482.927L715.914,430.357L712.136,481.951L669,473.703L659.387,475.615L658.339,433.951L655.227,476.442L593.277,488.764L590.708,488.776L589.109,425.234L584.453,488.808L549,489L531.2,486.033L530.089,441.897L526.909,485.318L489,479L449,489L415.388,479L408.581,481.287L407.331,431.626L403.571,482.97L379,491.225L345.628,484.425L344.826,452.56L342.539,483.796L319,479L299.893,483.877L299.03,449.578L296.453,484.755L269,491.763L239,484.07L232.9,485.694L231.786,441.433L228.458,486.877L209,492.056L201.593,475.884L194.541,499L156.058,489.621L154.973,446.518L151.857,489.073L107.008,491.053L105.197,473.784L99.093,493.531L93.749,476.219L81.21,488.074L79.97,438.792L76,493L44.302,512.539L-1,493.083L0,390L9.69,387L2.423,381L0.614,325.747L0,326L0,308L0.033,308.007L0,307L26.648,313L0,296L0,218L48.451,209L0,213L0,142L26.648,142L0,137L0,86L26.648,63L0,69L7,-47L54,-48C73.416,-45.327 87.835,-35.944 107.256,-33.827L108.355,-6L109.95,-33.535C139.672,-30.334 169.402,-27.756 199.137,-25.724L200.596,11.217L202.721,-25.481C217.106,-24.52 231.493,-23.685 245.881,-22.968L247.303,13.069L249.381,-22.796C260.808,-22.242 272.236,-21.762 283.664,-21.351L285.332,20.894L287.771,-21.207C294.44,-20.977 301.11,-20.771 307.78,-20.587L309.449,21.663L311.889,-20.477C339.842,-19.747 367.799,-19.412 395.76,-19.408L397.359,21.095L399.705,-19.409C430.662,-19.439 461.622,-19.869 492.586,-20.614L494.231,21.035L496.649,-20.714C513.896,-21.144 531.144,-21.67 548.393,-22.278L550.134,21.811L552.696,-22.431C580.831,-23.444 608.968,-24.669 637.107,-26.041L639.358,30.98L642.676,-26.314C655.165,-26.931 667.655,-27.577 680.144,-28.245L681.714,11.513L684.029,-28.453C700.811,-29.357 717.594,-30.299 734.377,-31.267L735.594,-0.424L737.391,-31.441Z" style="fill-opacity:0.67;stroke:black;stroke-width:0.95px;"/>
    </g>
</svg>
