<?xml version="1.0" encoding="UTF-8" standalone="no"?>
<!DOCTYPE svg PUBLIC "-//W3C//DTD SVG 1.1//EN" "http://www.w3.org/Graphics/SVG/1.1/DTD/svg11.dtd">
<svg width="100%" height="100%" viewBox="0 0 942 708" version="1.1" xmlns="http://www.w3.org/2000/svg" xmlns:xlink="http://www.w3.org/1999/xlink" xml:space="preserve" xmlns:serif="http://www.serif.com/" style="fill-rule:evenodd;clip-rule:evenodd;stroke-linejoin:round;stroke-miterlimit:2;">
    <g transform="matrix(1,0,0,1,41,131)">
        <g transform="matrix(1,0,0,1,-41,-131)">
            <path d="M766.81,110.006L768.404,118.4L780.275,113.816L780.084,115.573L777.415,120.511L787.544,119.094L788.712,129.041L797.9,125.767L815.708,112.434L847.104,88.036L847.417,93.21L858.137,87L865.078,89.631L866,97L869.073,91.46L881.022,98.069L896.651,156.612L882,157L896.158,160.415L894.518,173.063L896.119,178.914L866.617,180.238L896.76,181.254L896.863,181.634L905.149,197.568L932.536,205.075L909.023,212.594L883.925,246.499L906.441,258.738L907.757,268.123L892.45,283.788L909.819,290.103L910.262,303.591L899.218,319.385L911.002,326.089L911.536,342.317L878.74,362.72L901.438,374.397L874.815,413.1L903.702,420.435L903.419,433.083L891.672,437.007L903.334,436.852L903.299,438.424L880,460L903.37,464.463L892.78,497.757L887.556,531.71L896.624,573.706L900,614.654L860,630L830,630L821.289,622.003L807.028,620.563L807.805,608.93L799.24,619.407L804.658,584.283L772.998,619.807L770.739,613.467L774.418,597.355L768.368,606.816L767.289,603.788L754.008,620.865L752.215,620.896L750.774,608.647L740.682,621.097L739.273,621.121L737.972,607.031L727.632,621.324L716.184,621.523L717.883,598.075L695.126,621.89L690.622,621.968L690.286,615.727L686.964,621.662L686.262,612.247L677.706,622.193L666.297,622.392L665.786,620.068L663.395,622.442L649.654,622.681L655.49,591.313L626.419,623.086L608.632,623.396L606.78,604.059L592.926,615.534L590.248,611.629L588.008,613.288L598.636,584.465L567.099,614.618L564.86,600.645L547.141,624.466L527.177,624.814L533.145,602.157L503.672,625.223L493.713,625.396L495.272,611.151L481.738,625.605L477.281,625.682L440.562,627.742L439.68,625.293L445.53,598.853L435.903,613.661L435.342,611.755L421.897,626.029L425.205,612.535L409.783,629.468L407.714,629.584L405.525,607.291L391.902,630.471L384.207,630.902L395.229,599.693L368.362,631.791L363.494,632.064L356.405,615.193L349.574,623.342L357.394,595.073L322.949,631.558L323.135,627.446L321.083,633.425L320.346,634.163L315.513,634.063L317.07,608.765L294.183,633.622L271.919,633.162L276.901,604.234L263.804,626.623L261.476,618.73L256.864,623.124L260.823,604.32L240.723,632.516L237.332,632.446L240.975,614.945L233.209,632.361L231.988,632.336L233.328,607.761L218.36,632.054L210.346,631.888L215.632,608.241L201.362,631.702L196.546,631.603L199.787,614.061L187.249,631.41L180.903,631.279L175.101,613.226L169.727,617.55L169.842,614.232L166.312,620.298L153.372,630.71L151.125,630.663L153.002,617.025L149.165,622.494L148.112,605.386L135.028,629.624L50,635L40,540L50.48,529.573L52.224,502.216L53.738,500.872L59.949,503.456L57.743,497.396L68.257,488.699L52.529,483.073L41.846,453.722L45.08,425.692L58.013,413.94L46.891,410L50.787,376.229L68.674,364.31L52.63,360.261L53.722,350.799L44.653,315.987L89.105,295.569L44.412,293.169L48.988,263.616L72.528,250.5L51.347,248.374L53.987,231.323L94.871,200.177L61.431,199.453L81.924,188.476L52.43,171.807L79.531,156.251L53.47,129.052L54.425,123.766L54.697,85.794L53.726,81.706L66.584,79.894L65.485,94.047L72.991,81.194L82.031,92.859L83.717,91.418L84.329,91.5L92.829,85.713L98.641,85.05L90.995,116.102L102.793,84.576L108.135,83.947L108.338,88.532L112.046,83.486L128.833,81.507L130.733,105.443L145.993,87.968L152.117,96.817L166.022,87.073L169.065,100.493L180.865,92.42L185.689,98.445L197.372,92.127L197.023,104.438L213.625,85.38L215.06,85.712L222.757,85.828L224.531,108.466L245.269,86.169L251.674,86.267L252.355,110.217L263.127,95.639L268.878,100.807L280.861,94.252L280.662,97.165L287.954,90.372L298.555,84.573L314.108,85.837L314.288,120.204L342.662,86.845L346.336,86.522L344.5,98.887L357.071,86.328L369.643,87.041L375.07,130.069L390.682,135.782L420.845,92.567L421.821,92.001L417.063,109.765L424.123,90.918L429.161,91.062L427.239,110.19L441.234,91.407L448.842,91.625L449.654,100.534L457.561,91.907L467.415,92.455L468.56,107.708L481.682,93.566L485.013,94.192L484.001,106.149L495.7,95.119L506.314,91.987L513.458,94.285L514.779,99.633L519.552,93.828L528.048,93.17L528.341,100.668L538.362,92.371L545.919,91.786L547.264,104.99L554.468,94.221L556.888,96.399L557.241,109.778L564.384,103.147L569.775,107.999L569.645,113.716L572.067,110.062L573.997,111.799L590.399,104.609L591.443,106.694L597.415,101.533L606.519,97.543L610.751,99.147L610.023,113.041L614.174,103.056L615.715,107.069L613.441,115.776L624.549,115.865L639.77,104.572L650.296,110.155L661.982,97.849L665.272,97.208L665.185,98.789L667.406,96.791L674.252,95.456L680.292,108.205L698.715,94.184L704.899,100.71L707.06,108.592L729.167,95.914L732.05,128.447L748.414,103.366L748.215,114.05L757.843,99.345L761.042,99.693L760.693,117.332L766.81,110.006ZM621.668,106.543L621.694,106.538L621.663,106.697L621.668,106.543Z" style="fill:rgb(155,25,21);fill-opacity:0.89;"/>
            <path d="M50.792,493.434C51.197,492.724 51.714,492.07 52.335,491.5L49.835,490.605C47.594,489.804 45.826,488.046 45.012,485.809L34.328,456.459C33.903,455.291 33.756,454.04 33.898,452.805L37.133,424.775C37.355,422.852 38.267,421.074 39.7,419.772L42.853,416.907C40.154,415.331 38.574,412.28 38.943,409.083L42.84,375.312C43.11,372.976 44.394,370.876 46.351,369.572L49.363,367.565C46.225,366.164 44.277,362.861 44.683,359.344L45.603,351.368L36.911,318.004C35.933,314.25 37.789,310.336 41.313,308.717L56.329,301.82L43.983,301.157C41.726,301.036 39.625,299.965 38.2,298.21C36.776,296.455 36.16,294.179 36.506,291.945L41.082,262.392C41.459,259.954 42.94,257.827 45.094,256.627L47.409,255.337C46.493,254.819 45.678,254.119 45.02,253.269C43.677,251.533 43.106,249.32 43.442,247.15L46.081,230.099C46.398,228.055 47.494,226.213 49.139,224.959L71.821,207.68L61.258,207.451C57.623,207.372 54.498,204.852 53.651,201.316C52.805,197.78 54.449,194.118 57.654,192.401L65.332,188.288L48.494,178.771C45.991,177.357 44.439,174.708 44.43,171.833C44.42,168.958 45.954,166.299 48.447,164.868L66.681,154.403L47.694,134.586C45.922,132.737 45.143,130.15 45.598,127.629L46.431,123.021L46.69,86.703L45.942,83.554C45.422,81.364 45.849,79.056 47.118,77.196C48.387,75.337 50.38,74.098 52.61,73.784L65.468,71.972C67.515,71.684 69.58,72.2 71.239,73.388C71.641,73.298 72.051,73.238 72.468,73.211C75.121,73.037 77.686,74.192 79.315,76.294L83.851,82.147L88.326,79.1C89.399,78.37 90.633,77.912 91.922,77.765L97.734,77.102C98.444,77.021 99.151,77.036 99.841,77.141C100.479,76.887 101.156,76.714 101.857,76.631L107.198,76.002C107.864,75.923 108.53,75.929 109.183,76.016C109.797,75.78 110.444,75.619 111.109,75.541L127.897,73.562C130.057,73.308 132.227,73.943 133.908,75.323C135.589,76.702 136.636,78.706 136.808,80.874L137.205,85.869L139.967,82.706C141.589,80.847 143.979,79.842 146.442,79.98C148.906,80.119 151.167,81.386 152.571,83.415L154.116,85.647L161.431,80.521C163.613,78.991 166.415,78.649 168.902,79.609C171.389,80.569 173.234,82.704 173.824,85.303L174.264,87.243L176.347,85.817C179.802,83.454 184.494,84.152 187.11,87.419L187.759,88.231L193.566,85.09C196.081,83.731 199.13,83.816 201.565,85.314C201.892,85.516 202.202,85.739 202.492,85.98L207.592,80.125C209.534,77.897 212.545,76.92 215.425,77.585L216.032,77.725L222.878,77.829C227.007,77.892 230.41,81.086 230.733,85.203L231.083,89.675L239.411,80.721C240.953,79.063 243.126,78.136 245.39,78.17L251.795,78.267C256.077,78.332 259.549,81.758 259.671,86.039L259.737,88.393C260.544,88.016 261.415,87.772 262.319,87.68C264.563,87.453 266.798,88.182 268.475,89.689L270.01,91.069L277.021,87.234C278.152,86.615 279.392,86.29 280.637,86.255L282.501,84.518C282.989,84.064 283.531,83.673 284.115,83.353L294.715,77.554C296.086,76.805 297.646,76.473 299.203,76.599L314.756,77.864C318.893,78.2 322.086,81.644 322.108,85.795L322.175,98.584L336.568,81.661C337.93,80.06 339.868,79.059 341.962,78.875L345.635,78.552C347.815,78.361 349.965,79.07 351.597,80.495C353.191,78.998 355.333,78.217 357.523,78.341L370.096,79.053C373.949,79.272 377.097,82.21 377.58,86.039L382.397,124.231L387.647,126.153L414.284,87.989C414.952,87.032 415.82,86.234 416.829,85.648L417.806,85.081C418.382,84.747 418.989,84.49 419.611,84.312C420.973,83.381 422.622,82.872 424.351,82.921L429.389,83.065C431.609,83.129 433.703,84.112 435.169,85.781C435.23,85.849 435.289,85.919 435.347,85.99C436.907,84.295 439.134,83.344 441.463,83.41L449.071,83.628C450.682,83.674 452.178,84.196 453.419,85.063C454.783,84.238 456.379,83.829 458.005,83.92L467.859,84.467C470.953,84.639 473.579,86.561 474.755,89.27L475.818,88.125C477.687,86.111 480.458,85.197 483.159,85.704L486.49,86.33C488.23,86.657 489.741,87.528 490.869,88.742C491.638,88.16 492.507,87.72 493.436,87.446L504.05,84.314C505.591,83.859 507.234,83.879 508.764,84.371L515.908,86.67L515.952,86.684C516.873,86.22 517.885,85.933 518.934,85.852L527.43,85.194C529.316,85.048 531.184,85.575 532.707,86.667L533.26,86.209C534.532,85.156 536.098,84.523 537.744,84.395L545.301,83.81C547.954,83.604 550.41,84.718 552.017,86.606C552.489,86.454 552.977,86.345 553.478,86.283C555.781,85.995 558.095,86.722 559.82,88.275L562.24,90.453C563.613,91.689 564.508,93.353 564.791,95.157C566.568,95.247 568.322,95.927 569.737,97.201L575.127,102.053C575.255,102.168 575.377,102.286 575.496,102.407L587.187,97.282C588.383,96.758 589.64,96.549 590.864,96.621L592.185,95.48C592.79,94.957 593.471,94.528 594.204,94.206L603.307,90.216C605.226,89.375 607.397,89.32 609.356,90.062L613.587,91.667C615.709,92.471 617.333,94.11 618.155,96.117C619.717,97.013 620.967,98.431 621.642,100.187L623.183,104.2C623.473,104.953 623.645,105.74 623.698,106.535L635.003,98.147C637.48,96.309 640.794,96.059 643.519,97.505L648.678,100.241L656.182,92.34C657.327,91.135 658.819,90.316 660.451,89.997L663.74,89.356C664.1,89.286 664.461,89.241 664.822,89.22C665.165,89.103 665.516,89.009 665.874,88.939L672.721,87.604C676.31,86.904 679.917,88.726 681.482,92.031L683.298,95.864L693.87,87.818C697.121,85.344 701.713,85.716 704.523,88.681L710.706,95.208C711.124,95.649 711.489,96.135 711.795,96.655L725.187,88.975C727.554,87.617 730.449,87.56 732.868,88.822C735.286,90.083 736.895,92.491 737.136,95.208L737.979,104.719L741.714,98.995C743.645,96.034 747.289,94.695 750.673,95.692L751.15,94.963C752.798,92.446 755.718,91.067 758.708,91.392L761.906,91.74C766.026,92.188 769.122,95.708 769.04,99.851L768.992,102.309C771.565,103.038 773.585,104.999 774.409,107.505L777.393,106.353C779.996,105.348 782.936,105.772 785.149,107.472C786.38,108.419 787.288,109.684 787.799,111.098C789.468,111.152 791.092,111.727 792.433,112.762C793.996,113.969 795.053,115.707 795.41,117.638L810.855,106.073L842.195,81.719C844.538,79.898 847.697,79.523 850.401,80.747C850.86,80.954 851.294,81.202 851.697,81.485L854.127,80.078C856.209,78.872 858.723,78.667 860.972,79.52L867.913,82.15C868.789,82.482 869.584,82.959 870.274,83.548C871.187,83.687 872.091,83.987 872.945,84.459L884.894,91.069C886.798,92.122 888.19,93.904 888.751,96.006L904.38,154.548C904.823,156.207 904.716,157.943 904.108,159.509C904.179,160.14 904.176,160.788 904.091,161.443L902.658,172.5L903.835,176.802C903.943,177.195 904.019,177.592 904.066,177.991C904.159,178.2 904.244,178.415 904.32,178.633L910.634,190.777L934.651,197.359C938.067,198.295 940.46,201.366 940.535,204.906C940.609,208.447 938.346,211.616 934.973,212.694L913.918,219.428L895.829,243.864L910.261,251.71C912.489,252.921 914.011,255.116 914.363,257.627L915.679,267.012C916.024,269.466 915.211,271.942 913.479,273.714L906.841,280.507L912.552,282.584C915.624,283.701 917.707,286.573 917.814,289.84L918.258,303.328C918.315,305.057 917.81,306.758 916.818,308.175L910.806,316.773L914.958,319.136C917.377,320.511 918.906,323.045 918.998,325.826L919.532,342.054C919.625,344.91 918.189,347.6 915.762,349.11L894.945,362.06L905.098,367.283C907.142,368.335 908.635,370.215 909.196,372.445C909.757,374.674 909.332,377.037 908.029,378.931L887.915,408.172L905.671,412.681C909.283,413.598 911.783,416.888 911.7,420.614L911.417,433.262C911.402,433.907 911.311,434.537 911.15,435.142C911.284,435.757 911.347,436.391 911.332,437.031L911.297,438.603C911.249,440.769 910.324,442.822 908.735,444.294L897.052,455.112L904.87,456.605C907.117,457.034 909.073,458.405 910.243,460.37C911.414,462.336 911.687,464.708 910.993,466.888L900.593,499.588L895.688,531.466L904.444,572.018C904.517,572.358 904.568,572.702 904.597,573.049L907.973,613.997C908.265,617.54 906.184,620.85 902.865,622.124L862.865,637.469C861.951,637.82 860.98,638 860,638L830,638C827.996,638 826.066,637.248 824.59,635.893L817.838,629.695L806.225,628.523C804.67,628.366 803.261,627.772 802.111,626.874C800.177,627.618 797.975,627.602 795.984,626.715C792.688,625.246 790.783,621.753 791.333,618.188L792.626,609.808L778.971,625.13C777.091,627.239 774.238,628.2 771.465,627.659C768.693,627.117 766.411,625.154 765.463,622.493L764.65,620.213L760.323,625.776C758.838,627.686 756.567,628.821 754.148,628.863L752.354,628.895C750.101,628.934 748.033,628.034 746.545,626.54C745.07,628.129 743.005,629.057 740.821,629.095L739.412,629.12C737.128,629.16 735.038,628.235 733.548,626.709C732.073,628.329 729.987,629.284 727.771,629.323L716.324,629.522C714.077,629.561 711.918,628.654 710.374,627.023C708.83,625.391 708.043,623.186 708.205,620.945L708.296,619.687L700.91,627.417C699.434,628.961 697.401,629.851 695.265,629.889L690.762,629.967C689.848,629.983 688.966,629.845 688.141,629.576C687.194,629.717 686.21,629.689 685.234,629.473C684.32,629.271 683.469,628.915 682.708,628.437C681.337,629.535 679.63,630.161 677.846,630.192L666.436,630.39C665.941,630.399 665.455,630.362 664.981,630.283C664.508,630.379 664.024,630.432 663.535,630.441L649.794,630.68C647.392,630.722 645.098,629.682 643.547,627.848C641.995,626.014 641.35,623.58 641.789,621.218L642.508,617.352L632.321,628.486C630.839,630.107 628.755,631.046 626.558,631.085L608.771,631.394C604.595,631.467 601.066,628.315 600.668,624.158L600.255,619.851L598.029,621.695C596.298,623.129 594.043,623.768 591.818,623.457C590.115,623.219 588.55,622.441 587.339,621.26C585.878,621.137 584.444,620.614 583.21,619.689C581.168,618.158 580.026,615.79 580.008,613.344L572.627,620.401C570.478,622.456 567.366,623.149 564.548,622.201C563.03,621.69 561.732,620.749 560.783,619.53L553.56,629.241C552.08,631.231 549.76,632.422 547.28,632.465L527.316,632.812C524.811,632.856 522.43,631.723 520.883,629.752C519.406,627.869 518.852,625.429 519.362,623.103L508.602,631.523C507.233,632.595 505.551,633.191 503.811,633.222L493.852,633.395C491.565,633.435 489.371,632.494 487.823,630.81L487.578,631.073C486.098,632.653 484.042,633.566 481.877,633.603L477.575,633.678L441.01,635.729C437.478,635.927 434.234,633.781 433.035,630.453L432.154,628.004C432.046,627.705 431.956,627.401 431.885,627.093L427.72,631.515C425.228,634.16 421.267,634.793 418.075,633.058C417.91,632.968 417.749,632.873 417.593,632.773L415.697,634.855C414.286,636.404 412.323,637.338 410.231,637.455L408.162,637.571C404.526,637.775 401.303,635.514 400.157,632.213L398.798,634.524C397.442,636.832 395.022,638.308 392.349,638.458L384.655,638.89C381.983,639.039 379.413,637.844 377.807,635.703C377.429,635.198 377.115,634.657 376.869,634.091L374.497,636.926C373.077,638.622 371.018,639.654 368.81,639.778L363.942,640.051C360.563,640.241 357.43,638.283 356.119,635.163L353.963,630.032C351.582,631.594 348.478,631.804 345.853,630.425C343.215,629.039 341.624,626.345 341.574,623.483L328.766,637.05C328.405,637.432 328.014,637.772 327.597,638.069C327.342,638.427 327.057,638.765 326.744,639.078L326.006,639.817C324.465,641.36 322.361,642.207 320.181,642.162L315.348,642.062C313.17,642.017 311.104,641.085 309.629,639.483C308.153,637.881 307.394,635.746 307.528,633.572L307.702,630.75L300.068,639.041C298.514,640.729 296.311,641.668 294.017,641.621L271.754,641.16C269.424,641.112 267.231,640.05 265.748,638.253C264.874,637.193 264.298,635.94 264.053,634.62C263.651,634.632 263.244,634.614 262.837,634.565C260.505,634.281 258.462,632.997 257.186,631.118C255.749,631.176 254.289,630.848 252.969,630.112C252.8,630.018 252.635,629.918 252.475,629.813L247.238,637.16C245.702,639.314 243.202,640.569 240.558,640.515L237.166,640.445C236.463,640.43 235.773,640.323 235.111,640.132C234.445,640.295 233.751,640.374 233.043,640.359L231.823,640.334C229.654,640.289 227.597,639.366 226.123,637.776C225.725,637.347 225.378,636.88 225.087,636.383C223.585,638.717 220.977,640.11 218.194,640.052L210.181,639.886C208.561,639.853 207.01,639.33 205.717,638.413C204.395,639.271 202.826,639.734 201.196,639.701L196.381,639.601C194.698,639.566 193.086,639.003 191.763,638.015C190.404,638.944 188.773,639.444 187.083,639.409L180.738,639.277C177.324,639.207 174.332,636.978 173.287,633.727L171.047,626.756L158.387,636.943C156.922,638.122 155.087,638.747 153.207,638.708L150.96,638.662C148.677,638.614 146.524,637.594 145.041,635.858C143.96,634.591 143.311,633.031 143.159,631.402L142.068,633.424C140.757,635.853 138.287,637.434 135.533,637.608L50.505,642.984C46.225,643.255 42.493,640.102 42.044,635.837L32.044,540.837C31.79,538.43 32.641,536.037 34.357,534.329L42.689,526.039L44.241,501.707C44.375,499.601 45.335,497.634 46.913,496.233L48.427,494.89C49.137,494.259 49.939,493.772 50.792,493.434ZM621.51,114.499C621.171,114.06 620.303,112.942 619.262,111.658L618.522,113.439C619.857,114.089 621.063,114.398 621.51,114.499ZM900.554,188.731C901.833,188.066 902.929,187.058 903.702,185.785C904.856,183.883 905.154,181.611 904.577,179.513L904.571,179.521C904.704,180.122 904.769,180.747 904.758,181.389C904.707,184.453 902.937,187.091 900.377,188.391L896.863,181.634L896.76,181.254L866.617,180.238L896.119,178.914L894.518,173.063L896.158,160.415L882,157L896.651,156.612L881.022,98.069L869.073,91.46L866,97L865.078,89.631L858.137,87L847.417,93.21L847.104,88.036L815.708,112.434L797.9,125.767L788.712,129.041L787.544,119.094L777.415,120.511L780.084,115.573L780.275,113.816L768.404,118.4L766.81,110.006L760.693,117.332L761.042,99.693L757.843,99.345L748.215,114.05L748.414,103.366L732.05,128.447L729.167,95.914L707.06,108.592L704.899,100.71L698.715,94.184L680.292,108.205L674.252,95.456L667.406,96.791L665.185,98.789L665.272,97.208L661.982,97.849L650.296,110.155L639.77,104.572L624.549,115.865L613.441,115.776L615.715,107.069L614.174,103.056L610.023,113.041L610.751,99.147L606.519,97.543L597.415,101.533L591.443,106.694L590.399,104.609L573.997,111.799L572.067,110.062L569.645,113.716L569.775,107.999L564.384,103.147L557.241,109.778L556.888,96.399L554.468,94.221L547.264,104.99L545.919,91.786L538.362,92.371L528.341,100.668L528.048,93.17L519.552,93.828L514.779,99.633L513.458,94.285L506.314,91.987L495.7,95.119L484.001,106.149L485.013,94.192L481.682,93.566L468.56,107.708L467.415,92.455L457.561,91.907L449.654,100.534L448.842,91.625L441.234,91.407L427.239,110.19L429.161,91.062L424.123,90.918L417.063,109.765L421.821,92.001L420.845,92.567L390.682,135.782L375.07,130.069L369.643,87.041L357.071,86.328L344.5,98.887L346.336,86.522L342.662,86.845L314.288,120.204L314.108,85.837L298.555,84.573L287.954,90.372L280.662,97.165L280.861,94.252L268.878,100.807L263.127,95.639L252.355,110.217L251.674,86.267L245.269,86.169L224.531,108.466L222.757,85.828L215.06,85.712L213.625,85.38L197.023,104.438L197.372,92.127L185.689,98.445L180.865,92.42L169.065,100.493L166.022,87.073L152.117,96.817L145.993,87.968L130.733,105.443L128.833,81.507L112.046,83.486L108.338,88.532L108.135,83.947L102.793,84.576L90.995,116.102L98.641,85.05L92.829,85.713L84.329,91.5L83.717,91.418L82.031,92.859L72.991,81.194L65.485,94.047L66.584,79.894L53.726,81.706L54.697,85.794L54.425,123.766L53.47,129.052L79.531,156.251L52.43,171.807L81.924,188.476L61.431,199.453L94.871,200.177L53.987,231.323L51.347,248.374L72.528,250.5L48.988,263.616L44.412,293.169L89.105,295.569L44.653,315.987L53.722,350.799L52.63,360.261L68.674,364.31L50.787,376.229L46.891,410L58.013,413.94L45.08,425.692L41.846,453.722L52.529,483.073L68.257,488.699L57.743,497.396L59.949,503.456L53.738,500.872L52.224,502.216L50.48,529.573L40,540L50,635L135.028,629.624L148.112,605.386L149.165,622.494L153.002,617.025L151.125,630.663L153.372,630.71L166.312,620.298L169.842,614.232L169.727,617.55L175.101,613.226L180.903,631.279L187.249,631.41L199.787,614.061L196.546,631.603L201.362,631.702L215.632,608.241L210.346,631.888L218.36,632.054L233.328,607.761L231.988,632.336L233.209,632.361L240.975,614.945L237.332,632.446L240.723,632.516L260.823,604.32L256.864,623.124L261.476,618.73L263.804,626.623L276.901,604.234L271.919,633.162L294.183,633.622L317.07,608.765L315.513,634.063L320.346,634.163L321.083,633.425L323.135,627.446L322.949,631.558L357.394,595.073L349.574,623.342L356.405,615.193L363.494,632.064L368.362,631.791L395.229,599.693L384.207,630.902L391.902,630.471L405.525,607.291L407.714,629.584L409.783,629.468L425.205,612.535L421.897,626.029L435.342,611.755L435.903,613.661L445.53,598.853L439.68,625.293L440.562,627.742L477.281,625.682L481.738,625.605L495.272,611.151L493.713,625.396L503.672,625.223L533.145,602.157L527.177,624.814L547.141,624.466L564.86,600.645L567.099,614.618L598.636,584.465L588.008,613.288L590.248,611.629L592.926,615.534L606.78,604.059L608.632,623.396L626.419,623.086L655.49,591.313L649.654,622.681L663.395,622.442L665.786,620.068L666.297,622.392L677.706,622.193L686.262,612.247L686.964,621.662L690.286,615.727L690.622,621.968L695.126,621.89L717.883,598.075L716.184,621.523L727.632,621.324L737.972,607.031L739.273,621.121L740.682,621.097L750.774,608.647L752.215,620.896L754.008,620.865L767.289,603.788L768.368,606.816L774.418,597.355L770.739,613.467L772.998,619.807L804.658,584.283L799.24,619.407L807.805,608.93L807.028,620.563L821.289,622.003L830,630L860,630L900,614.654L896.624,573.706L887.556,531.71L892.78,497.757L903.37,464.463L880,460L903.299,438.424L903.334,436.852L891.672,437.007L903.419,433.083L903.702,420.435L874.815,413.1L901.438,374.397L878.74,362.72L911.536,342.317L911.002,326.089L899.218,319.385L910.262,303.591L909.819,290.103L892.45,283.788L907.757,268.123L906.441,258.738L883.925,246.499L909.023,212.594L932.536,205.075L905.149,197.568L900.554,188.731ZM622.041,114.506L621.871,114.523L621.86,114.531L622.038,114.519L622.041,114.506ZM622.038,114.519L622.033,114.538C622.292,114.527 622.693,114.493 623.214,114.392L622.632,114.449C622.394,114.485 622.192,114.506 622.038,114.519ZM622.632,114.449C624.497,114.166 628.575,112.99 629.542,108.091L629.53,108.101C628.618,113.191 623.482,114.289 622.043,114.498L622.041,114.506L622.632,114.449ZM629.53,108.101C629.602,107.699 629.648,107.272 629.663,106.819L622.105,114.262L622.083,114.345L629.53,108.101ZM622.083,114.345L621.872,114.522L622.043,114.498L622.083,114.345ZM619.421,111.275L619.386,111.359C619.973,112.26 620.53,113.03 620.95,113.586C620.553,112.975 620.019,112.162 619.421,111.275ZM618.75,99.091C618.752,99.248 618.748,99.406 618.74,99.565L618.398,106.084L621.561,106.127L620.851,107.835L621.902,107.844C621.925,103.389 621.63,98.402 620.173,98.684C619.64,98.787 619.167,98.924 618.75,99.091Z" style="fill-opacity:0.31;"/>
        </g>
        <g transform="matrix(1,0,0,1,-42,-131)">
            <path d="M151.41,630.669L151.125,630.663L153.002,617.025L149.165,622.494L148.112,605.386L135.028,629.624L50,635L40,540L50.48,529.573L52.221,502.27C52.226,502.248 52.231,502.227 52.236,502.206L53.738,500.872L59.949,503.456L57.743,497.396L68.257,488.699L63.937,487.154L54.513,417.12L58.013,413.94L46.891,410L47.514,404.6L62.465,368.447L68.674,364.31L52.63,360.261L53.566,352.149L54.806,358.758L73.515,363.477L49.061,408.646L61.838,413.17L72.274,487.994L60.127,498.044L63.421,507.089L54.743,503.479C52.337,512.126 55.339,521.923 52.453,530.468C50.897,535.072 42.148,535.893 42.119,540.753C41.93,571.617 52.017,601.972 51.828,632.836L133.755,627.636L149.734,598.02L150.872,616.447L156.23,608.808L153.917,625.635L172.215,606.005L171.971,613.064L176.16,609.693L182.44,629.217L203.547,605.272L199.065,629.549L200.193,629.572L213.828,607.144L217.695,608.702L212.978,629.824L217.191,629.909L235.908,599.519L234.574,624.057L239.023,614.075L243.069,615.381L240.912,625.753L265.05,594.683L260.405,616.772L262.546,614.729L264.463,621.22L275.032,603.141L279.037,604.602L274.49,631.041L319.631,602.755L317.843,631.918L319.051,631.942L321.058,626.733L323.96,627.285L361.896,587.085L354.432,614.096L357.041,610.979L364.936,629.755L393.516,598.258L397.338,600.438L387.68,627.805L384.325,630.568L395.229,599.693L382.541,614.851L364.536,632.005L363.494,632.064L356.405,615.193L349.574,623.342L357.394,595.073L322.949,631.558L323.135,627.446L321.083,633.425L320.645,633.864L320.769,631.133L319.545,631.952L320.391,631.969L318.793,632.613L318.875,632.4L316.363,634.081L315.513,634.063L317.07,608.765L309.4,617.096L273.928,633.203L271.919,633.162L276.901,604.234L263.804,626.623L261.476,618.73L256.864,623.124L260.823,604.32L248.584,621.49L240.149,629.42L239.51,632.491L239.111,632.483L238.16,631.29L237.429,631.977L240.975,614.945L233.209,632.361L231.988,632.336L233.328,607.761L218.36,632.054L210.346,631.888L215.632,608.241L201.362,631.702L196.546,631.603L199.787,614.061L191.272,625.844L182.586,631.314L180.903,631.279L175.101,613.226L169.727,617.55L169.842,614.232L167.315,618.575L153.436,629.128L153.219,630.707L152.977,630.702L152.343,629.959L151.41,630.669ZM52.26,345.188L44.653,315.987L89.105,295.569L44.412,293.169L44.896,290.046L64.319,255.074L72.528,250.5L51.347,248.374L51.529,247.203L83.656,208.72L94.871,200.177L61.431,199.453L81.924,188.476L52.43,171.807L79.531,156.251L72.609,149.027C66.971,141.207 58.509,134.972 53.92,126.564L54.425,123.766L54.697,85.794L53.726,81.706L66.584,79.894L65.485,94.047L72.991,81.194L82.031,92.859L83.717,91.418L84.329,91.5L90.415,87.357L94.878,85.479L98.641,85.05L90.995,116.102L102.793,84.576L108.135,83.947L108.338,88.532L110.138,86.082L110.146,86.275L121.835,82.332L128.833,81.507L130.733,105.443L145.993,87.968L152.117,96.817L166.022,87.073L169.065,100.493L180.865,92.42L185.689,98.445L197.372,92.127L197.023,104.438L213.625,85.38L215.06,85.712L222.757,85.828L224.531,108.466L233.824,98.475L250.918,86.255L251.674,86.267L252.355,110.217L263.127,95.639L268.878,100.807L280.861,94.252L280.662,97.165L286.734,91.509L310.295,85.527L314.108,85.837L314.288,120.204L328.964,102.95L344.084,88.657L344.376,86.694L344.832,86.654L345.478,87.339L346.335,86.53L344.5,98.887L351.363,92.031L366.498,86.862L369.643,87.041L375.07,130.069L390.682,135.782L415.732,99.892L418.623,96.136L418.791,95.51L420.845,92.567L421.101,92.418L421.31,92.578L421.444,92.22L421.821,92.001L417.063,109.765L424.123,90.918L429.161,91.062L427.239,110.19L435.059,99.695L447.633,91.59L448.842,91.625L449.654,100.534L455.248,94.431L463.055,92.212L467.415,92.455L468.56,107.708L481.682,93.566L485.013,94.192L484.001,106.149L491.356,99.214L511.377,93.616L513.458,94.285L514.779,99.633L519.552,93.828L528.048,93.17L528.341,100.668L537.196,93.337L540.119,92.235L545.919,91.786L547.264,104.99L554.468,94.221L556.273,95.845L556.18,95.984L556.926,97.848L557.241,109.778L564.384,103.147L568.02,106.42L569.617,109.291L569.75,109.089L569.645,113.716L572.067,110.062L573.997,111.799L590.399,104.609L591.443,106.694L597.415,101.533L598.113,101.227L609.053,98.503L610.751,99.147L610.023,113.041L614.174,103.056L615.715,107.069L613.441,115.776L617.294,115.807L610.042,118.379L610.605,113.623L607.454,112.907L608.107,100.872L590.645,110.698L589.223,107.855L573.528,114.708L572.541,113.818L566.986,122.189L564.41,106.458L554.955,115.216L553.322,100.246L545.564,111.818L543.802,94.32L526.196,105.471L525.824,95.669L513.647,104.624L511.543,96.072L481.279,111.787L482.632,95.997L482.474,95.967L466.756,112.864L465.401,94.509L447.97,105.527L446.903,93.688L424.416,117.464L426.886,93.056L425.533,93.015L418.973,110.48L415.101,109.239L417.079,101.88L391.428,138.148L373.278,131.496L367.928,88.879L341.755,104.336L343.661,91.507L312.405,125.367L312.209,87.597L278.433,101.846L278.723,97.593L268.609,103.126L263.413,98.456L250.61,115.78L249.825,88.14L222.976,112.925L221,87.699L214.464,87.305L194.977,109.675L195.382,95.361L185.198,100.869L180.484,94.982L167.831,103.64L164.794,90.254L151.641,99.472L145.819,91.059L129.193,110.1L127.091,83.631L106.674,94.017L106.321,86.08L104.172,86.334L92.783,116.771L89.142,115.645L96.129,87.26L83.463,93.312L84.959,92.871L81.748,95.615L73.214,84.605L62.931,102.215L64.491,82.122L56.075,83.309C56.105,87.816 56.504,92.315 56.534,96.822C56.594,105.863 52.733,115.656 56.345,123.945C61.936,136.777 77.034,143.864 82.626,156.697L56.333,171.794L85.941,188.522L68.864,197.673L100.476,198.352L53.596,246.634L78.934,249.175L46.69,291.32L97.196,294.026L46.99,317.095L52.26,345.188ZM631.343,110.824L639.77,104.572L650.296,110.155L660.995,98.889L662.465,97.857L662.471,97.754L665.272,97.208L665.185,98.789L667.406,96.791L674.252,95.456L680.292,108.205L698.715,94.184L704.899,100.71L707.06,108.592L729.167,95.914L732.05,128.447L748.414,103.366L748.215,114.05L757.843,99.345L761.042,99.693L760.693,117.332L763.008,114.56L757.323,126.345L757.743,105.294L744.874,124.884L745.086,114.132L729.792,137.482L726.617,100.802L705.246,112.992L698.403,98.034L679.232,112.56L672.658,98.611L662.048,105.334L662.166,103.23L650.846,113.528L640.01,107.75L631.343,110.824ZM805.132,120.352L815.708,112.434L847.104,88.036L847.417,93.21L856.797,87.777L859.906,87.671L865.078,89.631L866,97L869.073,91.46L869.998,91.971L892.914,142.614L896.651,156.612L882,157L896.158,160.415L894.518,173.063L896.119,178.914L866.617,180.238L896.76,181.254L896.863,181.634L899.435,186.58L896.552,184.213L866.516,183.217L866.483,177.255L892.23,176.082L892.819,162.711L881.291,159.939L881.92,153.974L892.727,153.68L870.276,95.65L864.111,106.773L862.24,91.863L844.62,98.42L844.332,93.676L805.132,120.352ZM767.338,112.783L768.404,118.4L780.275,113.816L780.084,115.573L777.415,120.511L787.544,119.094L788.712,129.041L796.379,126.309L786.039,133.346L784.779,122.676L771.643,124.52L774.071,119.62L765.988,122.746L767.338,112.783ZM893.067,234.15L883.925,246.499L889.187,249.359L896.762,279.374L892.45,283.788L909.819,290.103L910.028,296.478L905.978,309.718L899.218,319.385L911.002,326.089L911.536,342.317L878.74,362.72L901.438,374.397L874.815,413.1L903.702,420.435L903.419,433.083L891.672,437.007L903.334,436.852L903.322,437.415L902.373,438.544L902.754,438.929L902.064,439.568L901.505,439.576L899.574,441.874L880,460L903.37,464.463L899.748,475.848L899.917,466.519L874.288,461.637L897.627,439.629L891.708,439.71L890.815,434.44L900.75,431.115L900.935,422.538L870.335,414.785L897.383,375.418L873.115,362.949L908.684,340.793L908.245,327.754L895.134,320.305L907.043,292.116L887.318,284.957L879.625,247.451L893.067,234.15ZM916.667,200.725L932.536,205.075L917.631,209.841L922.23,205.291L916.667,200.725ZM818.251,621.696L807.028,620.563L807.805,608.93L799.24,619.407L804.658,584.283L772.998,619.807L772.045,617.133L772.024,607.841L774.418,597.355L768.368,606.816L767.289,603.788L756.45,617.725L754.525,619.426L754.604,620.099L754.393,620.371L753.922,619.959L752.874,620.884L752.215,620.896L750.774,608.647L741.061,620.629L740.425,621.101L739.273,621.121L737.972,607.031L731.633,615.793L719.137,621.472L716.184,621.523L717.883,598.075L703.404,613.227L691.663,621.95L690.622,621.968L690.286,615.727L686.964,621.662L686.262,612.247L679.859,619.691L672.012,622.292L666.297,622.392L665.786,620.068L663.41,622.428L663.312,622.444L649.654,622.681L655.49,591.313L644.566,603.252L610.605,623.361L608.632,623.396L606.78,604.059L592.926,615.534L590.248,611.629L588.008,613.288L598.636,584.465L567.099,614.618L564.86,600.645L558.642,609.004L528.705,624.787L527.177,624.814L533.145,602.157L518.219,613.838L495.783,625.36L493.713,625.396L495.272,611.151L488.207,618.696L451.994,627.1L440.562,627.742L439.68,625.293L445.53,598.853L435.903,613.661L435.342,611.755L421.897,626.029L425.205,612.535L411.376,627.719L409.907,628.812L409.953,629.281L409.915,629.323L409.592,629.047L408.964,629.514L407.714,629.584L405.525,607.291L398.896,618.57L388.213,627.367L407.09,600.182L409.559,625.271L429.524,604.431L426.15,618.206L436.405,607.312L436.689,608.278L443.621,597.612L447.755,599.345L442.054,625.14L442.135,625.364L498.31,604.54L496.288,623.047L537.139,596.09L530.204,622.438L566.29,594.81L568.703,609.849L604.356,575.745L591.823,609.755L593.41,612.069L608.708,599.393L610.781,620.989L659.36,583.55L652.543,620.238L667.191,615.293L667.987,618.912L688.227,606.275L688.768,613.509L692.244,607.297L692.905,619.517L720.791,591.52L718.806,619.041L739.81,600.314L741.302,616.432L752.536,602.566L754.122,616.016L768.106,598.706L769.003,601.223L772.329,596.019L776.839,597.908L773.934,615.013L808.434,576.273L803.148,610.637L810.857,601.197L809.722,618.286C812.736,618.866 815.517,620.203 818.251,621.696ZM897.733,587.166L900,614.654L860,630L830,630L824.88,625.3C826.845,626.255 828.86,627.044 830.992,627.453C839.617,629.112 848.761,629.321 857.34,627.442C871.172,624.412 883.435,615.966 897.267,612.937L897.733,587.166ZM388.213,627.367L387.444,628.473L387.68,627.805L388.213,627.367ZM621.668,106.543L621.694,106.538L621.663,106.697L621.668,106.543Z" style="fill:rgb(155,25,21);fill-opacity:0.81;"/>
        </g>
    </g>
    <g id="Layer1">
        <path d="M866.342,416.69C868.946,423.564 894.674,424.605 897.225,424.708" style="fill:rgb(14,11,11);fill-opacity:0.5;"/>
        <path d="M868.448,463.811C871.184,466.348 874.474,467.965 895.144,469.578C895.179,469.474 895.188,469.512 895.65,468.306" style="fill:rgb(14,11,11);fill-opacity:0.5;"/>
        <path d="M882.909,287.217C884.224,288.6 889.133,293.76 905.357,295.302" style="fill:rgb(14,11,11);fill-opacity:0.5;"/>
        <path d="M876.986,249.421C878.079,250.511 886.295,258.698 892.723,260.578C893.245,260.731 897.816,262.068 899.042,263.077" style="fill:rgb(14,11,11);fill-opacity:0.5;"/>
        <path d="M882.239,535.35C882.208,538.04 882.13,544.853 887.309,568.592C888.222,572.777 892.218,573.637 891.048,579.592C889.918,585.341 890.644,585.317 890.822,591.23C891.454,588.517 892.087,588.605 891.328,574.584" style="fill:rgb(14,11,11);fill-opacity:0.5;"/>
        <path d="M891.221,188.857C893.555,195.711 892.826,196.063 897.476,201.671C900.807,205.687 903.638,204.441 905.624,206.139" style="fill:rgb(14,11,11);fill-opacity:0.5;"/>
        <path d="M880.815,163.319C884.829,165.964 885.02,166.933 888.705,166.008" style="fill:rgb(14,11,11);fill-opacity:0.5;"/>
        <path d="M862.467,115.418C863.281,115.254 868.534,114.195 870.363,108.682C871.619,104.896 872.663,103.946 870.026,100.57" style="fill:rgb(14,11,11);fill-opacity:0.5;"/>
        <path d="M727.816,145.52C739.931,141.908 736.947,138.345 739.386,127.685" style="fill:rgb(14,11,11);fill-opacity:0.5;"/>
        <path d="M741.83,134.222C750.877,130.082 749.603,127.601 751.16,119.994C752.269,119.234 752.449,119.433 752.972,118.157" style="fill:rgb(14,11,11);fill-opacity:0.5;"/>
        <path d="M565.061,127.745C570.246,123.983 571.024,124.316 572.414,118.018L570.543,118.64" style="fill:rgb(14,11,11);fill-opacity:0.5;"/>
        <path d="M552.422,120.116C552.999,120.103 557.069,120.014 559.237,117.761C559.52,117.467 559.889,117.084 560.516,112.823" style="fill:rgb(14,11,11);fill-opacity:0.5;"/>
        <path d="M544.433,116.645C547.437,114.58 551.245,111.894 552.29,105.554" style="fill:rgb(14,11,11);fill-opacity:0.5;"/>
        <path d="M393.91,138.621C423.506,122.558 414.427,107.422 414.317,107.164" style="fill:rgb(14,11,11);fill-opacity:0.5;"/>
        <path d="M423.817,121.405C431.451,117.969 436.2,110.356 436.413,108.479C437.121,102.252 435.683,101.459 440.373,97.474" style="fill:rgb(14,11,11);fill-opacity:0.5;"/>
        <path d="M447.165,108.584C459.666,108.379 456.009,103.044 456.649,97.147" style="fill:rgb(14,11,11);fill-opacity:0.5;"/>
        <g transform="matrix(1,0,0,1,-2.1668,0.206048)">
            <path d="M467.167,115.069C473.908,110.332 476.425,108.243 478.285,102.794L479.254,103.58" style="fill:rgb(14,11,11);fill-opacity:0.5;"/>
        </g>
        <g transform="matrix(1,0,0,1,-2.64847,-0.284234)">
            <path d="M483.249,115.284C493.532,112.204 493.742,111.087 496.048,100.609" style="fill:rgb(14,11,11);fill-opacity:0.5;"/>
        </g>
        <path d="M313.055,125.122C335.276,118.634 329.2,103.945 336.6,97.28" style="fill:rgb(14,11,11);fill-opacity:0.5;"/>
        <path d="M57.813,86.22C60.063,96.009 60.234,99.751 59.724,113.285C59.661,114.966 61.349,123.019 60.902,124.218C60.757,124.61 57.011,125.322 56.65,125.61" style="fill:rgb(14,11,11);fill-opacity:0.5;"/>
        <path d="M83.074,158.728C73.286,175.647 68.918,169.842 57.932,172.724" style="fill:rgb(14,11,11);fill-opacity:0.5;"/>
        <path d="M88.096,189.729C84.32,195.303 78.282,194.195 77.217,195.712" style="fill:rgb(14,11,11);fill-opacity:0.5;"/>
        <path d="M102.453,198.286C100.353,213.923 72.308,228.091 63,230.951C61.997,231.259 60.951,231.441 59.978,231.833C59.669,231.958 59.717,231.997 56.451,234.042" style="fill:rgb(14,11,11);fill-opacity:0.5;"/>
        <path d="M81.639,250.336C69.227,265.298 53.551,270.093 50.707,270.963C51.099,269.048 51.492,267.134 51.884,265.22" style="fill:rgb(14,11,11);fill-opacity:0.5;"/>
        <g transform="matrix(0.796537,0,0,0.772276,6.92623,71.4178)">
            <path d="M103.611,293.395C102.289,296.029 95.444,309.667 76.386,318.204C70.856,320.681 70.754,320.213 64.713,320.658C62.41,320.828 58.296,324.063 57.995,323.958C57.186,323.675 48.865,321.178 47.165,320.768C47.124,320.698 46.084,318.93 46.787,319.831" style="fill:rgb(14,11,11);fill-opacity:0.5;"/>
        </g>
        <path d="M48.02,428.395L48.02,428.348" style="fill:none;"/>
        <g transform="matrix(1,0,0,1,-1.34958,0.219608)">
            <path d="M48.598,427.512C49.21,427.316 51.859,427.584 60.016,420.595C61.613,419.226 60.752,417.273 61.85,415.049" style="fill:rgb(14,11,11);fill-opacity:0.5;"/>
        </g>
        <path d="M62.601,498.628C62.923,498.589 74.586,498.199 73.496,491.002C73.414,490.46 73.423,489.84 73.084,489.408C72.936,489.22 72.537,489.779 72.39,489.591" style="fill:rgb(14,11,11);fill-opacity:0.5;"/>
        <path d="M55.701,509.335C56.628,511.561 58.766,515.697 57.228,521.502C55.135,529.401 55.277,529.442 54.618,530.647" style="fill:rgb(14,11,11);fill-opacity:0.5;"/>
        <path d="M44.444,542.147C44.471,544.562 48.096,556.333 48.859,563.461C49.178,566.453 50.354,589.576 51.303,594.369C54.374,609.882 52.358,613.833 51.247,623.417" style="fill:rgb(14,11,11);fill-opacity:0.5;"/>
        <path d="M151.752,602.825C154.394,603.395 154.301,603.461 156.856,604.311C156.273,604.499 150.825,606.252 150.339,608.326C149.74,610.88 151.062,610.348 153.676,610.634" style="fill:rgb(14,11,11);fill-opacity:0.5;"/>
        <path d="M177.837,607.611C180.489,609.681 184.254,612.398 184.203,619.46C184.195,620.685 183.025,625.514 182.135,625.29" style="fill:rgb(14,11,11);fill-opacity:0.5;"/>
        <path d="M249.976,118.247C259.128,115.689 255.703,110.878 259.513,105.177" style="fill:rgb(14,11,11);fill-opacity:0.5;"/>
        <path d="M224.7,115.913C234.211,111.874 235.934,107.71 240.111,100.721C240.995,99.242 242.922,96.027 242.489,95.279" style="fill:rgb(14,11,11);fill-opacity:0.5;"/>
        <path d="M194.173,113.302C201.488,109.587 206.796,107.383 213.858,99.382C216.503,96.385 217.064,96.535 217.289,92.841C209.934,91.729 209.899,91.53 209.347,91.854" style="fill:rgb(14,11,11);fill-opacity:0.5;"/>
        <path d="M168.017,104.822C173.884,107.291 177.776,103.008 177.81,102.979C179.076,101.884 180.073,101.435 178.534,100.689" style="fill:rgb(14,11,11);fill-opacity:0.5;"/>
        <path d="M129.511,112.542C131.927,112.005 132.965,112.385 137.822,107.045C143.991,100.263 143.988,99.858 145.185,98.135L144.583,98.188" style="fill:rgb(14,11,11);fill-opacity:0.5;"/>
        <path d="M106.506,97.313C114.053,93.944 114.52,93.917 115.068,92.49C116.11,89.779 115.486,88.425 115.339,88.106" style="fill:rgb(14,11,11);fill-opacity:0.5;"/>
        <path d="M94.614,116.308C95.965,114.591 109.267,97.68 109.134,93.177C109.071,91.032 107.109,91.179 103.861,91.225" style="fill:rgb(14,11,11);fill-opacity:0.5;"/>
        <path d="M526.278,109.086C532.955,107.59 533.122,107.233 536.368,101.201" style="fill:rgb(14,11,11);fill-opacity:0.5;"/>
        <g transform="matrix(1,0,0,1,-1.61018,0.455958)">
            <path d="M513.61,108.544C518.643,105.076 518.74,105.116 520.967,99.871" style="fill:rgb(14,11,11);fill-opacity:0.5;"/>
        </g>
        <path d="M275.828,106.101C280.66,102.939 281.069,103.399 283.265,100.428C284.982,98.105 284.7,97.947 286.383,95.584" style="fill:rgb(14,11,11);fill-opacity:0.5;"/>
        <path d="M267.65,105.151C271.667,104.61 271.357,103.86 274.858,101.684" style="fill:rgb(14,11,11);fill-opacity:0.5;"/>
        <path d="M620.408,114.498L620.408,114.48" style="fill:none;"/>
        <path d="M651.938,114.202C656.679,113.081 657.172,113.247 659.444,108.169" style="fill:rgb(14,11,11);fill-opacity:0.5;"/>
        <path d="M681.058,114.521C683.453,113.99 695.75,114.052 691.884,105.773" style="fill:rgb(14,11,11);fill-opacity:0.5;"/>
        <path d="M706.762,115.725C712.073,114.457 712.599,115.274 716.252,111.297" style="fill:rgb(14,11,11);fill-opacity:0.5;"/>
        <path d="M807.724,126.654C819.539,121.759 822.228,120.736 831.416,109.312C834.927,104.946 833.845,104.283 837.411,100.03" style="fill:rgb(14,11,11);fill-opacity:0.5;"/>
        <path d="M844.552,103.328C845.762,103.11 848.552,102.609 857.682,95.347" style="fill:rgb(14,11,11);fill-opacity:0.5;"/>
        <path d="M271.371,613.99L271.304,613.96" style="fill:none;"/>
        <path d="M280.016,606.625C284.364,616.657 290.879,628.832 278.798,629.349" style="fill:rgb(14,11,11);fill-opacity:0.5;"/>
        <path d="M321.018,625.514C322.029,616.713 321.609,616.236 320.088,601.133" style="fill:rgb(14,11,11);fill-opacity:0.5;"/>
        <path d="M366.553,585.031C364.308,598.13 361.477,597.646 361.582,612.959C359.666,611.507 359.191,612.301 357.726,610.306" style="fill:rgb(14,11,11);fill-opacity:0.5;"/>
        <path d="M408.877,597.03C414.026,608.41 412.561,613.122 411.154,620.46L412.165,619.633" style="fill:rgb(14,11,11);fill-opacity:0.5;"/>
        <path d="M448.69,600.212C448.155,618.807 450.847,620.083 446.212,623.487" style="fill:rgb(14,11,11);fill-opacity:0.5;"/>
        <path d="M500.616,605.473C501.73,606.243 504.526,608.176 499.155,622.336" style="fill:rgb(14,11,11);fill-opacity:0.5;"/>
        <path d="M539.704,596.029C541.039,602.098 542.646,602.307 538.746,613.255C535.754,621.652 533.439,623.215 532.633,623.759" style="fill:rgb(14,11,11);fill-opacity:0.5;"/>
        <path d="M565.29,592.782C572.201,597.41 571.787,597.801 571.853,598.243C572.032,599.446 571.121,599.652 571.087,603.389" style="fill:rgb(14,11,11);fill-opacity:0.5;"/>
        <path d="M610.924,596.527C614.907,609.014 620.57,617.491 614.381,622.616" style="fill:rgb(14,11,11);fill-opacity:0.5;"/>
        <path d="M661.702,583.508C667.947,612.683 658.61,620.457 657.55,622.125" style="fill:rgb(14,11,11);fill-opacity:0.5;"/>
        <path d="M692.632,603.586C693.093,605.906 695.04,607.756 695.501,610.076C695.569,610.417 694.054,615.276 693.914,615.724" style="fill:rgb(14,11,11);fill-opacity:0.5;"/>
        <g transform="matrix(1,0,0,1,-0.174005,1.35237)">
            <path d="M722.564,590.956C723.69,596.757 725.519,603.852 723.118,608.536C723.012,608.743 721.384,610.464 720.052,615.648" style="fill:rgb(14,11,11);fill-opacity:0.5;"/>
        </g>
        <g transform="matrix(1,0,0,1,-1.9289,2.74603)">
            <path d="M743.542,596.031C745.489,602.608 748.336,604.17 742.429,607.754" style="fill:rgb(14,11,11);fill-opacity:0.5;"/>
        </g>
        <g transform="matrix(1,0,0,1,-0.522355,1.75943)">
            <path d="M810.062,578.741C810.801,586.466 811.085,589.983 810.467,591.648C809.911,593.148 809.342,592.778 807.022,597.506" style="fill:rgb(14,11,11);fill-opacity:0.5;"/>
        </g>
        <g transform="matrix(1,0,0,1,-3.54513,0.0634816)">
            <path d="M814.672,599.291C816.363,606.508 816.353,606.4 817.418,613.764L815.174,615.437" style="fill:rgb(14,11,11);fill-opacity:0.5;"/>
        </g>
        <path d="M76.212,364.645C63.735,375.887 61.104,378.692 51.02,382.445C51.939,380.13 52.308,380.272 52.345,377.826" style="fill:rgb(14,11,11);fill-opacity:0.5;"/>
        <path d="M76.306,364.467C75.617,364.047 75.641,364.122 75.25,363.431" style="fill:rgb(14,11,11);fill-opacity:0.5;"/>
        <path d="M868.018,364.155C876.847,375.554 880.429,377.251 892.351,377.888" style="fill:rgb(14,11,11);fill-opacity:0.5;"/>
        <path d="M868.543,185.884C870.919,186.741 888.026,192.916 899.592,191.608C907.077,190.761 892.893,188.125 892.249,188.006" style="fill:rgb(14,11,11);fill-opacity:0.5;"/>
        <path d="M627.054,120.362C632.052,118.772 630.699,116.694 635.363,114.337C637.625,113.195 639.753,112.931 637.863,112.39" style="fill:rgb(14,11,11);fill-opacity:0.5;"/>
        <path d="M590.967,112.509C597.599,110.462 599.149,107.714 600.99,104.734" style="fill:rgb(14,11,11);fill-opacity:0.5;"/>
    </g>
</svg>
