<?xml version="1.0" encoding="UTF-8" standalone="no"?>
<!DOCTYPE svg PUBLIC "-//W3C//DTD SVG 1.1//EN" "http://www.w3.org/Graphics/SVG/1.1/DTD/svg11.dtd">
<svg width="100%" height="100%" viewBox="0 0 3064 2428" version="1.1" xmlns="http://www.w3.org/2000/svg" xmlns:xlink="http://www.w3.org/1999/xlink" xml:space="preserve" xmlns:serif="http://www.serif.com/" style="fill-rule:evenodd;clip-rule:evenodd;stroke-linecap:round;stroke-linejoin:round;">
    <g transform="matrix(1,0,0,1,78.8796,1.27312)">
        <g transform="matrix(4.80984e-17,0.785507,-0.785507,4.80984e-17,1758.67,40.1679)">
            <path d="M555.111,184.68C552.083,184.669 550.072,182.644 550.082,179.616C550.088,177.598 552.117,174.577 555.145,174.587C558.173,174.597 560.181,177.632 560.174,179.65C560.164,182.678 558.139,184.69 555.111,184.68Z" style="fill:none;stroke:white;stroke-opacity:0.5;stroke-width:8px;"/>
        </g>
        <g transform="matrix(4.80984e-17,0.785507,-0.785507,4.80984e-17,1758.67,40.1679)">
            <path d="M947.138,128.47C944.111,128.46 942.099,126.435 942.109,123.407C942.115,121.389 944.141,119.377 947.169,119.387C949.187,119.393 951.199,121.419 951.192,123.438C951.182,126.465 949.157,128.477 947.138,128.47Z" style="fill:none;stroke:white;stroke-opacity:0.5;stroke-width:8px;"/>
        </g>
        <g transform="matrix(4.80984e-17,0.785507,-0.785507,4.80984e-17,1758.67,40.1679)">
            <path d="M556.186,230.455L556.186,284.957" style="fill:none;stroke:white;stroke-opacity:0.5;stroke-width:8px;"/>
        </g>
        <g transform="matrix(4.80984e-17,0.785507,-0.785507,4.80984e-17,1758.67,40.1679)">
            <path d="M556.673,234.492C553.646,234.481 551.634,232.456 551.644,229.428C551.65,227.41 553.68,224.389 556.707,224.399C558.726,224.405 560.734,227.44 560.727,229.459C560.717,232.487 558.692,234.498 556.673,234.492Z" style="fill:none;stroke:white;stroke-opacity:0.5;stroke-width:8px;"/>
        </g>
        <g transform="matrix(4.80984e-17,0.785507,-0.785507,4.80984e-17,1758.67,40.1679)">
            <path d="M555.128,125.131L555.128,179.633" style="fill:none;stroke:white;stroke-opacity:0.5;stroke-width:8px;"/>
        </g>
        <g transform="matrix(4.80984e-17,0.785507,-0.785507,4.80984e-17,1758.67,40.1679)">
            <path d="M556.824,364.303C501.121,364.115 455.527,316.214 455.721,258.521C455.919,199.833 501.832,153.236 557.535,153.424C614.232,153.615 659.83,200.521 659.632,259.209C659.437,316.902 613.521,364.494 556.824,364.303Z" style="fill:none;stroke:white;stroke-opacity:0.5;stroke-width:8px;"/>
        </g>
        <g transform="matrix(4.80984e-17,0.785507,-0.785507,4.80984e-17,1758.67,40.1679)">
            <path d="M672.755,257.378L830.202,257.378" style="fill:none;stroke:white;stroke-opacity:0.5;stroke-width:5.2px;"/>
        </g>
        <g transform="matrix(4.80984e-17,0.785507,-0.785507,4.80984e-17,1758.67,40.1679)">
            <path d="M750.497,282.942L750.497,266.794" style="fill:none;stroke:white;stroke-opacity:0.5;stroke-width:5.2px;"/>
        </g>
        <g transform="matrix(4.80984e-17,0.785507,-0.785507,4.80984e-17,1758.67,40.1679)">
            <path d="M946.651,125.131L946.651,179.633" style="fill:none;stroke:white;stroke-opacity:0.5;stroke-width:8px;"/>
        </g>
        <g transform="matrix(4.80984e-17,0.785507,-0.785507,4.80984e-17,1758.67,40.1679)">
            <path d="M946.723,230.455L946.723,284.957" style="fill:none;stroke:white;stroke-opacity:0.5;stroke-width:8px;"/>
        </g>
        <g transform="matrix(4.80984e-17,0.785507,-0.785507,4.80984e-17,1758.67,40.1679)">
            <path d="M947.211,234.492C944.183,234.481 942.171,232.456 942.181,229.428C942.187,227.41 944.217,224.389 947.245,224.399C949.263,224.405 951.271,227.44 951.265,229.459C951.254,232.487 949.229,234.498 947.211,234.492Z" style="fill:none;stroke:white;stroke-opacity:0.5;stroke-width:8px;"/>
        </g>
        <g transform="matrix(4.80984e-17,0.785507,-0.785507,4.80984e-17,1758.67,40.1679)">
            <path d="M945.798,364.303C890.095,364.115 844.501,316.214 844.695,258.521C844.893,199.833 890.807,153.236 946.509,153.424C1003.21,153.615 1048.8,200.521 1048.61,259.209C1048.41,316.902 1002.5,364.494 945.798,364.303Z" style="fill:none;stroke:white;stroke-opacity:0.5;stroke-width:8px;"/>
        </g>
    </g>
    <g transform="matrix(1,0,0,1,78.8796,1.27312)">
        <g transform="matrix(-0.00574936,0.781074,-0.781055,-0.00574949,1732.25,47.5527)">
            <circle cx="151" cy="2189" r="109" style="fill:none;stroke:white;stroke-opacity:0.5;stroke-width:8.05px;"/>
        </g>
        <g transform="matrix(-0.00577246,0.784212,-0.784194,-0.00577259,1738.92,44.7515)">
            <circle cx="477" cy="2225" r="10" style="fill:none;stroke:white;stroke-opacity:0.5;stroke-width:8.01px;"/>
        </g>
        <g transform="matrix(-0.00577246,0.784212,-0.784194,-0.00577259,1737.59,44.0257)">
            <circle cx="700" cy="2224" r="10" style="fill:none;stroke:white;stroke-opacity:0.5;stroke-width:8.01px;"/>
        </g>
        <g transform="matrix(-0.00577246,0.784212,-0.784194,-0.00577259,1737.35,43.0579)">
            <circle cx="924" cy="2222" r="10" style="fill:none;stroke:white;stroke-opacity:0.5;stroke-width:8.01px;"/>
        </g>
        <g transform="matrix(-0.00577246,0.784212,-0.784194,-0.00577259,1736.6,40.7996)">
            <circle cx="1148" cy="2221" r="10" style="fill:none;stroke:white;stroke-opacity:0.5;stroke-width:8.01px;"/>
        </g>
        <g transform="matrix(-0.00577246,0.784212,-0.784194,-0.00577259,1734.97,41.2227)">
            <circle cx="1353" cy="2219" r="35" style="fill:none;stroke:white;stroke-opacity:0.5;stroke-width:8.01px;"/>
        </g>
        <g transform="matrix(-0.00577246,0.764662,-0.784194,-0.00562868,1734.97,71.1704)">
            <circle cx="1578" cy="2218" r="35" style="fill:none;stroke:white;stroke-opacity:0.5;stroke-width:8.11px;"/>
        </g>
        <g transform="matrix(4.80984e-17,0.785507,-0.785507,4.80984e-17,1758.67,40.1679)">
            <path d="M1500.79,2256.62L1619.13,2256.49" style="fill:none;stroke:white;stroke-opacity:0.5;stroke-width:8px;"/>
        </g>
        <g transform="matrix(-0.00577246,0.784212,-0.784194,-0.00577259,1734.33,42.3392)">
            <circle cx="1801" cy="2215" r="20" style="fill:none;stroke:white;stroke-opacity:0.5;stroke-width:8.01px;"/>
        </g>
        <g transform="matrix(-0.00577246,0.784212,-0.784194,-0.00577259,1732.63,44.1502)">
            <circle cx="2024" cy="2212" r="20" style="fill:none;stroke:white;stroke-opacity:0.5;stroke-width:8.01px;"/>
        </g>
        <g transform="matrix(-0.00577246,0.784212,-0.784194,-0.00577259,1731.39,46.0614)">
            <circle cx="2246" cy="2210" r="9" style="fill:none;stroke:white;stroke-opacity:0.5;stroke-width:8.01px;"/>
        </g>
        <g transform="matrix(4.80984e-17,0.785507,-0.785507,4.80984e-17,1758.67,40.1679)">
            <path d="M926.04,2270.1C984.961,2310.33 1001.02,2320.5 1078.53,2322.02C1124.5,2322.92 1194.02,2321.25 1298.04,2322.02C1402.4,2322.02 1467.94,2277.61 1504.43,2216.51C1540.55,2156.01 1546.42,2080.74 1551.85,2060.52" style="fill:none;stroke:white;stroke-opacity:0.5;stroke-width:8px;"/>
        </g>
        <g transform="matrix(4.80984e-17,0.785507,-0.785507,4.80984e-17,1758.67,40.1679)">
            <path d="M1524.13,2082.14L1551.85,2060.52L1563.1,2095.88" style="fill:none;stroke:white;stroke-opacity:0.5;stroke-width:8px;"/>
        </g>
        <g transform="matrix(4.80984e-17,0.785507,-0.785507,4.80984e-17,1758.67,40.1679)">
            <path d="M2288.95,2205.23L2277.95,2205.3M2268.47,2205.23L2257.47,2205.3M2084.88,2309.17L2073.88,2309.23M2063.54,2309.17L2052.54,2309.23M2026.08,2309.17L2015.08,2309.23M2006.04,2309.17L1995.04,2309.23M1986,2309.17L1975,2309.23M1965.97,2309.17L1954.97,2309.23M1789.87,2204.19L1778.87,2204.25M1569.49,2307.79L1558.49,2307.85M1357.17,2203.18L1346.17,2203.24M1337.07,2203.18L1326.07,2203.24M1317.05,2203.18L1306.05,2203.24M1297.18,2203.18L1286.18,2203.24M1136.49,2303.57L1125.49,2303.64M1116.34,2303.57L1105.34,2303.64M937.104,2201.57L926.104,2201.64M909.663,2201.57L898.663,2201.64M677.845,2302.37L666.845,2302.44M697.865,2302.37L686.865,2302.44M489.685,2200.4L478.685,2200.46M462.044,2200.4L451.044,2200.46M2188.66,2199.77L2191.66,2199.77M2188.66,2210.77L2191.66,2210.77M2190.09,2199.77L2190.14,2210.77M2198.46,2199.77L2201.46,2199.77M2198.46,2210.77L2201.46,2210.77M2199.89,2199.77L2199.94,2210.77M2208.26,2199.77L2211.26,2199.77M2208.26,2210.77L2211.26,2210.77M2209.69,2199.77L2209.74,2210.77M2218.06,2199.77L2221.06,2199.77M2218.06,2210.77L2221.06,2210.77M2219.49,2199.77L2219.54,2210.77M2227.86,2199.77L2230.86,2199.77M2227.86,2210.77L2230.86,2210.77M2229.29,2199.77L2229.34,2210.77M2237.66,2199.77L2240.66,2199.77M2237.66,2210.77L2240.66,2210.77M2239.09,2199.77L2239.14,2210.77M2247.46,2199.77L2250.46,2199.77M2247.46,2210.77L2250.46,2210.77M2248.89,2199.77L2248.94,2210.77M2178.86,2199.77L2181.86,2199.77M2178.86,2210.77L2181.86,2210.77M2180.29,2199.77L2180.34,2210.77M2042.56,2303.7L2045.56,2303.7M2042.56,2314.7L2045.56,2314.7M2043.99,2303.7L2044.03,2314.7M2033.32,2303.7L2036.32,2303.7M2033.32,2314.7L2036.32,2314.7M2034.75,2303.7L2034.79,2314.7M1944.77,2303.7L1947.77,2303.7M1944.77,2314.7L1947.77,2314.7M1946.2,2303.7L1946.25,2314.7M1935.53,2303.7L1938.53,2303.7M1935.53,2314.7L1938.53,2314.7M1936.96,2303.7L1937.01,2314.7M1806.7,2198.72L1809.7,2198.72M1806.7,2209.72L1809.7,2209.72M1808.13,2198.72L1808.17,2209.72M1816.14,2198.72L1819.14,2198.72M1816.14,2209.72L1819.14,2209.72M1817.57,2198.72L1817.61,2209.72M1825.57,2198.72L1828.57,2198.72M1825.57,2209.72L1828.57,2209.72M1827.01,2198.72L1827.05,2209.72M1797.26,2198.72L1800.26,2198.72M1797.26,2209.72L1800.26,2209.72M1798.69,2198.72L1798.74,2209.72M1768.73,2198.72L1771.73,2198.72M1768.73,2209.72L1771.73,2209.72M1770.16,2198.72L1770.21,2209.72M1759.04,2198.72L1762.04,2198.72M1759.04,2209.72L1762.04,2209.72M1760.47,2198.72L1760.52,2209.72M1749.35,2198.72L1752.35,2198.72M1749.35,2209.72L1752.35,2209.72M1750.78,2198.72L1750.82,2209.72M1739.66,2198.72L1742.66,2198.72M1739.66,2209.72L1742.66,2209.72M1741.09,2198.72L1741.13,2209.72M1597.21,2302.32L1600.21,2302.32M1597.21,2313.32L1600.21,2313.32M1598.65,2302.32L1598.69,2313.32M1587.2,2302.32L1590.2,2302.32M1587.2,2313.32L1590.2,2313.32M1588.63,2302.32L1588.67,2313.32M1577.07,2302.32L1580.07,2302.32M1577.07,2313.32L1580.07,2313.32M1578.5,2302.32L1578.55,2313.32M1549.41,2302.32L1552.41,2302.32M1549.41,2313.32L1552.41,2313.32M1550.84,2302.32L1550.89,2313.32M1539.61,2302.32L1542.61,2302.32M1539.61,2313.32L1542.61,2313.32M1541.04,2302.32L1541.09,2313.32M1529.7,2302.32L1532.7,2302.32M1529.7,2313.32L1532.7,2313.32M1531.13,2302.32L1531.18,2313.32M1520.01,2302.32L1523.01,2302.32M1520.01,2313.32L1523.01,2313.32M1521.44,2302.32L1521.49,2313.32M1374.39,2197.71L1377.39,2197.71M1374.39,2208.71L1377.39,2208.71M1375.82,2197.71L1375.87,2208.71M1364.38,2197.71L1367.38,2197.71M1364.38,2208.71L1367.38,2208.71M1365.81,2197.71L1365.86,2208.71M1276.42,2197.71L1279.42,2197.71M1276.42,2208.71L1279.42,2208.71M1277.85,2197.71L1277.9,2208.71M1163.4,2298.1L1166.4,2298.1M1163.4,2309.1L1166.4,2309.1M1164.83,2298.1L1164.88,2309.1M1153.6,2298.1L1156.6,2298.1M1153.6,2309.1L1156.6,2309.1M1155.03,2298.1L1155.08,2309.1M1144.02,2298.1L1147.02,2298.1M1144.02,2309.1L1147.02,2309.1M1145.45,2298.1L1145.5,2309.1M1096.04,2298.1L1099.04,2298.1M1096.04,2309.1L1099.04,2309.1M1097.47,2298.1L1097.52,2309.1M916.618,2196.11L919.618,2196.11M916.618,2207.11L919.618,2207.11M918.05,2196.11L918.094,2207.11M888.553,2196.11L891.553,2196.11M888.553,2207.11L891.553,2207.11M889.985,2196.11L890.029,2207.11M880.21,2196.11L883.21,2196.11M880.21,2207.11L883.21,2207.11M881.642,2196.11L881.686,2207.11M714.979,2296.91L717.979,2296.91M714.979,2307.91L717.979,2307.91M716.411,2296.91L716.454,2307.91M705.832,2296.91L708.832,2296.91M705.832,2307.91L708.832,2307.91M707.263,2296.91L707.307,2307.91M657.374,2296.91L660.374,2296.91M657.374,2307.91L660.374,2307.91M658.806,2296.91L658.85,2307.91M468.976,2194.93L471.976,2194.93M468.976,2205.93L471.976,2205.93M470.408,2194.93L470.452,2205.93M1384.18,2202.97L1389.12,2202.97M441.753,2194.93L444.753,2194.93M441.753,2205.93L444.753,2205.93M443.185,2194.93L443.229,2205.93" style="fill:none;stroke:white;stroke-opacity:0.5;stroke-width:5.2px;"/>
        </g>
        <g transform="matrix(4.80984e-17,0.785507,-0.785507,4.80984e-17,1758.67,40.1679)">
            <path d="M1544.09,1945L1562.87,1978.83L1582.84,2014.81C1593.64,1980.08 1584.22,1958.29 1544.09,1945ZM1514.16,2005.87L1562.87,1978.83M1578.17,2006.39L1514.16,2005.87L1548.91,1953.69M1580.03,1944.23L1590.98,1938.3C1592.45,1937.5 1594.29,1938.06 1595.1,1939.56L1612.13,1970.96C1612.94,1972.45 1612.41,1974.3 1610.93,1975.1L1599.99,1981.03C1598.51,1981.83 1596.67,1981.27 1595.86,1979.77L1578.83,1948.37C1578.02,1946.87 1578.56,1945.03 1580.03,1944.23Z" style="fill:none;stroke:white;stroke-opacity:0.5;stroke-width:7px;"/>
        </g>
    </g>
    <g transform="matrix(4.80984e-17,0.785507,-0.785507,4.80984e-17,1837.55,41.441)">
        <path d="M2808.33,952.945L2694.37,953.453M2364.81,954.919L2254.55,955.409M2127.65,684.987L2429.03,803.631M2685.34,904.529L2808.33,952.945L2695.13,1001.02M2342.65,1150.73L2236.7,1195.73M1440.88,585.443L1658.67,585.443L1658.67,1331.15L1440.88,1331.15L1440.88,585.443ZM2010,1767.7L2010,1869.24C2010,1869.24 1992.49,1850.78 1965.59,1815.27M1899.22,1718.08C1805.13,1565.77 1684.96,1303.89 1683.13,957.86C1680.21,403.366 2010,41.441 2010,41.441L2010,528.601M2858.59,638.472L2938.94,638.472M2899.55,1262.99L2899.55,1261.13M2899.55,1251.06L2899.55,1245.1M2899.55,1229.45L2899.55,1211.56M788.022,1210.75L743.979,1225.29M725.6,1231.36L710.268,1236.42M687.21,1244.03L676.765,1247.48M652.88,1255.36L642.434,1258.81M635.301,1261.16L624.855,1264.61M592.077,1275.43L581.632,1278.88M558.78,1286.42L548.335,1289.87M532.929,1294.96L522.483,1298.41M505.837,1303.9L495.391,1307.35M479.158,1312.71L468.712,1316.15M428.696,1329.36L418.25,1332.81M410.91,1335.24L400.465,1338.68M394.159,1340.77L383.713,1344.21M367.48,1349.57L357.034,1353.02M756.851,1215.25L760.299,1225.7M693.384,1236.2L696.832,1246.65M667.646,1244.7L671.094,1255.14M658.579,1247.69L662.027,1258.13M614.415,1262.27L617.863,1272.71M606.226,1264.97L609.674,1275.42M598.037,1267.67L601.485,1278.12M573.761,1275.69L577.209,1286.13M564.694,1278.68L568.143,1289.13M538.372,1287.37L541.82,1297.82M511.464,1296.25L514.912,1306.7M485.141,1304.94L488.589,1315.39M458.526,1313.73L461.974,1324.17M450.337,1316.43L453.785,1326.87M441.562,1319.33L445.01,1329.77M433.081,1322.12L436.529,1332.57M373.708,1341.72L377.156,1352.17M347.678,1350.32L351.126,1360.76M338.611,1353.31L342.059,1363.75M748.488,1181.27L789.685,1210.35M676.266,1130.3L734.827,1171.63M622.918,1092.65L631.905,1099M608.071,1082.17L617.058,1088.52M593.727,1072.05L602.715,1078.39M537.108,1032.09L546.095,1038.44M520.751,1020.55L529.738,1026.89M504.897,1009.36L513.885,1015.71M456.833,975.443L465.821,981.785M441.986,964.965L450.974,971.308M423.113,951.646L432.101,957.988M407.008,940.28L415.995,946.622M386.373,925.717L395.361,932.06M358.189,905.827L367.177,912.17M682.924,1128.27L676.581,1137.26M662.289,1113.71L655.947,1122.69M655.831,1109.15L649.488,1118.14M649.372,1104.59L643.029,1113.58M642.913,1100.03L636.57,1109.02M590.319,1062.92L583.977,1071.9M583.726,1058.26L577.384,1067.25M577.133,1053.61L570.791,1062.6M570.54,1048.96L564.198,1057.94M563.947,1044.3L557.605,1053.29M557.354,1039.65L551.012,1048.64M502.245,1000.76L495.902,1009.75M495.765,996.186L489.422,1005.17M489.285,991.613L482.942,1000.6M482.805,987.04L476.463,996.027M476.325,982.467L469.983,991.455M406.117,932.919L399.774,941.907M384.224,917.469L377.882,926.456M376.926,912.319L370.584,921.306M789.942,1211.36L782.85,1161.75M780.44,1144.89L757.918,987.345M753.416,955.854L751.859,944.964M747.88,917.132L746.323,906.242M742.562,879.934L741.006,869.045M739.598,859.201L738.042,848.312M735.588,831.15L734.032,820.261M730.183,793.343L728.627,782.454M726.13,764.987L724.573,754.098M723.253,744.864L721.696,733.975M719.287,717.118L717.73,706.229M716.671,698.825L715.115,687.935M714.012,680.226L712.456,669.336M711.179,660.407L709.623,649.518M707.344,633.576L705.787,622.687M702.157,597.293L700.6,586.404M698.713,573.207L697.157,562.317M695.793,552.778L694.236,541.889M767.104,1012.74L756.215,1014.3M760.348,965.485L749.459,967.042M755.946,934.69L745.057,936.247M754.726,926.153L743.836,927.71M750.585,897.188L739.696,898.745M749.321,888.346L738.431,889.903M742.347,839.562L731.457,841.119M738.25,810.902L727.36,812.459M736.898,801.45L726.009,803.007M732.888,773.399L721.999,774.956M725.871,724.311L714.981,725.868M713.884,640.464L702.995,642.021M710.136,614.243L699.246,615.799M708.872,605.401L697.982,606.957M698.454,532.53L687.565,534.087M789.955,1210.92L807.943,1164.14M813.613,1149.4L817.561,1139.13M825.774,1117.77L829.722,1107.51M846.004,1065.17L849.953,1054.9M852.416,1048.49L856.364,1038.23M872.647,995.885L876.595,985.618M880.938,974.325L884.886,964.058M897.742,930.629L901.69,920.362M904.707,912.518L908.655,902.251M918.636,876.296L922.584,866.029M925.38,858.76L929.328,848.493M932.013,841.512L935.961,831.245M940.193,820.239L944.142,809.972M947.047,802.415L950.996,792.148M960.203,768.206L964.151,757.939M818.841,1151.12L808.574,1147.18M827.133,1129.56L816.866,1125.62M837.856,1101.68L827.589,1097.73M841.099,1093.25L830.832,1089.3M844.342,1084.81L834.075,1080.87M847.584,1076.38L837.317,1072.43M864.72,1031.82L854.453,1027.87M868.036,1023.2L857.769,1019.25M871.353,1014.57L861.086,1010.62M874.669,1005.95L864.402,1002M892.8,958.804L882.533,954.856M896.116,950.18L885.849,946.231M899.433,941.556L889.166,937.607M916.789,896.422L906.522,892.474M919.995,888.085L909.728,884.137M958.577,787.757L948.31,783.809M961.562,779.995L951.295,776.047M971.843,753.26L961.576,749.312M804.499,1196.58L791.525,1211.71M852.883,1142.34L845.596,1150.58M865.941,1127.57L858.654,1135.81M889.202,1101.27L881.915,1109.51M902.465,1086.27L895.177,1094.51M921.44,1064.81L914.153,1073.05M947.557,1035.28L940.27,1043.52M965.921,1014.52L958.634,1022.76M998.159,978.064L990.872,986.304M1016.52,957.3L1009.24,965.54M1029.79,942.303L1022.5,950.543M1049.17,920.385L1041.88,928.625M1081.2,884.163L1073.92,892.403M1094.47,869.166L1087.18,877.406M1107.73,854.169L1100.44,862.409M843.974,1160.71L835.734,1153.42M874.376,1126.33L866.136,1119.05M880.293,1119.64L872.053,1112.36M912.327,1083.42L904.087,1076.13M931.507,1061.73L923.267,1054.45M937.628,1054.81L929.388,1047.53M956.604,1033.36L948.364,1026.07M975.988,1011.44L967.748,1004.15M982.007,1004.63L973.767,997.344M988.026,997.825L979.786,990.538M1007.41,975.907L999.17,968.62M1040.06,938.992L1031.82,931.705M1059.44,917.074L1051.2,909.787M1065.36,910.383L1057.12,903.096M1071.27,903.693L1063.03,896.405M787.709,1211.14L818.249,1170.88M831.004,1154.07L1287.35,552.479M1316.9,513.527L1323.55,504.763M1328.88,497.737L1335.52,488.973M1344.8,476.742L1351.45,467.978M1385.74,422.779L1392.38,414.015M1397.98,406.642L1404.62,397.878M1410.22,390.506L1416.87,381.742M1438.65,353.027L1445.3,344.263M1457.6,328.041L1464.25,319.277M1470.11,311.557L1476.75,302.793M1482.35,295.42L1488.99,286.656M1516.17,250.827L1522.82,242.063M1274.19,578.925L1265.43,572.277M1300.91,543.701L1292.15,537.054M1306.31,536.587L1297.54,529.939M1311.7,529.473L1302.94,522.825M1317.1,522.359L1308.34,515.711M1343.42,487.656L1334.66,481.009M1361.98,463.191L1353.22,456.543M1367.48,455.947L1358.71,449.299M1372.97,448.703L1364.21,442.055M1378.47,441.459L1369.7,434.811M1383.96,434.214L1375.2,427.566M1426.74,377.822L1417.98,371.174M1432.14,370.708L1423.37,364.06M1437.54,363.594L1428.77,356.946M1455.7,339.649L1446.93,333.001M1498.87,282.737L1490.11,276.089M1504.18,275.738L1495.42,269.09M1509.49,268.74L1500.72,262.092M1514.8,261.742L1506.03,255.094M789.748,1211.88L836.706,1199.9M852.427,1195.9L944.335,1172.47M872.018,1196.58L869.3,1185.92M964.663,1172.96L961.946,1162.3M969.764,1165.99L980.423,1163.27M989.461,1160.96L1000.12,1158.25M1007.22,1156.44L1017.88,1153.72M1026.47,1151.53L1037.13,1148.81M1044.38,1146.96L1055.04,1144.25M1079.89,1137.91L1090.55,1135.19M1065.09,1147.36L1062.38,1136.7M1073.9,1145.11L1071.18,1134.45M1098.97,1138.72L1096.25,1128.06M1145.38,1126.89L1142.66,1116.23M1199.84,1113.01L1197.13,1102.35M1105.71,1131.33L1116.37,1128.61M1124.81,1126.46L1135.47,1123.74M1151.82,1119.57L1162.48,1116.86M1179.13,1112.61L1189.79,1109.89M1206.74,1105.57L1217.39,1102.86M1225.54,1100.78L1236.2,1098.06M1247.32,1095.23L1257.98,1092.51M1267.59,1095.74L1264.88,1085.08M1276.25,1093.53L1273.53,1082.87M1284.75,1091.36L1282.04,1080.7M1291.35,1084L1302.01,1081.29M1320.3,1076.62L1330.95,1073.91M1374.76,1062.74L1385.42,1060.02M1355.51,1067.65L1366.17,1064.93M1312.51,1084.29L1309.79,1073.62M1340.71,1077.1L1338,1066.44M1349.22,1074.93L1346.5,1064.27M1172.22,1118.66L1169.51,1108M788.451,1210.86L832.67,1224.48M849.967,1229.8L1373.83,1391.16M1404.53,1400.61L1415.04,1403.85M1422.78,1406.24L1433.29,1409.47M1440.73,1411.77L1451.24,1415M1473.99,1422.01L1484.51,1425.25M1491.65,1427.45L1502.17,1430.69M1508.73,1432.71L1519.24,1435.95M1565.54,1450.21L1576.05,1453.45M1583.2,1455.65L1593.71,1458.88M1608.81,1463.54L1619.32,1466.77M1627.35,1469.25L1637.86,1472.49M1644.72,1474.6L1655.23,1477.83M1674.15,1483.66L1684.66,1486.9M1715.95,1496.54L1726.46,1499.78M1743.62,1505.06L1754.13,1508.3M1770.4,1513.31L1780.92,1516.55M1305.48,1375.86L1308.71,1365.35M1396.85,1404.01L1400.09,1393.49M1458.25,1422.92L1461.49,1412.4M1466.78,1425.55L1470.02,1415.03M1526.31,1443.88L1529.55,1433.37M1534.01,1446.25L1537.25,1435.74M1541.51,1448.56L1544.74,1438.05M1549,1450.87L1552.24,1440.36M1556.49,1453.18L1559.73,1442.66M1601.45,1467.02L1604.69,1456.51M1659.52,1484.91L1662.76,1474.4M1667.43,1487.35L1670.67,1476.83M1691.36,1494.72L1694.6,1484.21M1699.48,1497.22L1702.72,1486.71M1707.81,1499.78L1711.05,1489.27M1734.24,1507.93L1737.48,1497.41M1761.09,1516.2L1764.33,1505.68M791.42,1211.8L803.78,1225.96M810.116,1233.22L817.35,1241.51M838.269,1265.48L845.503,1273.76M861.966,1292.62L869.2,1300.91M892.347,1327.43L899.581,1335.72M904.297,1341.12L911.531,1349.41M928.804,1369.2L936.038,1377.48M941.362,1383.58L948.595,1391.87M952.906,1396.81L960.14,1405.1M970.932,1417.46L978.166,1425.75M990.781,1440.2L998.015,1448.49M1017.72,1471.06L1024.95,1479.35M1041.21,1497.98L1048.45,1506.26M809.59,1240.98L817.877,1233.75M828.021,1262.1L836.308,1254.87M846.249,1282.98L854.537,1275.75M852.123,1289.71L860.41,1282.48M912.682,1359.09L920.969,1351.86M918.556,1365.82L926.843,1358.59M960.481,1413.85L968.768,1406.62M980.33,1436.59L988.617,1429.36M997.546,1456.31L1005.83,1449.08M1003.22,1462.81L1011.5,1455.58M1009.09,1469.54L1017.38,1462.31M1026.51,1489.49L1034.8,1482.26M1032.18,1495.99L1040.47,1488.76M1050,1516.41L1058.29,1509.18M1055.88,1523.14L1064.16,1515.9M1061.75,1529.87L1070.04,1522.63M1067.62,1536.6L1075.91,1529.36M875.131,1307.71L882.365,1315.99M881.896,1323.82L890.183,1316.59M816.905,1255.24L789.949,1211.44M1388.1,2183.37L826.894,1271.47M1373.59,2170.29L1382.96,2164.52M1129.42,1792.29L1123.65,1782.93M1138.62,1807.25L1132.85,1797.88M1148.3,1822.98L1142.54,1813.62M1158.15,1838.98L1152.39,1829.62M1167.76,1854.59L1161.99,1845.22M1184.46,1881.74L1178.7,1872.37M1208.92,1921.48L1203.16,1912.11M1221.92,1942.6L1216.15,1933.23M1237.01,1967.12L1231.24,1957.75M1256.54,1998.86L1250.78,1989.49M1266.95,2015.78L1261.19,2006.41M1271.15,2022.6L1270.91,2022.21M1277.07,2032.21L1273.96,2027.16M1290.77,2054.47L1285,2045.1M1300.47,2070.23L1294.7,2060.87M1327.63,2114.38L1321.87,2105.01M1337.45,2130.33L1331.69,2120.96M1346.93,2145.72L1341.16,2136.35M1115.4,1780.02L1124.77,1774.25M1166.88,1863.66L1176.25,1857.9M1170.88,1870.16L1180.25,1864.39M1186.52,1895.57L1195.88,1889.8M1193.36,1906.7L1202.73,1900.93M1221.9,1953.07L1231.27,1947.3M1237.65,1978.66L1247.02,1972.89M1242.56,1986.64L1251.93,1980.87M1277.04,2042.65L1286.4,2036.88M1299.07,2078.45L1308.43,2072.68M1304.09,2086.61L1313.46,2080.84M1308.77,2094.21L1318.14,2088.45M1313.33,2101.63L1322.7,2095.87M789.929,1210.67L785.308,1260.66M783.674,1278.34L759.484,1539.98M754.502,1593.87L753.489,1604.82M752.567,1614.8L751.554,1625.75M750.702,1634.97L749.69,1645.92M747.484,1669.77L746.472,1680.73M743.945,1708.05L742.933,1719M740.467,1745.67L739.454,1756.63M738.482,1767.14L737.469,1778.1M736.056,1793.38L735.043,1804.34M733.339,1822.77L732.327,1833.72M730.623,1852.15L729.61,1863.11M728.728,1872.65L727.715,1883.6M755.937,1518.6L766.89,1519.61M752.408,1556.77L763.362,1557.78M751.506,1566.53L762.459,1567.54M750.664,1575.64L761.617,1576.65M749.822,1584.74L760.775,1585.76M743.386,1654.36L754.339,1655.37M742.484,1664.12L753.437,1665.13M740.178,1689.06L751.131,1690.07M739.236,1699.25L750.189,1700.26M736.629,1727.44L747.582,1728.45M735.747,1736.98L746.7,1737.99M731.396,1784.04L742.35,1785.05M728.629,1813.97L739.583,1814.98M725.923,1843.24L736.876,1844.26M721.392,1892.26L732.345,1893.27M720.569,1901.15L731.523,1902.16M719.767,1909.82L730.721,1910.83M790.485,1211.59L780.659,1223.47M765.489,1241.81L758.479,1250.29M747.627,1263.41L740.617,1271.89M728.784,1286.2L721.774,1294.67M704.837,1315.15L697.827,1323.63M681.283,1343.64L674.272,1352.11M667.739,1360.01L660.729,1368.49M644.185,1388.5L637.174,1396.97M620.041,1417.69L613.031,1426.17M606.89,1433.59L599.88,1442.07M588.636,1455.66L581.625,1464.14M569.792,1478.45L562.782,1486.93M556.641,1494.35L549.631,1502.83M545.256,1508.12L538.246,1516.6M533.872,1521.88L526.861,1530.36M767.167,1231.15L775.644,1238.16M749.109,1252.99L757.586,1260M729.677,1276.49L738.154,1283.5M712.011,1297.85L720.488,1304.86M706.123,1304.97L714.599,1311.98M688.849,1325.86L697.326,1332.87M682.764,1333.21L691.241,1340.22M651.162,1371.43L659.639,1378.44M645.863,1377.84L654.34,1384.85M627.608,1399.91L636.085,1406.92M621.72,1407.03L630.196,1414.04M590.903,1444.29L599.379,1451.3M571.667,1467.55L580.143,1474.56M518.669,1531.64L527.146,1538.65M512.781,1538.76L521.258,1545.77M788.216,1209.43L740.389,1212.38M726.185,1213.25L537.648,1224.86M567.743,1217.49L568.421,1228.46M510.872,1217.33L521.847,1216.58M493.055,1218.54L504.029,1217.79M441.124,1222.07L452.098,1221.33M415.918,1223.79L426.893,1223.04M395.059,1225.21L406.034,1224.46M377.676,1226.39L388.651,1225.64M340.086,1228.95L351.061,1228.2M316.402,1230.56L327.377,1229.81M288.807,1232.44L299.781,1231.69M269.251,1233.77L280.226,1233.02M248.827,1235.16L259.801,1234.41M221.014,1237.05L231.989,1236.31M200.806,1238.43L211.781,1237.68M162.564,1241.03L173.539,1240.28M141.705,1242.45L152.68,1241.7M125.408,1243.56L136.383,1242.81M97.161,1245.48L108.136,1244.74M77.606,1246.81L88.58,1246.07M529.892,1210.52L530.639,1221.49M483.828,1213.65L484.574,1224.63M476.223,1214.17L476.969,1225.15M468.183,1214.72L468.93,1225.69M460.361,1215.25L461.107,1226.23M432.548,1217.14L433.295,1228.12M367.58,1221.57L368.327,1232.54M358.889,1222.16L359.636,1233.13M332.163,1223.98L332.91,1234.95M304.568,1225.85L305.315,1236.83M240.251,1230.23L240.998,1241.2M194.839,1233.32L195.586,1244.3M187.234,1233.84L187.98,1244.81M178.542,1234.43L179.289,1245.41M113.791,1238.84L114.538,1249.81M788.218,1209.46L395.295,1248.01M373.819,1250.09L362.872,1251.16M340.007,1253.41L329.059,1254.48M320.933,1255.28L309.985,1256.35M278.234,1259.47L267.286,1260.54M259.81,1261.28L248.863,1262.35M239.436,1263.28L228.489,1264.35M222.53,1264.93L211.582,1266.01M202.373,1266.91L191.425,1267.99M177.23,1269.38L166.282,1270.45M149.27,1272.12L138.322,1273.19M120.009,1274.99L109.061,1276.07M102.452,1276.71L91.505,1277.79M84.029,1278.52L73.081,1279.6M66.689,1280.22L55.742,1281.3M10.896,1285.7L45.751,1282.28M433.558,1238.7L434.632,1249.65M382.061,1243.76L383.136,1254.7M356.927,1246.22L358,1257.17M348.65,1247.03L349.724,1257.98M301.752,1251.63L302.826,1262.58M294.395,1252.36L295.469,1263.3M286.425,1253.14L287.5,1264.09M185.885,1263L186.959,1273.95M157.991,1265.74L159.065,1276.69M129.484,1268.54L130.558,1279.48M29.25,1278.37L30.324,1289.32M788.736,1211.9L1883.6,1209.27M2239.2,1208.41L2343.57,1208.16M2684.56,1207.34L2821.58,1207.01M2821.61,1219.02L2821.55,1195M2890.54,1287.16L2909.61,1287.16M2899.55,1196.56L2899.55,1178.67M2858.59,1828.98L2938.94,1828.98" style="fill:none;stroke:white;stroke-opacity:0.5;stroke-width:5.2px;"/>
    </g>
    <g transform="matrix(1,0,0,1,78.8796,1.27312)">
        <g transform="matrix(-0.00264957,0.785503,-0.785503,-0.00264957,1763.36,42.9708)">
            <path d="M2476.79,737.451L2476.79,737.466C2476.79,738.78 2475.71,739.862 2474.39,739.862C2473.08,739.862 2472,738.78 2472,737.466L2472,737.451C2472,736.137 2473.08,735.056 2474.39,735.056C2475.71,735.056 2476.79,736.137 2476.79,737.451Z" style="fill:none;stroke:white;stroke-opacity:0.5;stroke-width:5.5px;"/>
        </g>
        <g transform="matrix(-0.00264957,0.785503,-0.785503,-0.00264957,1764.62,73.5974)">
            <path d="M2476.79,737.451L2476.79,737.466C2476.79,738.78 2475.71,739.862 2474.39,739.862C2473.08,739.862 2472,738.78 2472,737.466L2472,737.451C2472,736.137 2473.08,735.056 2474.39,735.056C2475.71,735.056 2476.79,736.137 2476.79,737.451Z" style="fill:none;stroke:white;stroke-opacity:0.5;stroke-width:5.5px;"/>
        </g>
        <g transform="matrix(4.80984e-17,0.785507,-0.785507,4.80984e-17,1758.67,40.1679)">
            <path d="M2491.07,786.275C2495.29,788.001 2498.33,787.889 2502.38,786.006M2484.35,836.256C2486.42,825.093 2485.37,811.502 2487.05,800.203M2551.91,734.344C2555.01,740.194 2551.37,746.654 2543.2,757.133C2553.41,751.721 2557.8,752.607 2562.69,742.469M2567,753.075C2567.25,762.483 2557.01,769.061 2550.69,767.2M2494.62,815.673C2498.67,821.78 2496.92,828.882 2501.98,836.007M2499.61,863.325C2489.53,863.291 2467.75,864.38 2457.26,864.226C2454.32,864.183 2452.07,862.849 2453.46,856.107M2510.17,866.806C2520.12,870.132 2523.42,859.651 2529.52,861.64M2547.89,860.281C2582.47,862.428 2605.09,853.438 2612.02,847.875M2513.28,850.969C2521.38,862.166 2529.65,823.915 2535.78,815.812M2653.51,1218.38C2661.77,1200.92 2659.29,1185.25 2664.43,1168C2681.14,1119.53 2680.67,1067.09 2670.86,1029.19C2658.32,976.127 2671.97,913.777 2650.93,883.268C2648.55,879.815 2642.51,869.035 2638.81,865.508C2631.16,858.216 2623.77,854.935 2612.02,847.875C2598.2,839.574 2585.55,830.598 2569.48,824.499C2558.37,820.285 2551.7,806.863 2553.54,780.038C2553.81,776.095 2553.99,772.64 2554.12,767.264M2624.85,1124.42C2618.86,1084.69 2600.59,1076.6 2598.51,1058.44C2595.62,1033.17 2619.47,1014.34 2611.47,979.895M2623.74,1034.46C2631.02,1064.94 2626.21,1121.23 2622.43,1150.75C2622.14,1152.95 2622.54,1158.1 2622.44,1159.98C2621.18,1181.54 2622.76,1166.8 2621.01,1200.31C2620.26,1214.62 2609.43,1219.08 2606.62,1234.72C2605.95,1238.47 2605.33,1246.15 2605.71,1252.85C2605.91,1256.44 2601.57,1267.46 2601.12,1277.34C2600.72,1286.28 2599.96,1295.57 2603.77,1296.67C2610.11,1298.51 2611.81,1292.18 2618.85,1267.36C2620.54,1261.42 2618.94,1255.62 2621.64,1249.59M2618.85,1267.36C2622.98,1273.56 2625.28,1282.48 2625.88,1289.63C2626.45,1296.54 2624.57,1302.95 2622.21,1309.34C2620.64,1313.59 2618.75,1317.06 2618.09,1320.42C2616.88,1326.65 2623.5,1327.06 2625.78,1323.8C2633.56,1312.63 2638.19,1298.19 2638.45,1288.32C2638.62,1281.94 2639.21,1275.45 2642.21,1269.74M2628.04,1320.31C2623.26,1329.21 2631,1338.87 2636.1,1329.16C2638.27,1325.03 2635.84,1324.84 2637.79,1320.24C2640.85,1313.01 2647.78,1301.24 2646.3,1294.83C2644.14,1285.44 2643.55,1279.28 2649.97,1275M2637.01,1324.69C2636.26,1329.42 2642.29,1325.24 2643.84,1323.2C2645.35,1321.21 2646.12,1318.88 2647.25,1317.19C2648.8,1314.83 2650.58,1312.66 2651.89,1305.26C2652.54,1301.56 2653.28,1287.77 2654.98,1279.42M2651.59,1306.89C2658.05,1306.88 2661.88,1300.16 2662.32,1294.25C2662.8,1287.75 2659.91,1281.16 2658.54,1280.42C2664.36,1261.82 2661.52,1235.66 2650.85,1211.98M2613.41,1001.52C2619.54,1008.79 2613.85,1022.98 2628.41,1041.3C2630.79,1044.28 2630.65,1050.11 2635.17,1057.98M2537.34,985.768C2582.97,1036.6 2637.6,979.597 2600.8,936.873M2590,970.35C2587.64,969.876 2581.19,982.626 2583.39,983.005C2587.82,983.768 2593.67,974.644 2589.89,972.855M2435.87,984.667C2445.09,988.854 2448.44,978.847 2442.17,976.335C2442.01,976.274 2441.58,976.217 2441.31,976.491M2489.97,988.694C2469.16,1011.82 2440.77,1010.19 2431.81,999.807C2430.62,998.43 2427.6,992.341 2426.58,990.776C2418.68,978.673 2418.18,961.66 2429.74,939.927C2432.18,935.355 2430.68,927.608 2429.85,922.748M2437.16,1003.88C2437.68,1032.69 2426.84,1052.44 2423.21,1085.01M2429.2,1139.24C2432.22,1147.38 2435.83,1155.15 2440.89,1161.26M2573.05,1067.37C2572.47,1057.37 2575.86,1049.1 2581.98,1045.06M2495.17,1125.59C2493.82,1123.59 2491.4,1122.31 2489.75,1124.52C2487.83,1127.1 2493.15,1131.1 2496.03,1129.92C2498.06,1129.08 2499.16,1126.1 2497.48,1124.36M2569.38,1169.28C2572.45,1163.19 2574.51,1158.12 2575.54,1152.03M2545.9,1218.32L2548.77,1215.37M2538.39,1225.36C2522.87,1237.15 2516.44,1252.33 2516.19,1265.64C2497.06,1251.4 2483.91,1231.54 2472.86,1214.43C2464.5,1201.49 2455.53,1194.68 2444.28,1182.05M2371.29,1264.58C2375.49,1267.57 2374.87,1284.27 2380.61,1295.11C2382.99,1299.6 2387.79,1300.22 2391.85,1304.29C2395.07,1315.42 2400.42,1322.07 2397.77,1329.74C2392.7,1325.66 2384.49,1317.23 2379.75,1312.77C2368.24,1301.92 2365.68,1288.35 2357.58,1276.14C2353.53,1271.05 2354.64,1264.72 2358.93,1259.43C2382.09,1230.86 2366.96,1167.19 2370.25,1113.33C2371.8,1087.9 2371.2,1065.03 2382.47,1040.7C2395.79,1015.58 2394.6,968.989 2394.28,923.651C2395.67,886.33 2412.63,868.542 2445.49,859.143C2461.18,852.295 2476.03,842.62 2485.37,828.088M2443.99,1006.25C2453.18,1059.22 2433.31,1070.76 2414.28,1095.92C2401.67,1112.61 2398.2,1135.31 2398.23,1161.34C2398.28,1204.89 2381.55,1235.68 2384.39,1261.19C2392.27,1331.9 2424.88,1421.68 2441.55,1447.95M2456.25,1489.29C2438.76,1479 2433.11,1461.42 2432.45,1430.76M2437.27,1475.08C2441.74,1485.93 2444.73,1491.82 2449.19,1497.22M2501.83,1496.82C2500.18,1481.58 2502.82,1473.21 2508.92,1464.86M2461.37,1499.73C2471.54,1500.78 2474.76,1493.65 2472.62,1483.52C2471.75,1479.42 2471.63,1475.39 2472.66,1471.34M2439.41,1470.36C2419.14,1507.59 2451.54,1598.1 2463.97,1664.24C2467.82,1684.73 2471.76,1694.39 2468.62,1716.48M2506.25,1675.37C2526.48,1709.97 2532.56,1728.47 2521.35,1734.53C2512.17,1739.57 2498.02,1746.66 2487.89,1752.46M2469.76,1702.58C2459.91,1710.31 2455.38,1728.06 2447.72,1734.75C2437.99,1743.27 2425.91,1746.76 2421.75,1755.46C2420.16,1758.78 2420.03,1761.5 2422.39,1763.43M2423.03,1778C2416.89,1780.47 2419.83,1765.33 2422.39,1763.43L2430.98,1757.08M2430.98,1757.08L2434.39,1762.76C2430.45,1770.1 2426.66,1772.71 2423.03,1778C2419.89,1782.57 2420.28,1785.59 2422.64,1788.35M2757.64,1752.75C2768.82,1758.13 2777.91,1767.44 2784.11,1776.51C2784.62,1778.54 2786.66,1783.24 2785.14,1787.67M2691.5,1726.68C2680.69,1761.08 2684.49,1761.94 2715.53,1772.68M2645.95,1510.04C2636.83,1501.88 2632.78,1493.31 2632.82,1483.16M2614.07,1515.14C2594.24,1564.68 2644.43,1615.04 2665.25,1661.52C2677.37,1687.96 2685.91,1717.5 2701.2,1747.51M2621,1529.78C2617.78,1522.04 2617.18,1520.4 2614.07,1515.14C2606.7,1502.68 2596.9,1487.92 2590.89,1475.74C2578.94,1451.57 2572.29,1424.06 2559.24,1375.81C2556.47,1365.58 2518.88,1285.48 2516.19,1265.64C2519.04,1325.56 2509.26,1355.77 2510.62,1378.04C2511.48,1392.23 2520.11,1429.01 2512.35,1445.87C2508.39,1454.46 2507.38,1463.58 2509.33,1465.44C2512.69,1468.66 2511.06,1478.51 2512.68,1481.26C2517.87,1490.1 2521.85,1515.16 2520.19,1535.12C2518.89,1550.77 2516.5,1552.09 2515.87,1565.09C2514.91,1601.17 2514.55,1639.92 2507.56,1714.69C2507.43,1716.13 2505.11,1719.82 2506.16,1724.57M2679.02,1519.76C2680.07,1506.43 2678.4,1491.43 2676.69,1482.38C2675.81,1477.74 2676.34,1471.46 2675.58,1467.42C2671.77,1447.09 2664.71,1433.54 2664.14,1399.04C2663.7,1372.33 2666.35,1311.55 2659.38,1302.55M2680.32,1502.9C2715.96,1537.34 2714.71,1665.19 2725.76,1696.19C2739.38,1734.42 2753.24,1737.96 2764.23,1768.23M2666.84,1511.59C2669.1,1510.66 2670.84,1505.84 2670.72,1502.68M2614.86,849.577C2611.87,831.289 2604.39,811.416 2605.45,787.491C2606.44,765.151 2608.18,742.58 2603.93,722.687C2599.78,703.218 2588.68,690.174 2578.43,674.748C2566.55,656.864 2557.33,638.534 2529.84,639.503C2515.37,640.013 2495.74,650.741 2492.42,672.733C2490.5,685.46 2503.71,699.148 2518.6,699.226C2535.69,699.317 2535.68,714.573 2540.26,723.052C2546.9,735.909 2563.1,736.117 2566.18,749.35C2571.85,773.751 2558.72,801.495 2572.43,825.666M2449.97,1774.35C2444.74,1785.49 2427.8,1788.59 2428.31,1792.97C2430.19,1808.82 2447.44,1799.12 2458.66,1791.04C2470.67,1793.17 2478.05,1780.94 2484.2,1763.32C2488.35,1751.46 2491.3,1739.08 2499.23,1735.44M2442.26,1768.66C2437.87,1774.78 2430.02,1782.94 2422.63,1788.35C2420.58,1789.85 2420.97,1794.96 2428.31,1792.97M2776.53,1778.29L2776.19,1781.88L2785.13,1787.67C2785.28,1791.38 2784.03,1797.7 2783.8,1799.52M2773.24,1784.81L2770.94,1789.59C2775.11,1792.85 2779.16,1796.82 2783.8,1799.52C2786.72,1804.07 2778.76,1804.26 2777.61,1807.67M2767.88,1791.65L2766.13,1796.22C2771.45,1801.15 2776.29,1804.47 2781.61,1807.67C2781.18,1808.96 2780.74,1811.89 2781.83,1813.98C2787.64,1825.11 2770.16,1831.22 2760.65,1826.01C2752.67,1821.65 2750.14,1814.25 2739.15,1811.58C2726.81,1808.58 2714.19,1764.29 2707.76,1756.67M2760.01,1800.34C2761.45,1806.51 2763.82,1807.39 2771.98,1811.02C2774.2,1812 2779.39,1811.18 2781.83,1813.98M2608.22,932.232L2603.14,922.842M2608.72,948.956C2608.91,940.163 2607.61,932.187 2608.52,921.539M2487.81,751.25C2488.6,744.289 2488.32,739.179 2487.22,734.618M2505.06,754.129C2508.11,758.528 2502.03,763.972 2496.33,760.334C2491.48,765.795 2481.68,764.889 2480.53,759.202M2478.72,729.532C2478.21,725.901 2468.99,724.893 2464.92,725.895M2499.75,727.919C2503.28,725.102 2520.8,722.076 2523.04,725.713M2481.21,776.968L2485.69,773.735C2488.95,774.78 2493.21,776.704 2496.49,773.041C2498.77,775.669 2503.74,776.475 2508.9,775.74C2509.6,775.64 2510.18,776.201 2511.05,776.541M2482.46,776.067C2488.01,777.312 2493.57,778.352 2499.36,774.987M2466.55,736.128C2479.53,735.751 2481.71,736.942 2484.7,742.026M2505.52,741.154C2506.57,734.05 2515.11,733.296 2525.27,736.377M2551.99,753.053C2550.57,776.36 2549.32,777.599 2534.05,789.404C2523.31,797.709 2509.95,805.729 2490.46,803.782C2485.12,798.379 2476.33,788.53 2471.28,778.359C2465.22,766.153 2458.86,753.871 2463.71,737.967C2462.94,733.786 2461.32,729.592 2463.53,725.963C2462.55,717.836 2465.28,702.953 2468.06,700.214C2484.85,683.623 2488.04,684.987 2490.66,673.789C2491.47,670.341 2493.64,660.828 2497.17,654.865C2494.26,650.371 2465.42,666.215 2452.49,693.465C2446.63,705.822 2450.06,720.644 2445.03,739.074C2438.79,761.967 2471.52,794.033 2452.49,842.261C2450.63,846.975 2450.39,854.486 2449.98,857.091" style="fill:none;stroke:white;stroke-opacity:0.5;stroke-width:5.2px;"/>
        </g>
        <g transform="matrix(-0.00264957,0.785503,-0.785503,-0.00264957,1766.12,39.1974)">
            <path d="M2022.16,662.182L2022.16,662.209C2022.16,663.729 2020.91,664.981 2019.39,664.981C2017.87,664.981 2016.62,663.729 2016.62,662.209L2016.62,662.182C2016.62,660.662 2017.87,659.41 2019.39,659.41C2020.91,659.41 2022.16,660.662 2022.16,662.182Z" style="fill:none;stroke:white;stroke-opacity:0.5;stroke-width:5.5px;"/>
        </g>
        <g transform="matrix(-0.00264957,0.785503,-0.785503,-0.00264957,1767.44,75.8551)">
            <path d="M2022.16,662.182L2022.16,662.209C2022.16,663.729 2020.91,664.981 2019.39,664.981C2017.87,664.981 2016.62,663.729 2016.62,662.209L2016.62,662.182C2016.62,660.662 2017.87,659.41 2019.39,659.41C2020.91,659.41 2022.16,660.662 2022.16,662.182Z" style="fill:none;stroke:white;stroke-opacity:0.5;stroke-width:5.5px;"/>
        </g>
        <g transform="matrix(4.80984e-17,0.785507,-0.785507,4.80984e-17,1758.67,40.1679)">
            <path d="M2165.88,1803.01C2146.35,1809.47 2151.3,1803.9 2158.01,1795.33M2153.75,1789.05C2160.14,1798.61 2169.39,1802.81 2166.46,1808.45C2159.87,1821.17 2137.23,1815.82 2136.77,1801.61C2136.67,1798.73 2134.03,1796.52 2132.34,1794.48C2120.14,1790.38 2120.35,1782.96 2120.98,1772.38C2124.46,1714.06 2106.39,1721.39 2105.08,1703.97C2103.16,1670.45 2111.12,1643.47 2107.15,1611.98M2165.68,1174.99C2159.58,1171.92 2165.96,1084.39 2146.42,1082.8C2156.74,1075.97 2153.93,1046.26 2147.42,1025.04C2141.23,1004.87 2146.64,989.099 2157.83,963.905M2135.47,791.415C2133.66,796.64 2136.85,803.176 2144.12,803.446M2082.06,684.121C2089.52,676.668 2094.42,668.868 2095.45,663.795M2102.54,672.03C2100.4,677.14 2097.37,683.986 2093.01,692.832C2090.15,698.633 2090.77,706.38 2090.63,718.601C2090.47,733.031 2091.23,746.587 2093.28,751.025M1817.84,659.629L1824.19,660.82M1952.44,1440.49C1937.8,1476.94 1954.9,1553.97 1977.14,1647.37C1983.15,1674.81 1976.12,1690.55 1964.6,1711.62M2011.17,1726.83C1993.07,1734.63 1988.55,1746.03 1978.95,1765.35C1973.81,1780.81 1960.5,1785.88 1944.6,1781.69C1946.53,1791.87 1922.57,1796.51 1913.62,1786.27C1906.41,1778.02 1917.36,1774.62 1918.69,1774.38C1928.51,1772.62 1935.28,1768.03 1943.62,1760.26M1911.24,1782.34C1905.06,1782.67 1905.95,1774.92 1908.35,1772.7C1917.07,1764.67 1925.34,1759.62 1935.2,1754.72M1907.55,1773.72C1901.74,1769.06 1906,1763.93 1908.16,1761.56C1912.88,1756.36 1918.77,1753.79 1926.76,1748.89M1908.16,1761.56C1905.2,1756.5 1904.88,1749.68 1913.21,1746.34C1911.62,1738.03 1917.53,1731.78 1928.2,1732.94C1937.97,1732.72 1958.98,1707.21 1975.31,1688.98M1913.21,1746.34C1917.41,1746.37 1915.21,1746.52 1918.73,1746.1C1920.86,1746.21 1924,1746.98 1924.71,1741.7M2019.18,1706.81C2023.27,1698.69 2020.41,1665.36 2022.54,1659.09M2036.29,1517.77C2036.88,1537.06 2033.84,1567.65 2026.64,1590.98M2025.52,1575.47C2027.94,1610.27 2029.95,1639.99 2036,1680.02C2036.21,1681.43 2035.52,1683.62 2035.62,1685.05C2036,1690.28 2036.85,1694.78 2037.53,1700.09C2050.51,1739.01 2013.59,1732.65 1990.92,1743.11M2121.43,1758.35C2116.38,1754.36 2113.38,1751.28 2110.13,1749.26C2094.66,1739.68 2099.86,1736.09 2105.96,1708.62M2166.46,1808.45C2171.74,1814.79 2180.73,1804.38 2176.08,1800.48C2167.43,1793.23 2166.16,1789.11 2161.92,1782.25M2176.08,1800.48C2179.78,1800.81 2181.58,1801.3 2183.63,1797.25C2186.52,1794.94 2186.72,1794 2187.69,1788.47C2187.96,1785.71 2189.83,1783.63 2189.57,1780.82C2189.09,1775.62 2186.22,1773.61 2183.77,1768.46C2182.59,1765.97 2181.31,1761.15 2179.6,1758.21C2177.92,1755.33 2175.5,1751.87 2174.43,1748.98C2162.05,1722.17 2155.73,1699.52 2144.35,1701.75C2150.12,1699.85 2152.99,1696.25 2152.59,1685.92C2152.57,1685.32 2153.09,1684.23 2153.01,1683.58C2150.73,1663.87 2155.36,1651.44 2158.69,1634.36C2166.78,1592.93 2175.89,1553.97 2174.46,1512.8C2174.31,1508.5 2172.79,1502.49 2172.52,1498.18C2170.97,1474.15 2166.34,1455.75 2156.74,1432.58M2084.76,1446.96C2074.47,1485.46 2074.1,1525.34 2097.1,1565.75M2135.27,1464.41C2138.34,1458.33 2135.31,1451.21 2140.4,1450.21M2156.02,1437.37C2160.2,1411.35 2161.07,1380.62 2157.11,1370.61M2150.22,1390.8C2150.93,1377.25 2159.12,1369.95 2164.74,1354.54C2167.59,1346.73 2168.4,1339.79 2169.92,1332.25C2172.74,1318.22 2175.69,1304.25 2175.23,1290.41M2139.07,1427.26C2138.08,1419.13 2140.68,1412.03 2142.74,1404.93M2093.99,1414.43C2091.06,1422.33 2095.16,1433.4 2103.27,1441.55C2101.05,1454.09 2102.1,1466.17 2114.05,1464.65M2025.4,1418.22C2047.25,1454.07 2047.86,1496.31 2030.21,1533.09M2021.64,1459.72C2020.18,1443.55 2018.79,1431.19 2026.66,1415.58C2030.4,1408.18 2031.39,1397.46 2032.3,1389.32C2035.56,1360.15 2035.1,1335.2 2031.67,1299.66C2031.54,1298.31 2033.11,1293.75 2033.11,1293.75C2033.11,1293.75 2032.19,1291.33 2032.5,1289.99C2036.68,1271.85 2037.58,1254.69 2036.69,1236.72M1960.52,1456.41C1944.56,1428.32 1935.96,1395.94 1938.57,1375.23M1976.68,1425.75C1975.7,1415.59 1971.66,1405.42 1963.56,1395.24C1971.66,1405.42 1979.79,1410.52 1987.92,1411.57M1928.67,1071.32C1923.74,1082.79 1920.15,1095.63 1922.22,1113.27C1925.22,1129.53 1911.69,1151.55 1911.63,1167.8C1909.44,1215.52 1922.06,1258.26 1922.92,1305.99C1921.21,1340.29 1933.29,1377.88 1952.96,1391.14M2078.29,1163.93C2112.87,1126.89 2103.98,1102.09 2120.76,1089.81M2069.26,1171.5L2072.48,1168.46M1957.9,1099.33C1978.31,1116.2 1975.08,1161.79 2002.32,1173.05M2045.5,1177.7C2038.21,1184.85 2041.55,1197.2 2043.54,1210.4C2046.53,1228.33 2027.05,1229.79 2023.87,1214.73C2021.21,1202.16 2030.6,1189.18 2024.56,1181.51M2059.77,1175.21C2053.75,1180.08 2051.15,1188.47 2055.18,1200.67C2058.78,1217.08 2058.11,1233.99 2038.98,1237.15C2037.04,1237.48 2033.89,1235.71 2031.59,1235.7C2015.31,1236.66 2011.21,1227.42 2010.17,1214.9C2009.05,1201.43 2015.29,1186.22 2008.81,1177.38M2210.01,1184.42C2210.98,1200.67 2211.2,1219.82 2208.13,1242.35C2207.4,1247.7 2204.81,1250.58 2200.52,1258.1C2197.51,1263.37 2197.19,1264.83 2194.8,1271.29C2192.93,1274.44 2191.18,1278.34 2187.56,1271.77C2187.4,1274.64 2187.99,1277.86 2186.38,1280.66C2183.09,1284.29 2180.46,1287.25 2175.23,1290.41C2173.68,1291.35 2168.97,1290.86 2167.03,1288.83C2163.57,1291.68 2161.67,1292.09 2159.21,1292.56C2158.1,1292.78 2156.89,1288.23 2155.02,1288.32C2153.93,1290.07 2151.94,1290.92 2151.94,1290.92C2144.05,1294.64 2143.19,1287.35 2146.27,1281.36C2160.12,1254.49 2164.93,1235.49 2162.76,1220.49M2196.4,1244.74C2189.6,1256.9 2188.82,1260.29 2187.56,1271.77M2167.03,1288.83C2173.5,1281.27 2180.22,1273.12 2182.01,1265.84C2184.62,1255.18 2182.27,1256.45 2190.58,1242.78M2182.14,1235.13C2171.84,1246.15 2178.57,1263.14 2151.94,1290.92M2178.28,1165.24C2169.09,1174.34 2152.29,1179.27 2146.82,1203.34C2143.11,1219.66 2122.33,1222.54 2123.33,1228.63C2127.47,1241.34 2138.27,1238.52 2147.69,1231.05C2155.05,1225.23 2161.77,1216.19 2168.41,1216.37C2171.88,1216.47 2173.1,1223.59 2163.45,1225.47M2178.6,1012.46C2170.99,1021.28 2174.07,1064.49 2179.06,1094.96C2179.26,1107.58 2178.44,1149.8 2174.33,1167.29M2188.89,1040.53C2191.42,1022.86 2184.44,1018.89 2172.64,1006.26C2161.49,990.993 2165.09,968.506 2157.83,963.905C2154.04,955.785 2157.53,946.385 2156.58,935.361C2155,917.094 2154.94,900.52 2151.25,891.198M2215.6,876.366C2232.47,904.268 2224.68,959.441 2227.68,973.667C2228.63,994.995 2247.24,1035.74 2234.43,1083.64C2229.42,1104.65 2225.43,1118.23 2221.21,1141.29C2218.4,1156.63 2215.82,1181.35 2210.46,1193.68M1920.39,890.061C1921.31,919.512 1925.38,949.191 1934.43,978.669C1941.7,999.003 1937.46,1025.49 1931.2,1038.16C1921.83,1057.12 1925.95,1075.22 1937.13,1079.35M2025.32,1064.6C2029.07,1068.25 2034,1063.83 2031.99,1061.12M2049.29,940.766C2069.44,944.804 2079.26,1012.96 2098.58,1017.09M1978.83,1017.3C2015.55,1008.6 1994.52,936.764 2039.58,939.717M2044.66,896.469C2038.67,907.19 2027.5,910.844 2010.72,911.295C1944.97,917.176 1921.7,900.635 1922.45,858.17C1922.49,847 1923.74,838.614 1919.89,835.4M2163.5,845.33C2164.43,853.829 2157.39,884.681 2145.63,900.446C2137.48,911.38 2122.9,910.053 2099.09,909.608C2079.74,909.246 2053.75,908.964 2051.93,898.216M2038.07,785.272C2043.4,791.71 2048.36,789.012 2052.33,781.258M2034.08,762.086C2037.37,766.598 2041.37,769.695 2046.32,770.929L2064.97,743.975M1949.4,778.956C1963.36,766.417 1979.52,758.013 1995.02,750.749C2004.19,745.702 2002.23,728.357 2002.3,709.064M2017.99,780.71C2002.73,779.643 1994.91,781.43 1981.67,784.431C1959.29,786.387 1950.71,769.304 1914.02,786.443C1889.56,800.577 1877.23,815.346 1877.09,828.854M1887.66,828.737C1871.12,825.019 1850.05,842.188 1841.28,854.406M1850.44,914.063C1852.77,870.128 1827.78,832.24 1831.74,790.348C1834.13,765.074 1834.74,740.893 1848.02,724.69C1857.27,716.598 1861.92,702.989 1865.69,695.514C1870.27,686.444 1876.78,681.643 1881.88,677.598C1890.12,665.34 1866.8,662.914 1854.31,679.507C1850.21,684.951 1843.18,687.223 1837.08,696.341C1814.52,702.425 1809.2,718.564 1810.26,731.763C1809.44,726.998 1806.55,722.321 1805.31,720.205M1785.61,747.008C1776.34,798.043 1765.98,902.241 1778.74,916.074M1887.87,912.606C1881.74,920.709 1870.23,926.46 1857.48,936.148M1906.42,833.17C1914.89,835.917 1917.71,840.547 1922.67,847.453M1924.89,880.091C1912.39,909.047 1900.9,928.428 1857.48,936.148C1834.67,952.784 1819.16,952.948 1805.12,948.592C1791.43,949.399 1785.39,946.964 1781.99,938.219C1777.39,926.365 1777.86,905.847 1782.1,901.393M1899.54,880.411L1912.25,869.067M1958.32,892.198C1955.54,891.701 1955.8,892.714 1955.96,892.951C1960.93,900.222 1971.23,895.29 1962.53,890.569M1952.15,802.644C1957.3,803.124 1960.3,799.625 1962.35,795.57M2050.55,840.394C2053.21,838.064 2053.77,836.251 2052.16,831.323M2049.1,861.405C2051.81,860.399 2053.5,858.301 2052.75,855.254M2126.59,890.545C2113.9,893.283 2125.32,900.326 2131.12,895.69C2131.67,895.255 2132.5,893.675 2129.8,894.333M2066.27,778.351C2085.6,778.416 2106.66,787.303 2126.01,781.184M2106.9,591.375C2129.78,612.096 2122.37,637.701 2109.28,645.813M2106.45,644.186C2122.8,654.845 2108.18,676.022 2089.98,674.811M2095.74,674.457C2093.83,681.463 2096.34,680.979 2090.16,697.245C2089.09,701.46 2086.23,705.563 2085.38,706.477C2068.56,724.701 2055.52,735.845 2052.15,737.162C2047.35,739.038 2032.23,739.329 2028.93,738.745C2014.05,736.108 1999.79,707.584 1994.65,688.841C1997.93,680.931 1992.81,674.189 1989.48,665.747C1986.71,658.368 1991.84,657.857 1992.27,654.79C1992.58,652.563 1990.22,650.993 1990.62,649.413C1991.88,644.474 1992.4,642.855 1983.25,642.788M2080.83,582.62C2081.83,576.493 2082.84,568.046 2081.98,565.244C2076.99,548.829 2047.15,538.209 2031.01,552.025C2022.76,559.08 2020.87,562.546 2012.57,561.208C2002.48,559.581 1996.68,565.943 1995.11,573.372C1992.92,583.682 1985.27,581.803 1980.06,586.965C1977.41,589.598 1974.5,593.606 1974.49,597.997C1974.47,602.21 1978.01,607.444 1975.58,610.083C1966.67,619.765 1965.21,645.291 1983.25,642.788C1977.77,628.958 1982.04,621.608 1986.65,621.665C1989.87,621.705 1994.39,625.52 1992.63,634.198M1977.94,642.645C1975.88,651.777 1976.79,655.771 1980.86,656.8C1978.8,662.886 1979.8,668.121 1985.8,671.678C1985.7,684.017 1989.57,685.777 1994.65,688.841M1771.77,680.69C1762.02,652.461 1766.78,628.51 1774.51,628.583C1780.56,628.639 1775.19,649.16 1784.25,672.753L1786.52,671.221C1780.24,667.388 1787.45,605.902 1800.25,611.598C1808.64,615.334 1799.36,626.805 1797.69,643.648C1797.16,650.007 1798.31,657.27 1799.68,663.954C1801.37,662.604 1803.22,662.436 1805.75,661.191C1804.32,648.493 1805.48,639.415 1807.13,628.495C1809.4,613.434 1812.69,601.704 1816.33,600.963C1820.88,600.033 1823.93,602.435 1821.94,610.348C1820.94,614.29 1819.77,617.701 1819.57,619.861C1818.64,629.992 1818.18,647.406 1819.98,660.03C1822.57,660.515 1823.88,659.839 1824.19,660.82C1824.33,640.788 1826.79,641.252 1827.51,629.926C1828.47,618.763 1826.81,611.419 1831.73,610.352C1837.16,609.175 1840.55,615.818 1839.06,632.055C1841.29,643.014 1833.38,666.687 1843.2,689.263M1808.96,660.261C1804.66,661.527 1803.03,661.76 1799.45,664.204M2147.7,777.614C2134.53,759.075 2100.09,747.01 2090.63,725.467M2107.5,622.265C2106.43,626.983 2108.22,633.542 2107.3,638.924C2105.89,647.183 2102.26,655.211 2095.45,663.795C2099.28,652.821 2098.25,643.499 2084.02,634.809C2069.65,626.035 2067.44,613.852 2075.66,591.539C2060.7,610.475 2045.77,619.421 2027.83,603.628M2081.98,565.244C2097.94,561.315 2107.41,580.56 2107.29,602.901M2040.06,605.699C2041.99,604.565 2042.29,602.357 2041.49,602.111C2019.48,593.736 2014.16,635.375 1992.27,626.194M2211.64,902.818C2214.77,881.504 2219.7,857.124 2216.24,837.472C2214.16,825.627 2206.3,808.259 2194.33,795.11C2182.39,781.996 2170.48,771.766 2137.28,779.589M1788.51,669.96L1780.86,675.044M1774.3,678.565L1771.77,680.69C1765.93,685.602 1773.48,730.575 1789.08,752.455C1789.55,753.472 1783.57,754.773 1784.05,755.786M2017.24,707.339C2021.85,706.653 2026.13,706.092 2029.93,703.769C2034.02,704.394 2038.22,705.966 2041.94,703.501C2045.89,704.626 2049.68,705.292 2054.87,706.011M2025.46,705.898C2032.69,708.309 2040.15,707.606 2048.43,705.101M1930.05,1770.51C1930.09,1779.56 1923.84,1780.87 1917.42,1774.71M2094.09,1560.23C2091.96,1587.64 2099.35,1620.36 2108.4,1649.84M2047.23,1235.83C2046.16,1253.09 2056.41,1271.92 2061.43,1291.23C2067.4,1330.85 2066.07,1377.72 2073.54,1412.42C2073.46,1433.74 2097.86,1465.53 2106.81,1498.86M2170.29,1776.98C2168.71,1786.52 2174.45,1784.85 2183.63,1797.25M2189.44,1782.48C2185.25,1781.59 2178.07,1779.6 2178.38,1773.72M2030.31,661.181C2028.54,658.406 2025.57,656.202 2022.46,655.48C2015.79,655.068 2008.07,655.923 2002.32,655.138L2004.77,657.011C2016.22,656.051 2022.11,656.941 2026.65,658.283M2052.24,660.355C2053.01,656.114 2058.15,654.356 2062.99,654.584C2067.97,654.362 2067.86,656.902 2073.73,658.2M2031.05,681.148C2034.2,669.369 2032.65,658.687 2030.74,653.824M2031.03,717.217C2035.09,719.261 2038.29,719.525 2043.38,717.511M2076.18,648.444C2069.07,643.343 2055.7,644.321 2049.08,647.67M2027.49,649.258C2019.38,641.107 2010.96,649.435 2002.83,645.345M2022.17,681.064C2017.48,684.392 2018.27,689.388 2021.37,691.428C2023.47,692.815 2025.63,690.504 2029.19,691.483C2034.47,692.934 2036.24,693.349 2041.78,691.154C2043.79,690.358 2048.78,692.559 2051.09,691.676C2053.8,690.639 2054.26,685.391 2051.8,680.265" style="fill:none;stroke:white;stroke-opacity:0.5;stroke-width:5.2px;"/>
        </g>
    </g>
</svg>
