<?xml version="1.0" encoding="utf-8"?>
<!-- Generator: Adobe Illustrator 24.0.0, SVG Export Plug-In . SVG Version: 6.00 Build 0)  -->
<svg version="1.1" id="Layer_1" xmlns="http://www.w3.org/2000/svg" xmlns:xlink="http://www.w3.org/1999/xlink" x="0px" y="0px"
	 width="549.3px" height="270.9px" viewBox="0 0 549.3 270.9" style="enable-background:new 0 0 549.3 270.9;" xml:space="preserve"
	>
<style type="text/css">
	.st0{opacity:0.73;fill:#FFFFFF;}
	.st1{opacity:0.35;fill:#FFFFFF;}
	.st2{fill:#6D6D6D;}
	.st3{fill:#BABABA;}
	.st4{fill:#FFFFFF;}
	.st5{fill:#515150;}
	.st6{fill:#010101;}
	.st7{font-family:'HelveticaNeue-CondensedBlack';}
	.st8{font-size:24px;}
	.st9{font-size:12px;}
	.st10{font-size:10px;}
	.st11{fill:#C4C4C4;}
</style>
<rect x="127" y="9.2" class="st0" width="258.4" height="74.4"/>
<rect x="6.9" y="257.6" class="st0" width="532.8" height="30.3"/>
<polygon class="st1" points="385.7,83.7 127.4,83.3 6.7,257.6 540.3,257.6 "/>
<g>
	<path class="st2" d="M239.6,102.9v-3.3c-0.7-1.2-1.2-2.6-1.7-4v10.7L239.6,102.9z"/>
	<path class="st2" d="M239.6,72.6v-3.1c-0.5,0-0.8,0-1.2,0h-0.5v6.9C238.3,75.2,238.9,73.9,239.6,72.6z"/>
	<path class="st2" d="M293.3,109.7l0.9,1.7l3.7-5.6c-0.7,0-1.4,0-2,0L293.3,109.7z"/>
	<path class="st2" d="M304,114.4l0.3,0.5c0.1,0.2,0.5,0.3,0.7,0.3c0.1,0,0.3,0,0.5-0.1c0.3-0.2,0.5-0.8,0.2-1.1l-5.6-8.2
		c-0.7,0-1.4,0-2,0L304,114.4z"/>
	<path class="st2" d="M287.8,104.8c-1.4,1.7-2.9,3.2-4.8,4.5l4.2,5.1h6.5l-4.6-9.3L287.8,104.8z"/>
	<path class="st2" d="M227.7,28.2v-8.6c0-0.5-0.3-0.9-0.9-0.9c-0.6,0-0.9,0.3-0.9,0.9v8.6h1H227.7z"/>
	<path class="st2" d="M226,43.5v5c0.1-0.1,0.3-0.2,0.5-0.2c0.5-0.1,0.8-0.2,1.2-0.5v-4.3H227H226z"/>
	<path class="st2" d="M291.3,69.7v3.1c0.1,0.2,0.2,0.3,0.2,0.6c0.5-0.1,0.9-0.1,1.4-0.1v-3.5c-0.5,0-0.8,0-1.2,0L291.3,69.7z"/>
	<path class="st2" d="M288,67.7c1.2,0.1,2.5,0.2,3.7,0.2c4.1,0,8.2-0.6,12-1.7V49.8c-7.6-2.7-15.9-2.7-23.4,0v11.3
		C283.3,62.9,285.9,65.1,288,67.7z"/>
	<path class="st2" d="M243,67.6c2.2-2.6,4.6-4.8,7.5-6.6V49.7c-7.6-2.7-15.9-2.7-23.4,0v16.4c3.6,1.1,7.5,1.7,11.3,1.7
		C239.9,68,241.4,67.9,243,67.6z"/>
	<path class="st2" d="M289,103.3c3.1,0.6,6.1,0.8,9.2,0.8c5,0,10-0.7,14.7-2V76.7c-4.8-1.5-9.7-2.3-14.7-2.3c-1.9,0-3.9,0.1-5.8,0.3
		C296.3,84.3,295,95.1,289,103.3L289,103.3z"/>
	<path class="st2" d="M238,86.1c0,15.2,12.2,27.4,27.4,27.4c15.2,0,27.4-12.2,27.4-27.4s-12.2-27.4-27.4-27.4l0,0
		C250.4,58.7,238,70.9,238,86.1z M265.4,66c11.1,0,20.1,9,20.1,20.1s-9,20.1-20.1,20.1s-20.1-9-20.1-20.1l0,0
		C245.4,75,254.4,66,265.4,66z"/>
	<path class="st3" d="M265.4,104.5c10.2,0,18.4-8.2,18.4-18.4s-8.2-18.4-18.4-18.4c-10.2,0-18.4,8.2-18.4,18.4l0,0
		C247.1,96.3,255.3,104.5,265.4,104.5z"/>
	<ellipse class="st2" cx="227.1" cy="35.8" rx="16.2" ry="5.9"/>
	<path class="st2" d="M235.1,114.8c0.1,0.3,0.5,0.5,0.8,0.5c0.1,0,0.2,0,0.3-0.1c0.3-0.1,0.5-0.5,0.5-0.8h5.7l4.8-5.7
		c-2-1.7-4-3.7-5.4-5.9l-5.3,10.7l-1-1.9l-7.6-15.1V68.2c-0.3-0.1-0.8-0.2-1.1-0.3c-0.2-0.1-0.3-0.1-0.6-0.2v28.9l-8.8,17.6
		c-0.2,0.5,0,0.9,0.3,1.1c0.5,0.2,0.9,0,1.1-0.3l0,0l0.2-0.3l7.9-15.9L235.1,114.8z"/>
</g>
<g>
	<rect x="89.2" y="123" class="st4" width="36.1" height="36.5"/>
	<g>
		<polygon class="st5" points="107.1,151.1 107.1,151.1 111.3,155.3 115.5,151.1 115.5,151.1 111.3,155.3 		"/>
		<polygon class="st5" points="97.8,142.4 93.6,146.6 93.6,146.6 		"/>
		<path class="st5" d="M94.7,126.5c0,0,0.1,0.2,0.1,0.5c0.5,0.2,0.9,0.7,0.9,1.3c0,0.5-0.2,0.9-0.6,1.1c0,0.2,0,0.3,0,0.5
			c0,0.1-0.1,0.3-0.2,0.3c0,0-0.2,0.1-0.6,0.1l0,0c0.3,0,0.5-0.1,0.6-0.1c0.1-0.1,0.2-0.2,0.2-0.3c0-0.2,0-0.3,0-0.5
			c0.4-0.2,0.6-0.7,0.6-1.1c0-0.6-0.4-1.1-0.9-1.3C94.8,126.7,94.7,126.5,94.7,126.5c0-0.2-0.2-0.3-0.4-0.3l0,0
			C94.5,126.2,94.7,126.3,94.7,126.5z"/>
		<polygon class="st5" points="100.6,139 102,137.6 99.9,135.5 102,137.6 		"/>
		<polygon class="st5" points="99.9,144.5 102,146.6 97.8,150.8 102,146.6 		"/>
		<polygon class="st5" points="120,146.6 115.8,142.4 115.8,142.4 120,146.6 115.8,150.8 115.8,150.8 		"/>
		<polygon class="st5" points="107.1,142.1 111.3,137.9 115.5,142.1 115.5,142.1 111.3,137.9 		"/>
		<polygon class="st5" points="106.5,151.1 102.3,146.9 102.3,146.9 106.5,151.1 102.3,155.3 102.3,155.3 		"/>
		<path class="st5" d="M102.6,146.6l2.5,2.5L102.6,146.6z"/>
		<path class="st5" d="M115.4,130c-0.2,0-0.4-0.2-0.4-0.4s0.2-0.4,0.4-0.4c-0.2,0-0.4,0.2-0.4,0.4S115.2,130,115.4,130z"/>
		<path class="st5" d="M115.4,127.6c-0.2,0-0.4-0.2-0.4-0.4c0-0.2,0.1-0.3,0.3-0.4c-0.2,0.1-0.3,0.2-0.3,0.4
			S115.2,127.6,115.4,127.6z"/>
		<path class="st5" d="M115.4,128c0.4,0,0.8-0.3,0.9-0.7C116.2,127.7,115.8,128,115.4,128z"/>
		<path class="st5" d="M93.7,127.1c0.1,0,0.1-0.1,0.2-0.1C93.8,127.1,93.7,127.1,93.7,127.1z"/>
		<polygon class="st5" points="119.3,130.4 119.3,130.4 119.7,130 119.3,128.5 119.3,128.5 119.7,130 		"/>
		<path class="st5" d="M115.4,130.4c0.4,0,0.8-0.3,0.9-0.7C116.2,130.1,115.8,130.4,115.4,130.4z"/>
		<path class="st5" d="M98.8,129.4c0,0.3-0.1,0.5-0.1,0.5c0,0.2,0.1,0.4,0.3,0.4l0,0h0.1H99l0,0c-0.2-0.1-0.3-0.2-0.3-0.4
			C98.7,129.9,98.8,129.7,98.8,129.4c-0.3-0.2-0.5-0.6-0.5-1.1c0-0.6,0.4-1.2,1-1.3c0-0.1,0.1-0.3,0.1-0.5c0-0.1,0.2-0.2,0.3-0.3
			c0,0,0.1,0,0.2,0c-0.1,0-0.2,0-0.2,0c-0.1,0-0.2,0.1-0.3,0.3c-0.1,0.1-0.1,0.3-0.1,0.5c-0.6,0.1-1,0.7-1,1.3
			C98.3,128.8,98.5,129.1,98.8,129.4z"/>
		<polygon class="st5" points="102.6,137.6 106.8,141.8 106.8,141.8 102.6,137.6 106.8,133.4 106.8,133.4 		"/>
		<path class="st5" d="M105.7,127.4c0.2,0.2,0.4,0.6,0.4,0.9C106.1,127.9,105.9,127.6,105.7,127.4z"/>
		<path class="st5" d="M109.2,129.5c0,0.3,0,0.5,0,0.5c0,0.1,0.1,0.3,0.2,0.3c0.2,0.1,0.3,0.1,0.5,0.1l0,0c-0.2,0-0.4,0-0.5-0.1
			s-0.2-0.2-0.2-0.3S109.2,129.7,109.2,129.5c-0.4-0.2-0.6-0.7-0.6-1.1c0-0.6,0.3-1.1,0.8-1.3c0-0.2,0.1-0.4,0.1-0.5
			s0.2-0.3,0.4-0.3l0,0c-0.2,0-0.3,0.1-0.4,0.3c-0.1,0.2-0.1,0.4-0.1,0.5c-0.5,0.2-0.8,0.7-0.8,1.3
			C108.5,128.8,108.8,129.2,109.2,129.5z"/>
		<path class="st5" d="M103.5,129c-0.1-0.2-0.2-0.4-0.2-0.7C103.3,128.6,103.4,128.8,103.5,129z"/>
		<polygon class="st5" points="115.8,133.4 115.8,133.4 120,137.6 115.8,141.8 115.8,141.8 120,137.6 		"/>
		<polygon class="st5" points="98.2,133.2 98.2,133.2 102.3,137.3 102.3,137.3 		"/>
		<polygon class="st5" points="107.2,133.2 107.2,133.2 111.3,137.3 111.3,137.3 		"/>
		<polygon class="st5" points="93.3,137.3 93.3,137.3 90,134.1 		"/>
		<polygon class="st5" points="102.3,146.3 102.3,146.3 98.1,142.1 102.3,137.9 102.3,137.9 98.1,142.1 		"/>
		
			<rect x="112.8" y="134.7" transform="matrix(0.7071 -0.7071 0.7071 0.7071 -63.4224 122.1765)" class="st5" width="5.9" height="5.9"/>
		
			<rect x="112.8" y="143.7" transform="matrix(0.7071 -0.7071 0.7071 0.7071 -69.788 124.8016)" class="st5" width="5.9" height="5.9"/>
		
			<rect x="108.3" y="139.2" transform="matrix(0.7071 -0.7071 0.7071 0.7071 -67.925 120.2995)" class="st5" width="5.9" height="5.9"/>
		
			<rect x="99.3" y="139.2" transform="matrix(0.7071 -0.7071 0.7071 0.7071 -70.5606 113.9343)" class="st5" width="5.9" height="5.9"/>
		<polygon class="st5" points="90,143.7 90,149.6 93,146.6 		"/>
		
			<rect x="103.8" y="134.7" transform="matrix(0.7071 -0.7071 0.7071 0.7071 -66.0602 115.7992)" class="st5" width="5.9" height="5.9"/>
		
			<rect x="108.3" y="148.2" transform="matrix(0.7071 -0.7071 0.7071 0.7071 -74.29 122.937)" class="st5" width="5.9" height="5.9"/>
		<polygon class="st5" points="99.9,144.5 97.8,142.4 93.6,146.6 97.8,150.8 102,146.6 		"/>
		<polygon class="st5" points="106.8,142.4 102.6,146.6 105.1,149.1 106.8,150.8 111,146.6 		"/>
		<path class="st5" d="M122.9,121.9H91.6c-2.2,0-3.9,1.8-3.9,3.9v31.4c0,2.2,1.8,3.9,3.9,3.9H123c2.2,0,3.9-1.8,3.9-3.9v-31.4
			C126.9,123.7,125.1,121.9,122.9,121.9z M124.9,133.2v24c0,1.1-0.9,2-2,2H91.6c-1.1,0-2-0.9-2-2v-24v-7.3c0-1.1,0.9-2,2-2H123
			c1.1,0,2,0.9,2,2L124.9,133.2L124.9,133.2z"/>
		<polygon class="st5" points="97.5,142.1 93.3,137.9 90,141.2 90,143.1 93.3,146.3 		"/>
		<polygon class="st5" points="90,134.7 90,140.5 93,137.6 		"/>
		<polygon class="st5" points="97.5,151.1 93.3,146.9 90,150.2 90,152.1 93.3,155.3 		"/>
		
			<rect x="99.3" y="148.2" transform="matrix(0.7071 -0.7071 0.7071 0.7071 -76.9252 116.572)" class="st5" width="5.9" height="5.9"/>
		<polygon class="st5" points="97.8,141.8 100.6,139 102,137.6 99.9,135.5 97.8,133.4 93.6,137.6 		"/>
		<polygon class="st5" points="116.1,151.1 120.3,155.3 124.5,151.1 124.5,151.1 120.3,146.9 		"/>
		<polygon class="st5" points="124.5,150.5 124.5,142.8 120.6,146.6 		"/>
		<polygon class="st5" points="116.1,142.1 120.3,146.3 124.5,142.1 124.5,142.1 120.3,137.9 		"/>
		<path class="st5" d="M117.5,158.8h5.5c0.1,0,0.1,0,0.1,0l-2.8-2.8L117.5,158.8z"/>
		<path class="st5" d="M123.6,158.6c0.5-0.2,0.9-0.8,0.9-1.4v-5.5l-3.9,3.9L123.6,158.6z"/>
		<path class="st5" d="M90,152.7v4.5c0,0.4,0.1,0.7,0.4,1l2.6-2.6L90,152.7z"/>
		<polygon class="st5" points="90,133.2 90,134.1 93.3,137.3 97.4,133.2 97.4,133.2 98.1,133.2 98.1,133.2 102.3,137.3 106.4,133.2 
			106.4,133.2 107.2,133.2 107.2,133.2 111.3,137.3 115.4,133.2 116.2,133.2 120.3,137.3 124.5,133.1 124.5,132.7 90,132.7 		"/>
		<polygon class="st5" points="124.5,141.5 124.5,133.7 120.6,137.6 		"/>
		<polygon class="st5" points="97.8,151.4 93.6,155.6 96.7,158.8 98.8,158.8 102,155.6 		"/>
		<polygon class="st5" points="115.8,151.4 111.6,155.6 114.7,158.8 116.9,158.8 120,155.6 		"/>
		<path class="st5" d="M90.7,158.5c0.2,0.2,0.5,0.3,0.8,0.3H96l-2.8-2.8L90.7,158.5z"/>
		<polygon class="st5" points="99.5,158.8 105.1,158.8 102.3,155.9 		"/>
		<polygon class="st5" points="108.5,158.8 114.1,158.8 111.3,155.9 		"/>
		<polygon class="st5" points="106.8,151.4 102.6,155.6 105.7,158.8 107.9,158.8 111,155.6 		"/>
		<path class="st5" d="M93.6,129.5c0,0.3,0,0.5,0,0.5c0,0.1,0.1,0.3,0.2,0.3c0.2,0.1,0.3,0.1,0.5,0.1l0,0c0.3,0,0.5-0.1,0.6-0.1
			c0.1-0.1,0.2-0.2,0.2-0.3c0-0.2,0-0.3,0-0.5c0.4-0.2,0.6-0.7,0.6-1.1c0-0.6-0.4-1.1-0.9-1.3c-0.1-0.3-0.1-0.5-0.1-0.5
			c0-0.2-0.2-0.3-0.4-0.3l0,0l0,0c-0.2,0-0.3,0.1-0.4,0.3s-0.1,0.4-0.1,0.5l0,0c-0.1,0-0.1,0.1-0.2,0.1c-0.4,0.2-0.7,0.7-0.7,1.2
			C93,128.8,93.3,129.2,93.6,129.5z"/>
		<path class="st5" d="M99.4,126.5c-0.1,0.1-0.1,0.3-0.1,0.5c-0.6,0.1-1,0.7-1,1.3c0,0.4,0.2,0.8,0.5,1.1c0,0.3-0.1,0.5-0.1,0.5
			c0,0.2,0.1,0.4,0.3,0.4l0,0h0.1c0.1,0,0.3-0.1,0.3-0.2c0.1-0.2,0.2-0.3,0.3-0.5c0.7-0.1,1.3-0.6,1.3-1.4c0-0.3-0.1-0.6-0.3-0.9
			c0.1-0.3,0.2-0.4,0.2-0.5s0-0.3-0.1-0.4s-0.3-0.2-0.5-0.3c-0.1-0.1-0.3-0.1-0.4-0.1s-0.2,0-0.2,0
			C99.6,126.3,99.5,126.4,99.4,126.5z"/>
		<path class="st5" d="M103.7,130.2c0.3,0.1,0.5,0.1,0.6,0.1s0.3-0.1,0.3-0.2c0.1-0.1,0.1-0.3,0.2-0.4c0.7-0.1,1.2-0.6,1.2-1.4
			c0-0.4-0.2-0.7-0.4-0.9c0.1-0.3,0.1-0.5,0.1-0.5c0-0.2,0-0.4-0.2-0.4l0,0c-0.2-0.1-0.4,0-0.5,0.1s-0.2,0.3-0.3,0.4h-0.1
			c-0.8,0-1.4,0.6-1.4,1.4c0,0.2,0.1,0.5,0.2,0.7c-0.1,0.2-0.2,0.4-0.2,0.4c-0.1,0.1-0.1,0.3,0,0.4
			C103.4,130,103.6,130.1,103.7,130.2z"/>
		<path class="st5" d="M109.5,126.5c0,0.2-0.1,0.4-0.1,0.5c-0.5,0.2-0.8,0.7-0.8,1.3c0,0.5,0.2,0.9,0.6,1.1c0,0.3,0,0.5,0,0.5
			c0,0.1,0.1,0.3,0.2,0.3c0.2,0.1,0.3,0.1,0.5,0.1l0,0c0.3,0,0.5-0.1,0.6-0.1c0.1-0.1,0.2-0.2,0.2-0.3c0-0.2,0-0.3,0-0.5
			c0.4-0.2,0.6-0.7,0.6-1.1c0-0.6-0.4-1.1-0.9-1.3c-0.1-0.3-0.1-0.5-0.1-0.5c0-0.2-0.2-0.3-0.4-0.3l0,0l0,0
			C109.7,126.2,109.5,126.3,109.5,126.5z"/>
		<path class="st5" d="M115.4,128c0.4,0,0.8-0.3,0.9-0.7c0-0.1,0-0.1,0-0.2c0-0.5-0.4-0.9-0.9-0.9s-0.9,0.4-0.9,0.9
			C114.5,127.6,114.9,128,115.4,128z M115.2,126.7c0.1,0,0.1,0,0.2,0c0.2,0,0.4,0.2,0.4,0.4c0,0.2-0.2,0.4-0.4,0.4s-0.4-0.2-0.4-0.4
			C115,127,115.1,126.8,115.2,126.7z"/>
		<path class="st5" d="M115.4,130.4c0.4,0,0.8-0.3,0.9-0.7c0-0.1,0-0.1,0-0.2c0-0.5-0.4-0.9-0.9-0.9s-0.9,0.4-0.9,0.9
			S114.9,130.4,115.4,130.4z M115.4,129.1c0.2,0,0.4,0.2,0.4,0.4s-0.2,0.4-0.4,0.4s-0.4-0.2-0.4-0.4S115.2,129.1,115.4,129.1z"/>
		<polygon class="st5" points="119.3,130.4 121,130.4 121,130.4 121.5,130 121,128.5 121,128.5 119.3,128.5 119.7,130 		"/>
		<rect x="119.3" y="126.3" class="st5" width="1.8" height="1.8"/>
		<path class="st5" d="M119.3,130.4L119.3,130.4L119.3,130.4z"/>
	</g>
</g>
<g>
	<path d="M272.1,157.3l-1.9-45c3.3,4.6,7.6,10.2,13.4,15.1V115c-8.9-9.8-12.8-19.3-13-19.5c-3.7-9.3-32.7-10.7-40.1,5.1
		c-0.4,0.7-8.9,19.7-5.6,48.5c0.2,2.3,2.1,4.2,4.1,4.2c2.5,0,4.5-2.5,4.1-5.3c-1.6-13.5-0.2-24.4,1.4-31.8l8,45.3
		c0.2,0.7,0.8,1.2,1.4,1.2c-2.3,17-5.8,26-13.2,33.9c-2.5,2.5-2.7,7-0.4,10c2.3,2.8,6.2,3,8.8,0.5c11.7-12.1,15.4-26.5,17.5-46
		l1.2-0.2l-2.3,40.2c-0.2,4,2.7,7.4,6.2,7.4c3.3,0,6-2.8,6.2-6.5c2.5-43.2,2.7-40.6,2.3-43h0.6C271.6,158.6,272.1,158,272.1,157.3z"
		/>
	<ellipse cx="248.2" cy="73.4" rx="12.1" ry="13.7"/>
	<path d="M293.3,123.6c-0.8-0.7-1.6-1.2-2.5-1.9v10.5h0.2c1.4,0,2.7-0.7,3.5-2.1C295.7,128,295.1,125,293.3,123.6z"/>
</g>
<g>
	<g>
		<path class="st6" d="M295.8,35.7l-0.1-0.2c-0.3-0.6-1.1-0.8-1.7-0.5c-0.2,0.1-0.5,0.3-0.6,0.5c-0.1,0-0.2,0-0.3-0.1
			c-0.1-0.2-0.2-0.3-0.3-0.6l-3.1-5.2l-2-3.6c-0.1-0.2-0.3-0.5-0.6-0.7c-0.1-0.1-0.2-0.1-0.3,0c-0.1,0.1-0.1,0.2-0.1,0.3
			s0.1,0.3,0.1,0.5l4.2,7.5c0.5,0.7,0.9,1.5,1.2,2.2c0.3,0.6,0.2,0.8-0.1,1.1c-0.3,0.3-0.7,0.8-1,1.1c-1.8,1.9-3.5,3.9-5.2,5.8
			c-0.2,0.2-0.5,0.5-0.6,0.7l-3.5,4c-0.1,0.1-0.2,0.3-0.5,0.5c-0.2,0.2-0.6,0.3-0.8,0.2l-3.4-0.9l-4.3-1.1c-0.6-1.9-1.5-3.5-2.9-4.5
			c-1.2-0.8-5.8-1.4-7.4-1.2c-1,0.1-1.8,0.3-2.6,0.7l-9.3-6.3L242,30c-0.3-0.2-0.7-0.5-0.9-0.6c-0.1-0.1-0.2,0-0.2,0.2v17.6
			c0,0.2-0.1,0.5-0.2,0.6c-0.1,0.2-0.3,0.3-0.6,0.6l-4.6,4.6c-0.7,0.7-4,3.9-4,3.9c-0.2,0.2-0.5,0.5-0.7,0.7
			c-0.1,0.1-0.2,0.2-0.3,0.5c0,0.1,0,0.1,0,0.2s0,0.1,0.1,0.2c0.1,0,0.1,0,0.2,0c0.1-0.1,0.2-0.2,0.5-0.3l1.4-1.4l1.8-1.8
			c0,0,1.6-1.5,1.6-1.6l0.1-0.1l4.3-4.3c0,0,0,0,0-0.1c0.2-0.2,0.6-0.2,0.7,0c0.3,0.2,0.7,0.2,1,0.2s0.7-0.2,0.9-0.5
			c0.2-0.2,0.2-0.6,0.3-0.8c0-0.3,0-0.7,0-1c0-0.6,0.2-1,0.6-1.4c0.5-0.5,0.8-0.8,1.1-1.1c0.1-0.1,0.2-0.2,0.3-0.5
			c0-0.1,0-0.1,0-0.2c0-0.1-0.2-0.1-0.3-0.1s-0.2,0.1-0.3,0.1l-0.9,0.9c-0.1,0-0.1,0-0.2,0s-0.1-0.1-0.1-0.2v-9.1
			c0-0.2,0-0.5,0.1-0.6c0-0.1,0.1-0.1,0.2-0.1s0.2,0.1,0.3,0.1c0.5,0.2,0.9,0.6,1.2,0.9l12.2,8.4c-2,2.4-2.8,6.2-2.8,10.9
			c0,1.6,0.2,3.1,0.6,4.4c4.6-3.5,16.1-1.5,17.9-1c0.2-1.1,0.3-2.3,0.3-3.4c0-1.6,0-3.2-0.2-4.6l0.5,0.1l5.6,1.5l2.4,0.6h0.2
			c0.2,0,0.5,0,0.6-0.2l1.5-1.6c1.1-1.2,2.3-2.5,3.4-3.7c0.2-0.2,0.5-0.6,0.7-0.8c0.5-0.6,0.9-1,1.4-1.6c1.2-1.4,2.6-2.7,3.7-4.2
			c0.2-0.3,0.6-0.6,0.8-0.9c0.1,0,0.1-0.1,0.2-0.1c0.1-0.1,0.2-0.1,0.3,0c0.2,0.2,0.3,0.5,0.6,0.7c0.1,0.1,0.2,0.1,0.3,0.1
			s0.2-0.1,0.2-0.2c0-0.1-0.1-0.2-0.1-0.3c-0.1-0.2-0.3-0.5-0.5-0.8c-0.1-0.2-0.1-0.5,0-0.6c0.2-0.2,0.5-0.5,0.6-0.7
			c0.1-0.1,0.2-0.3,0.3-0.6C295.9,36.3,295.9,36,295.8,35.7z"/>
		<path class="st6" d="M256.1,28"/>
		<circle class="st6" cx="267.2" cy="30.5" r="9.9"/>
	</g>
	<path class="st6" d="M257.2,26.4"/>
</g>
<path class="st6" d="M251.1,21.3"/>
<path class="st6" d="M268.1,21.4"/>
<g>
	<rect x="387.2" y="108.5" class="st4" width="33" height="44.9"/>
	<g>
		<g>
			<path class="st5" d="M415.8,115.9c-1.3,0-2.4-1.1-2.4-2.4s1.1-2.4,2.4-2.4s2.4,1.1,2.4,2.4C418.2,114.9,417.1,115.9,415.8,115.9z
				 M415.8,111.5c-1.1,0-2,0.9-2,2s0.9,2,2,2s2-0.9,2-2S416.9,111.5,415.8,111.5z"/>
		</g>
		<circle class="st5" cx="410.3" cy="113.7" r="1.1"/>
		<g>
			<path class="st5" d="M401.1,110.7c-0.3,0-0.5,0.2-0.5,0.5v4.5c0,0.3,0.2,0.5,0.5,0.5s0.5-0.2,0.5-0.5v-4.5
				C401.6,111,401.4,110.7,401.1,110.7z M401.1,110.9c0.2,0,0.3,0.1,0.3,0.3v1.4h-0.6v-1.4C400.8,111.1,401,110.9,401.1,110.9z
				 M401.1,116c-0.2,0-0.3-0.1-0.3-0.3v-2.8h0.6v2.8C401.4,115.9,401.3,116,401.1,116z"/>
			<path class="st5" d="M404.7,110.7c-0.3,0-0.5,0.2-0.5,0.5v4.5c0,0.3,0.2,0.5,0.5,0.5s0.5-0.2,0.5-0.5v-4.5
				C405.1,111,404.9,110.7,404.7,110.7z M404.7,110.9c0.2,0,0.3,0.1,0.3,0.3v1.3h-0.6v-1.3C404.3,111.1,404.5,110.9,404.7,110.9z
				 M404.7,116c-0.2,0-0.3-0.1-0.3-0.3v-2.8h0.6v2.8C405,115.9,404.8,116,404.7,116z"/>
			<path class="st5" d="M402.9,110.7c-0.3,0-0.5,0.2-0.5,0.5v4.5c0,0.3,0.2,0.5,0.5,0.5s0.5-0.2,0.5-0.5v-4.5
				C403.4,111,403.2,110.7,402.9,110.7z M402.9,110.9c0.2,0,0.3,0.1,0.3,0.3v2.4h-0.6v-2.4C402.6,111.1,402.7,110.9,402.9,110.9z
				 M402.9,116c-0.2,0-0.3-0.1-0.3-0.3v-1.8h0.6v1.8C403.2,115.9,403.1,116,402.9,116z"/>
			<path class="st5" d="M406.4,110.7c-0.3,0-0.5,0.2-0.5,0.5v4.5c0,0.3,0.2,0.5,0.5,0.5s0.5-0.2,0.5-0.5v-4.5
				C406.9,111,406.7,110.7,406.4,110.7z M406.4,110.9c0.2,0,0.3,0.1,0.3,0.3v2.2h-0.6v-2.2C406.1,111.1,406.2,110.9,406.4,110.9z
				 M406.4,116c-0.2,0-0.3-0.1-0.3-0.3v-2h0.6v2C406.7,115.9,406.6,116,406.4,116z"/>
		</g>
		<path class="st5" d="M416.1,112.1l-0.3-0.5l-0.3,0.5c-0.7,0.1-1.2,0.7-1.2,1.5s0.7,1.5,1.5,1.5s1.5-0.7,1.5-1.5
			C417.3,112.9,416.8,112.3,416.1,112.1z"/>
		<g>
			<path class="st5" d="M391.1,114.4c-0.5,0-0.9-0.4-0.9-0.9s0.4-0.9,0.9-0.9s0.9,0.4,0.9,0.9S391.6,114.4,391.1,114.4z
				 M391.1,112.7c-0.4,0-0.8,0.3-0.8,0.8c0,0.4,0.3,0.8,0.8,0.8c0.4,0,0.8-0.3,0.8-0.8C391.8,113.1,391.5,112.7,391.1,112.7z"/>
		</g>
		<path class="st5" d="M391.2,113l-0.1-0.2L391,113c-0.3,0-0.5,0.3-0.5,0.6c0,0.3,0.3,0.6,0.6,0.6c0.3,0,0.6-0.3,0.6-0.6
			S391.5,113,391.2,113z"/>
		<g>
			<path class="st5" d="M393.3,114.4c-0.5,0-0.9-0.4-0.9-0.9s0.4-0.9,0.9-0.9s0.9,0.4,0.9,0.9S393.8,114.4,393.3,114.4z
				 M393.3,112.7c-0.4,0-0.8,0.3-0.8,0.8c0,0.4,0.3,0.8,0.8,0.8c0.4,0,0.8-0.3,0.8-0.8C394,113.1,393.7,112.7,393.3,112.7z"/>
		</g>
		<path class="st5" d="M393.4,113l-0.1-0.2l-0.1,0.2c-0.3,0-0.5,0.3-0.5,0.6c0,0.3,0.3,0.6,0.6,0.6c0.3,0,0.6-0.3,0.6-0.6
			C393.8,113.3,393.6,113,393.4,113z"/>
		<g>
			<path class="st5" d="M395.4,114.4c-0.5,0-0.9-0.4-0.9-0.9s0.4-0.9,0.9-0.9s0.9,0.4,0.9,0.9S395.9,114.4,395.4,114.4z
				 M395.4,112.7c-0.4,0-0.8,0.3-0.8,0.8c0,0.4,0.3,0.8,0.8,0.8s0.8-0.3,0.8-0.8C396.2,113.1,395.9,112.7,395.4,112.7z"/>
		</g>
		<path class="st5" d="M395.5,113l-0.1-0.2l-0.1,0.2c-0.3,0-0.5,0.3-0.5,0.6c0,0.3,0.3,0.6,0.6,0.6c0.3,0,0.6-0.3,0.6-0.6
			S395.8,113,395.5,113z"/>
		<g>
			<path class="st5" d="M397.6,114.4c-0.5,0-0.9-0.4-0.9-0.9s0.4-0.9,0.9-0.9s0.9,0.4,0.9,0.9S398.1,114.4,397.6,114.4z
				 M397.6,112.7c-0.4,0-0.8,0.3-0.8,0.8c0,0.4,0.3,0.8,0.8,0.8c0.4,0,0.8-0.3,0.8-0.8C398.4,113.1,398,112.7,397.6,112.7z"/>
		</g>
		<path class="st5" d="M397.7,113l-0.1-0.2l-0.1,0.2c-0.3,0-0.5,0.3-0.5,0.6c0,0.3,0.3,0.6,0.6,0.6c0.3,0,0.6-0.3,0.6-0.6
			S398,113,397.7,113z"/>
		<path class="st5" d="M421.7,118.5v-8.8h0.3c0.1,0,0.3-0.1,0.3-0.3v-0.9c0-0.9-0.7-1.6-1.6-1.6h-1.4c-0.1,0-0.3,0.1-0.3,0.3v0.4
			h-30.2v-0.4c0-0.1-0.1-0.3-0.3-0.3h-1.4c-0.9,0-1.6,0.7-1.6,1.6v0.9c0,0.1,0.1,0.3,0.3,0.3h0.3v8.8c0,0.5,0.3,0.9,0.8,1
			c-0.4,0.2-0.7,0.6-0.7,1.1v32h-0.4c-0.1,0-0.3,0.1-0.3,0.3v0.9c0,0.9,0.7,1.6,1.6,1.6h1.4c0.1,0,0.3-0.1,0.3-0.3v-0.3H419v0.3
			c0,0.1,0.1,0.3,0.3,0.3h1.4c0.9,0,1.6-0.7,1.6-1.6v-0.9c0-0.1-0.1-0.3-0.3-0.3h-0.4v-32c0-0.5-0.3-0.9-0.7-1.1
			C421.4,119.5,421.7,119,421.7,118.5z M388.4,109.7c0.1,0,0.2-0.1,0.3-0.2h30.2c0,0.1,0.1,0.2,0.3,0.2h0.4v8h-31.5v-8H388.4
			L388.4,109.7z M419.3,151.7l-0.4-0.4l0.4-0.4l0.1,0.1v0.6L419.3,151.7z M419.4,152.3v0.2h-0.3L419.4,152.3L419.4,152.3z
			 M412.1,150.1l-0.4-0.4l0.4-0.4l0.4,0.4L412.1,150.1z M412.3,151.2l-0.1,0.2l-0.1-0.1C412.1,151.3,412.2,151.3,412.3,151.2z
			 M410.8,150.2l-0.4-0.4l0.4-0.4l0.4,0.4L410.8,150.2z M411.1,151.3l-0.2,0.2l-0.2-0.2C410.8,151.3,410.9,151.3,411.1,151.3z
			 M410.2,149.6l-0.4-0.4l0.4-0.4l0.4,0.4L410.2,149.6z M410.4,150.3c-0.1,0-0.2,0-0.3-0.1l0.1-0.1L410.4,150.3z M397.2,150.1
			l-0.4-0.4l0.4-0.4l0.4,0.4L397.2,150.1z M397.4,151.3l-0.1,0.1l-0.1-0.1C397.2,151.3,397.3,151.3,397.4,151.3z M396,150.2
			l-0.4-0.4l0.4-0.4l0.4,0.4L396,150.2z M396.2,151.3l-0.2,0.2l-0.3-0.3C395.9,151.2,396,151.2,396.2,151.3z M395.3,149.6l-0.4-0.4
			l0.4-0.4l0.4,0.4L395.3,149.6z M395.4,150.2h-0.1l0,0H395.4z M388.3,151.8l-0.1-0.1v-0.6l0.1-0.1l0.4,0.4L388.3,151.8z
			 M388.5,152.5h-0.3l0,0l0.1-0.1L388.5,152.5z M388.3,122.6l0.4,0.4l-0.4,0.4l-0.1-0.1v-0.6L388.3,122.6z M388.2,122v-0.2h0.3
			L388.2,122L388.2,122z M389.5,122.5l0.4,0.4l-0.4,0.4l-0.4-0.4L389.5,122.5z M389.3,121.8h0.4l-0.2,0.2L389.3,121.8z M390.8,122.5
			l0.4,0.4l-0.4,0.4l-0.4-0.4L390.8,122.5z M390.7,121.8h0.3l-0.1,0.1L390.7,121.8z M392.1,122.4l0.4,0.4l-0.4,0.4l-0.4-0.4
			L392.1,122.4z M392,121.8h0.2l-0.1,0.1L392,121.8z M404.4,122.5l0.4,0.4l-0.4,0.4l-0.4-0.4L404.4,122.5z M404.2,121.8h0.4
			l-0.2,0.2L404.2,121.8z M405.7,122.5l0.4,0.4l-0.4,0.4l-0.4-0.4L405.7,122.5z M405.5,121.8h0.3l-0.1,0.1L405.5,121.8z M407,122.4
			l0.4,0.4l-0.4,0.4l-0.4-0.4L407,122.4z M406.9,121.8h0.1H406.9L406.9,121.8z M394.6,149l-0.4-0.4l0.4-0.4l0.4,0.4L394.6,149z
			 M394.6,149.5l0.4,0.4l-0.1,0.2c-0.2-0.1-0.4-0.1-0.5-0.2L394.6,149.5z M393.3,149l-0.4-0.4l0.4-0.4l0.4,0.4L393.3,149z
			 M393.4,150.3L393.4,150.3l-0.3-0.2C393.2,150.1,393.3,150.2,393.4,150.3z M394.8,124.9l0.4,0.4l-0.4,0.4l-0.4-0.4L394.8,124.9z
			 M394.8,124.3h0.1H394.8L394.8,124.3z M395.4,124.2l0.4,0.4l-0.4,0.4l-0.4-0.4L395.4,124.2z M395.1,123.3l0.3-0.3l0.2,0.2
			C395.4,123.2,395.3,123.2,395.1,123.3z M396.7,124.2l0.4,0.4l-0.4,0.4l-0.4-0.4L396.7,124.2z M396.6,123l0.1-0.1l0.1,0.1
			C396.7,123,396.6,123,396.6,123z M398,124.1l0.4,0.4l-0.4,0.4l-0.4-0.4L398,124.1z M397.7,123l0.2-0.2l0.4,0.4l0,0
			C398.2,123.1,398,123.1,397.7,123z M409.7,124.9l0.4,0.4l-0.4,0.4l-0.4-0.4L409.7,124.9z M409.6,124.2c0.1,0,0.2-0.1,0.3-0.1
			L409.6,124.2L409.6,124.2z M410.3,124.2l0.4,0.4l-0.4,0.4l-0.4-0.4L410.3,124.2z M410,123.1l0.2-0.2l0.2,0.2
			C410.3,123.1,410.2,123.1,410,123.1z M411.6,124.1l0.4,0.4l-0.4,0.4l-0.4-0.4L411.6,124.1z M411.4,123l0.1-0.1l0.1,0.1
			C411.6,123,411.6,123,411.4,123C411.5,123,411.5,123,411.4,123z M412.9,124.1l0.4,0.4l-0.4,0.4l-0.4-0.4L412.9,124.1z
			 M412.6,123.1l0.3-0.3l0.4,0.4v0.1C413,123.2,412.8,123.1,412.6,123.1z M399.4,125.3l0.4,0.4l-0.4,0.4l-0.4-0.4L399.4,125.3z
			 M399.4,124.8l-0.4-0.4l0.1-0.1c0.2,0.1,0.3,0.2,0.5,0.2L399.4,124.8z M414.2,125.3l0.4,0.4l-0.4,0.4l-0.4-0.4L414.2,125.3z
			 M414.2,124.8l-0.4-0.4l0,0c0.2,0.1,0.3,0.2,0.5,0.3L414.2,124.8z M417.6,141.5l-0.4-0.4l0.4-0.4l0.4,0.4L417.6,141.5z M417.6,142
			l0.4,0.4l-0.4,0.4l-0.1-0.1c0-0.1-0.1-0.3-0.2-0.4L417.6,142z M411.8,142.4l-0.4-0.4l0.4-0.4l0.4,0.4L411.8,142.4z M412,143
			c-0.1,0-0.2,0-0.2,0l0.1-0.1L412,143z M411.2,143C411.2,143,411.1,143,411.2,143l-0.4-0.3l0.4-0.4l0.4,0.4L411.2,143z
			 M411.4,146.8L411.4,146.8h-0.2C411.3,146.8,411.3,146.8,411.4,146.8z M401.6,146.7l-0.4-0.4l0.4-0.4l0.4,0.4L401.6,146.7z
			 M402,146.8c0,0.1,0,0.1-0.1,0.2h-0.1L402,146.8z M396.9,142.4l-0.4-0.4l0.4-0.4l0.4,0.4L396.9,142.4z M397,143h-0.1l0,0H397
			L397,143z M396.3,143.1l-0.4-0.4l0.4-0.4l0.4,0.4L396.3,143.1z M396.6,146.8l-0.1,0.1l-0.2-0.2
			C396.3,146.7,396.5,146.8,396.6,146.8z M413.4,143.9l0.4-0.4l0.4,0.4l-0.4,0.4L413.4,143.9z M413.5,144.5l-0.1,0.1
			c0-0.1,0-0.2-0.1-0.3L413.5,144.5z M409.6,144.8l-0.3,0.3l-0.4-0.4l0.4-0.4l0.3,0.3C409.6,144.7,409.6,144.7,409.6,144.8z
			 M409.6,145.3v0.1V145.3L409.6,145.3z M390.6,132.2l0.4,0.4l-0.4,0.4l-0.4-0.4L390.6,132.2z M390.6,131.7l-0.4-0.4l0.4-0.4
			l0.1,0.1c0,0.1,0.1,0.3,0.1,0.4L390.6,131.7z M390.9,131.9L390.9,131.9c0.1,0,0.2,0.1,0.2,0.2L390.9,131.9z M390.7,133.5l0.4,0.4
			l-0.4,0.4l-0.4-0.4L390.7,133.5z M391.4,129.9l0.4-0.4l0.4,0.4l-0.4,0.4L391.4,129.9z M391.6,130.6L391.6,130.6
			C391.5,130.6,391.5,130.6,391.6,130.6L391.6,130.6z M391.4,129.4L391.4,129.4c0-0.1,0-0.2,0-0.3l0.1,0.1L391.4,129.4z
			 M397.1,131.9l0.4,0.4l-0.4,0.4l-0.4-0.4L397.1,131.9z M397,131.3c0.1,0,0.1,0,0.2,0H397L397,131.3z M397.7,131.2l0.4,0.4
			l-0.4,0.4l-0.4-0.4L397.7,131.2z M397.4,127.5l0.1-0.2l0.4,0.4l0,0C397.7,127.6,397.6,127.6,397.4,127.5z M401.9,128.8l-0.4,0.4
			l-0.4-0.4l0.4-0.4L401.9,128.8z M401.7,128.2l0.4-0.4l0.1,0.1c0,0.2,0.1,0.3,0.1,0.5l-0.2,0.2L401.7,128.2z M403,131.1l0.2,0.2
			l-0.4,0.4l-0.1-0.1C402.9,131.5,403,131.3,403,131.1z M402.9,127.3l0.2,0.1l-0.1,0.1C403,127.5,403,127.4,402.9,127.3z
			 M411.3,131.3L411.3,131.3l0.4,0.4l-0.4,0.4l-0.4-0.4L411.3,131.3z M411,127.5l0.1-0.1l0.1,0.1C411.1,127.5,411.1,127.5,411,127.5
			z M405.1,144.9L405.1,144.9v-0.2C405.1,144.8,405.1,144.9,405.1,144.9L405.1,144.9z M404.8,144.6l-0.4-0.4l0.4-0.4l0.4,0.4
			L404.8,144.6z M403.3,129.2l0.1-0.2l0.4,0.4l-0.4,0.4l-0.2-0.2c0-0.1,0-0.2,0-0.2C403.3,129.3,403.3,129.3,403.3,129.2z
			 M413.8,129.9l0.4,0.4l-0.4,0.4l-0.4-0.4L413.8,129.9z M413.4,129.8c0-0.1,0-0.2,0-0.3l0.1,0.1L413.4,129.8z M412.9,138.5
			l-0.4-0.4l0.4-0.4l0.4,0.4L412.9,138.5z M413,139.6l-0.1,0.1l-0.2-0.2C412.9,139.6,412.9,139.6,413,139.6z M410.9,137.9l-0.4-0.4
			l0.4-0.4l0.4,0.4L410.9,137.9z M411.1,138.5c-0.1,0-0.2,0-0.3,0l0.1-0.1L411.1,138.5z M398,138.5l-0.4-0.4l0.4-0.4l0.4,0.4
			L398,138.5z M398.2,139.6l-0.1,0.2l-0.3-0.2C397.9,139.5,398.1,139.5,398.2,139.6z M397.3,137.8l-0.4-0.4l0.4-0.4l0.4,0.4
			L397.3,137.8z M397.6,138.5c-0.1,0-0.2,0-0.4,0l0.1-0.2L397.6,138.5z M396.1,137.9l-0.4-0.4l0.4-0.4l0.4,0.4L396.1,137.9z
			 M396.2,138.5c-0.1,0-0.2,0-0.3,0l0.1-0.2L396.2,138.5z M395.4,138.6l-0.4-0.4l0.4-0.4l0.4,0.4L395.4,138.6z M395.8,139.5
			l-0.3,0.4l-0.2-0.2C395.4,139.6,395.6,139.5,395.8,139.5z M393.5,139.3l-0.4-0.4l0.4-0.4l0.4,0.4L393.5,139.3z M393.8,140.3
			l-0.2,0.2l0,0C393.6,140.5,393.7,140.4,393.8,140.3z M399.3,138.4l-0.4-0.4l0.4-0.4l0.4,0.4L399.3,138.4z M399.5,139.1
			c-0.1,0-0.1-0.1-0.2-0.1l0.1-0.1L399.5,139.1z M394,135.3l0.4,0.4l-0.4,0.4l-0.4-0.4L394,135.3z M393.9,134L393.9,134l0.2,0.1
			C394,134.1,394,134,393.9,134z M395.1,136.3l-0.4,0.4l-0.4-0.4l0.4-0.4L395.1,136.3z M394.9,135.6l0.1-0.1
			c0.2,0.1,0.4,0.1,0.6,0.1l-0.3,0.3L394.9,135.6z M393.8,136.3l-0.4,0.4l-0.4-0.4l0.4-0.4L393.8,136.3z M393.2,137l-0.4,0.4
			l-0.4-0.4l0.4-0.4L393.2,137z M393.4,137.2l0.4,0.4l-0.4,0.4l-0.4-0.4L393.4,137.2z M393.7,137l0.4-0.4l0.4,0.4l-0.4,0.4
			L393.7,137z M394.7,137.2l0.4,0.4l-0.4,0.4l-0.4-0.4L394.7,137.2z M395,136.9l0.4-0.4l0.4,0.4l-0.4,0.4L395,136.9z M395.6,136.2
			l0.4-0.4l0.4,0.4l-0.4,0.4L395.6,136.2z M395.7,134.7l0.2-0.2l0.3,0.3C396.1,134.8,395.9,134.8,395.7,134.7z M396.6,136.4l0.4,0.4
			l-0.4,0.4l-0.4-0.4L396.6,136.4z M396.4,135.8c0.1,0,0.2,0,0.3,0l-0.1,0.1L396.4,135.8z M396.9,136.2l0.4-0.4l0.4,0.4l-0.4,0.4
			L396.9,136.2z M397.9,136.4l0.4,0.4l-0.4,0.4l-0.4-0.4L397.9,136.4z M397.7,135.7c0.1,0,0.2,0,0.4-0.1l-0.2,0.2L397.7,135.7z
			 M398.5,135.7l0.4,0.4l-0.4,0.4l-0.4-0.4L398.5,135.7z M398.2,134.7l0.2-0.3l0.2,0.1C398.5,134.6,398.4,134.7,398.2,134.7z
			 M399.2,136.3l0.4,0.4l-0.4,0.4l-0.4-0.4L399.2,136.3z M399.2,135.8l-0.4-0.3c0.2-0.1,0.4-0.1,0.6-0.2l0.2,0.1L399.2,135.8z
			 M399.9,136.9l0.4,0.4l-0.4,0.4l-0.4-0.4L399.9,136.9z M400.1,136.7l0.4-0.4l0.4,0.4l-0.4,0.4L400.1,136.7z M399.9,136.4l-0.4-0.4
			l0.4-0.4l0.4,0.4L399.9,136.4z M399.8,135.1L399.8,135.1c0-0.1,0.1-0.1,0.1-0.2L399.8,135.1z M399.8,133.9l-0.4-0.4l0.4-0.4
			l0.4,0.4L399.8,133.9z M399.5,134.1l-0.1,0.1c-0.1,0.1-0.2,0.1-0.3,0.2l-0.3-0.3l0.4-0.4L399.5,134.1z M398.6,137l0.4,0.4
			l-0.4,0.4l-0.4-0.4L398.6,137z M399.9,138.2l0.4,0.4l-0.4,0.4l-0.4-0.4L399.9,138.2z M400.2,138l0.4-0.4l0.4,0.4l-0.4,0.4
			L400.2,138z M400.8,137.3l0.4-0.4l0.4,0.4l-0.4,0.4L400.8,137.3z M401.4,136.6l0.4-0.4l0.4,0.4l-0.4,0.4L401.4,136.6z
			 M401.2,136.4l-0.4-0.4l0.4-0.4l0.4,0.4L401.2,136.4z M400.5,135.8l-0.4-0.4l0.4-0.4l0.4,0.4L400.5,135.8z M400.4,133.2l-0.4-0.4
			l0.4-0.4l0.4,0.4L400.4,133.2z M400.3,131.9l-0.4-0.4l0.4-0.4l0.4,0.4L400.3,131.9z M400.1,132.2l-0.4,0.4l-0.4-0.4l0.4-0.4
			L400.1,132.2z M399.5,132.8l-0.4,0.4l-0.4-0.4l0.4-0.4L399.5,132.8z M398.8,133.5l-0.4,0.4l-0.4-0.4l0.4-0.4L398.8,133.5z
			 M398.2,134.2l-0.4,0.4l-0.4-0.4l0.4-0.4L398.2,134.2z M397.6,134.8c-0.2,0-0.5,0.1-0.7,0.1l0,0l0.4-0.4L397.6,134.8z
			 M396.6,134.6l-0.4-0.4l0.4-0.4l0.4,0.4L396.6,134.6z M395.9,134l-0.4-0.4l0.4-0.4l0.4,0.4L395.9,134z M395.6,134.3l-0.3,0.4h-0.1
			l-0.3-0.3l0.4-0.4L395.6,134.3z M394.6,134.1l-0.4-0.4l0.4-0.4l0.4,0.4L394.6,134.1z M393.9,133.5l-0.4-0.4l0.4-0.4l0.4,0.4
			L393.9,133.5z M393.9,132.2l-0.4-0.4l0.4-0.4l0.4,0.4L393.9,132.2z M393.2,131.6l-0.4-0.4l0.4-0.4l0.4,0.4L393.2,131.6z
			 M393.2,132.1l0.4,0.4l-0.4,0.4l-0.4-0.4L393.2,132.1z M393.3,133.4l0.4,0.4l-0.1,0.1C393.5,133.7,393.3,133.6,393.3,133.4
			L393.3,133.4z M393.3,134.7c0.1,0,0.1,0.1,0.2,0.1l0.2,0.2l-0.4,0.4l-0.4-0.4L393.3,134.7z M393.1,135.7l-0.4,0.4l-0.4-0.4
			l0.4-0.4L393.1,135.7z M392.5,136.4l-0.4,0.4l-0.4-0.4l0.4-0.4L392.5,136.4z M392.1,137.3l0.4,0.4l-0.4,0.4l-0.4-0.4L392.1,137.3z
			 M392.8,137.9l0.4,0.4l-0.4,0.4l-0.4-0.4L392.8,137.9z M393.7,138.3l0.4-0.4l0.4,0.4l-0.4,0.4L393.7,138.3z M394.8,138.5l0.3,0.3
			c-0.2,0.1-0.4,0.1-0.6,0.2l-0.1-0.1L394.8,138.5z M396.7,137.7l0.4,0.4l-0.4,0.4l0,0l-0.4-0.4L396.7,137.7z M398.7,138.3l0.4,0.4
			l-0.2,0.2c-0.2-0.1-0.4-0.1-0.6-0.2L398.7,138.3z M398.6,139.7c0.1,0,0.2,0.1,0.4,0.1l0.1,0.1l-0.4,0.4l-0.4-0.4L398.6,139.7z
			 M399.4,140.2l0.4,0.4l-0.4,0.4l-0.4-0.4L399.4,140.2z M400.1,140.8l0.4,0.4l-0.4,0.4l-0.4-0.4L400.1,140.8z M400.7,141.4l0.4,0.4
			l-0.4,0.4l-0.4-0.4L400.7,141.4z M400.7,139.6l-0.4-0.4l0.4-0.4l0.4,0.4L400.7,139.6z M400.9,138.6l0.4-0.4l0.4,0.4l-0.4,0.4
			L400.9,138.6z M401.5,137.9l0.4-0.4l0.4,0.4l-0.4,0.4L401.5,137.9z M402.1,137.2l0.4-0.4l0.4,0.4l-0.4,0.4L402.1,137.2z
			 M410.8,135.8l0.4,0.4l-0.4,0.4l-0.4-0.4L410.8,135.8z M410.5,134.8l0.2-0.3l0.4,0.3C410.9,134.9,410.7,134.8,410.5,134.8z
			 M411.5,136.4l0.4,0.4l-0.4,0.4l-0.4-0.4L411.5,136.4z M411.3,135.8c0.1,0,0.1,0,0.2,0h0.1l-0.1,0.1L411.3,135.8z M412.8,136.4
			l0.4,0.4l-0.4,0.4l-0.4-0.4L412.8,136.4z M412.6,135.7c0.1,0,0.3-0.1,0.4-0.1l-0.2,0.3L412.6,135.7z M413.4,135.7l0.4,0.4
			l-0.4,0.4l-0.4-0.4L413.4,135.7z M413.2,134.6l0.2-0.2l0.1,0.1C413.4,134.5,413.3,134.6,413.2,134.6z M414.5,131.8l0.4,0.4
			l-0.4,0.4l-0.4-0.4L414.5,131.8z M414.5,131.3l-0.4-0.4l0.4-0.4l0.4,0.4L414.5,131.3z M414.1,136.3l0.4,0.4l-0.4,0.4l-0.4-0.4
			L414.1,136.3z M414.1,135.8l-0.4-0.4l0,0c0.2-0.1,0.3-0.1,0.5-0.2l0.2,0.2L414.1,135.8z M413.9,137.4l-0.4,0.4l-0.4-0.4l0.4-0.4
			L413.9,137.4z M414.2,137.6l0.4,0.4l-0.4,0.4l-0.4-0.4L414.2,137.6z M414.2,138.9l0.4,0.4l0,0c-0.2-0.1-0.3-0.2-0.5-0.2
			L414.2,138.9z M414.5,138.6l0.4-0.4l0.4,0.4l-0.4,0.4L414.5,138.6z M414.8,137.7l-0.4-0.4l0.4-0.4l0.4,0.4L414.8,137.7z
			 M414.7,136.4l-0.4-0.4l0.4-0.4l0.4,0.4L414.7,136.4z M414.7,135.1l-0.1-0.1c0.2-0.1,0.3-0.2,0.5-0.3l0,0L414.7,135.1z
			 M414.6,133.8l-0.4-0.4l0.4-0.4l0.4,0.4L414.6,133.8z M414.3,132.8l-0.4,0.4l-0.4-0.4l0.4-0.4L414.3,132.8z M414,133.7l0.4,0.3
			c-0.2,0.1-0.3,0.2-0.5,0.3l-0.2-0.2L414,133.7z M412.2,136.5l-0.4-0.4l0.4-0.4l0.4,0.4L412.2,136.5z M407.7,138.7l-0.4-0.4
			l0.4-0.4l0.4,0.4L407.7,138.7z M407.8,139.2l0.3,0.3c-0.2,0.1-0.3,0.2-0.5,0.3l-0.2-0.2L407.8,139.2z M408.9,135.3l0.4,0.4
			l-0.4,0.4l-0.4-0.4L408.9,135.3z M408.7,134.1l0.1-0.1l0.4,0.4l0,0C409,134.3,408.9,134.2,408.7,134.1z M409.9,136.2l-0.4,0.4
			l-0.4-0.4l0.4-0.4L409.9,136.2z M409.8,135.6L409.8,135.6c0.2,0,0.5,0.1,0.7,0.1l-0.3,0.3L409.8,135.6z M408.7,136.3l-0.4,0.4
			l-0.4-0.4l0.4-0.4L408.7,136.3z M408,137l-0.4,0.4l-0.4-0.4l0.4-0.4L408,137z M407.4,137.6L407,138l-0.4-0.4l0.4-0.4L407.4,137.6z
			 M407.9,137.6l0.4-0.4l0.4,0.4l-0.4,0.4L407.9,137.6z M408.6,136.9l0.4-0.4l0.4,0.4l-0.4,0.4L408.6,136.9z M409.6,137.2l0.4,0.4
			l-0.4,0.4l-0.4-0.4L409.6,137.2z M409.8,136.9l0.4-0.4l0.4,0.4l-0.4,0.4L409.8,136.9z M410.1,134.7l-0.4-0.4l0.4-0.4l0.4,0.4
			L410.1,134.7z M409.5,134.1l-0.4-0.4l0.4-0.4l0.4,0.4L409.5,134.1z M408.8,133.5l-0.4-0.4l0.4-0.4l0.4,0.4L408.8,133.5z
			 M408.5,133.7l-0.2,0.2c-0.1-0.1-0.3-0.2-0.4-0.3l0.2-0.2L408.5,133.7z M408.7,132.2l-0.4-0.4l0.4-0.4l0.4,0.4L408.7,132.2z
			 M408.1,131.5l-0.4-0.4l0.4-0.4l0.4,0.4L408.1,131.5z M408.1,132l0.4,0.4l-0.4,0.4l-0.4-0.4L408.1,132z M407.9,133.1l-0.2,0.2
			c-0.1-0.1-0.3-0.3-0.4-0.4l0.2-0.2L407.9,133.1z M408.1,134.8c0.2,0.1,0.3,0.2,0.5,0.3l-0.3,0.4l-0.4-0.4L408.1,134.8z M408,135.7
			l-0.4,0.4l-0.4-0.4l0.4-0.4L408,135.7z M407.4,136.4l-0.4,0.4l-0.4-0.4l0.4-0.4L407.4,136.4z M406.8,137l-0.4,0.4L406,137l0.4-0.4
			L406.8,137z M405.7,136.8l-0.4-0.4l0.4-0.4l0.4,0.4L405.7,136.8z M404.2,137.1l-0.4,0.4l-0.4-0.4l0.4-0.4L404.2,137.1z M404,136.5
			l0.4-0.4l0.4,0.4l-0.4,0.4L404,136.5z M404.4,137.4l0.4,0.4l-0.4,0.4l-0.4-0.4L404.4,137.4z M404.7,137.1l0.4-0.4l0.4,0.4
			l-0.4,0.4L404.7,137.1z M405,136.2l-0.4-0.4l0.4-0.4l0.4,0.4L405,136.2z M404.4,135.6l-0.4-0.4l0.4-0.4l0.4,0.4L404.4,135.6z
			 M404.1,135.9l-0.4,0.4l-0.4-0.4l0.4-0.4L404.1,135.9z M403.5,136.5l-0.4,0.4l-0.4-0.4l0.4-0.4L403.5,136.5z M403.1,137.4l0.4,0.4
			l-0.4,0.4l-0.4-0.4L403.1,137.4z M403.8,138.1l0.4,0.4l-0.4,0.4l-0.4-0.4L403.8,138.1z M404.5,138.7l0.4,0.4l-0.4,0.4l-0.4-0.4
			L404.5,138.7z M404.7,138.4l0.4-0.4l0.4,0.4l-0.4,0.4L404.7,138.4z M405.4,137.7l0.4-0.4l0.4,0.4l-0.4,0.4L405.4,137.7z
			 M406.4,138l0.4,0.4l-0.4,0.4l-0.4-0.4L406.4,138z M407.1,138.6l0.4,0.4l-0.4,0.4l-0.4-0.4L407.1,138.6z M407.6,141.5l-0.4,0.4
			l-0.2-0.2c0.1-0.1,0.2-0.3,0.3-0.4L407.6,141.5z M407.9,141.8l0.4,0.4l-0.4,0.4l-0.4-0.4L407.9,141.8z M407.8,141.3l-0.2-0.2
			c0.1-0.1,0.3-0.3,0.4-0.4l0.2,0.2L407.8,141.3z M408,138.9l0.4-0.4l0.4,0.4l-0.4,0.4L408,138.9z M408.8,140.1L408.8,140.1
			l-0.3,0.4l-0.1-0.1C408.5,140.3,408.6,140.2,408.8,140.1z M408.6,138.2l0.4-0.4l0.4,0.4l-0.4,0.4L408.6,138.2z M409.7,138.5
			l0.3,0.2c-0.2,0-0.4,0.1-0.6,0.2l0,0L409.7,138.5z M409.9,138.2l0.4-0.4l0.4,0.4l-0.4,0.4L409.9,138.2z M411.6,137.7l0.4,0.4
			l-0.4,0.4l-0.4-0.4L411.6,137.7z M411.8,137.4l0.4-0.4l0.4,0.4l-0.4,0.4L411.8,137.4z M412.2,138.4l0.2,0.2c-0.1,0-0.3,0-0.4,0
			L412.2,138.4z M413.5,138.3l0.4,0.4l-0.2,0.2c-0.2-0.1-0.3-0.1-0.5-0.2l0,0L413.5,138.3z M413.4,139.8c0.2,0.1,0.4,0.1,0.5,0.2
			l-0.3,0.4l-0.4-0.4L413.4,139.8z M414.3,140.2l0.4,0.4l-0.4,0.4l-0.4-0.4L414.3,140.2z M414.9,140.8l0.4,0.4l-0.4,0.4l-0.4-0.4
			L414.9,140.8z M415,142.1l0.4,0.4l-0.4,0.4l-0.4-0.4L415,142.1z M415.2,141.8l0.4-0.4l0.4,0.4l-0.4,0.4L415.2,141.8z M415.5,139.6
			l-0.4-0.4l0.4-0.4l0.4,0.4L415.5,139.6z M415.5,138.3l-0.4-0.4l0.4-0.4l0.4,0.4L415.5,138.3z M415.4,137l-0.4-0.4l0.4-0.4l0.4,0.4
			L415.4,137z M415.4,135.7l-0.4-0.4l0.4-0.4l0.4,0.4L415.4,135.7z M415.2,133.2l-0.4-0.4l0.4-0.4l0.4,0.4L415.2,133.2z
			 M415.2,131.9l-0.4-0.4l0.4-0.4l0.4,0.4L415.2,131.9z M415.4,130.8l0.4-0.4l0.4,0.4l-0.4,0.4L415.4,130.8z M415.1,130.6l-0.4-0.4
			l0.4-0.4l0.4,0.4L415.1,130.6z M414.5,130l-0.4-0.4l0.4-0.4l0.4,0.4L414.5,130z M413.9,131.2l0.4,0.4l-0.4,0.4l-0.4-0.4
			L413.9,131.2z M413.6,132.2l-0.4,0.4l-0.4-0.4l0.4-0.4L413.6,132.2z M413.3,133.1l0.4,0.4l-0.4,0.4l-0.4-0.4L413.3,133.1z
			 M413.1,134.2l-0.4,0.4l-0.4-0.4l0.4-0.4L413.1,134.2z M412.4,134.8c-0.2,0-0.5,0.1-0.7,0.1l0.4-0.4L412.4,134.8z M411.4,134.6
			l-0.4-0.4l0.4-0.4l0.4,0.4L411.4,134.6z M410.8,134l-0.4-0.4l0.4-0.4l0.4,0.4L410.8,134z M410.1,133.4l-0.4-0.4l0.4-0.4l0.4,0.4
			L410.1,133.4z M409.4,132.8l-0.4-0.4l0.4-0.4l0.4,0.4L409.4,132.8z M409.4,131.5l-0.4-0.4l0.4-0.4l0.4,0.4L409.4,131.5z
			 M408.7,130.9l-0.4-0.4l0.4-0.4l0.4,0.4L408.7,130.9z M408,130.2l-0.4-0.4l0.4-0.4l0.4,0.4L408,130.2z M407.8,130.5l-0.4,0.4
			l-0.4-0.4l0.4-0.4L407.8,130.5z M407.4,131.4l0.4,0.4l-0.4,0.4l-0.4-0.4L407.4,131.4z M407.2,132.5l-0.1,0.1
			c-0.1-0.1-0.2-0.3-0.3-0.5l0,0L407.2,132.5z M407.3,134.2c0.1,0.1,0.3,0.2,0.4,0.3l-0.2,0.2l-0.4-0.4L407.3,134.2z M407.3,135.1
			l-0.4,0.4l-0.4-0.4l0.4-0.4L407.3,135.1z M406.7,135.7l-0.4,0.4l-0.4-0.4l0.4-0.4L406.7,135.7z M405.7,135.5l-0.4-0.4l0.4-0.4
			l0.4,0.4L405.7,135.5z M405,134.9l-0.4-0.4l0.4-0.4l0.4,0.4L405,134.9z M404.3,134.3l-0.4-0.4l0.4-0.4l0.4,0.4L404.3,134.3z
			 M404.2,133l-0.4-0.4l0.4-0.4l0.4,0.4L404.2,133z M404.2,131.7l-0.4-0.4l0.4-0.4l0.4,0.4L404.2,131.7z M404.1,130.4l-0.4-0.4
			l0.4-0.4l0.4,0.4L404.1,130.4z M404.4,130.7l0.4-0.4l0.4,0.4l-0.4,0.4L404.4,130.7z M405,130l0.1-0.1c0,0.1,0,0.1,0,0.2L405,130z
			 M405.1,128.8l-0.1-0.1l0.2-0.2C405.1,128.6,405.1,128.7,405.1,128.8z M405.1,129.3C405.1,129.3,405.1,129.4,405.1,129.3l-0.4,0.4
			l-0.4-0.4l0.4-0.4L405.1,129.3z M404.1,129.1l-0.4-0.4l0.4-0.4l0.4,0.4L404.1,129.1z M403.5,130.3l0.4,0.4l-0.4,0.4l-0.4-0.4l0,0
			L403.5,130.3z M403.5,131.6l0.4,0.4l-0.4,0.4l-0.4-0.4L403.5,131.6z M403.6,132.9l0.4,0.4l-0.4,0.4l-0.4-0.4L403.6,132.9z
			 M403.6,134.2l0.4,0.4l-0.4,0.4l-0.4-0.4L403.6,134.2z M403.4,135.2l-0.4,0.4l-0.4-0.4l0.4-0.4L403.4,135.2z M402.8,135.9
			l-0.4,0.4l-0.4-0.4l0.4-0.4L402.8,135.9z M401.8,135.7l-0.4-0.4l0.4-0.4l0.4,0.4L401.8,135.7z M401.1,135.1l-0.4-0.4l0.4-0.4
			l0.4,0.4L401.1,135.1z M401,132.5l-0.4-0.4l0.4-0.4l0.4,0.4L401,132.5z M400.9,131.2l-0.4-0.4l0.4-0.4l0.4,0.4L400.9,131.2z
			 M400.9,129.9l-0.4-0.4l0.4-0.4l0.4,0.4L400.9,129.9z M400.6,130.2l-0.4,0.4l-0.4-0.4l0.4-0.4L400.6,130.2z M399.6,130l-0.4-0.4
			l0.4-0.4l0.4,0.4L399.6,130z M399.6,130.5l0.4,0.4l-0.4,0.4l-0.4-0.4L399.6,130.5z M399.4,131.5l-0.4,0.4l-0.4-0.4l0.4-0.4
			L399.4,131.5z M398.8,132.2l-0.4,0.4l-0.4-0.4l0.4-0.4L398.8,132.2z M398.2,132.9l-0.4,0.4l-0.4-0.4l0.4-0.4L398.2,132.9z
			 M397.5,133.6l-0.4,0.4l-0.4-0.4l0.4-0.4L397.5,133.6z M396.5,133.4l-0.4-0.4l0.4-0.4l0.4,0.4L396.5,133.4z M395.8,132.7l-0.4-0.4
			l0.4-0.4l0.4,0.4L395.8,132.7z M395.6,133l-0.4,0.4l-0.4-0.4l0.4-0.4L395.6,133z M394.5,132.8l-0.4-0.4l0.4-0.4l0.4,0.4
			L394.5,132.8z M394.5,131.5l-0.4-0.4l0.4-0.4l0.4,0.4L394.5,131.5z M394.4,130.2l-0.4-0.4l0.4-0.4l0.4,0.4L394.4,130.2z
			 M394.2,130.5l-0.4,0.4l-0.4-0.4l0.4-0.4L394.2,130.5z M393.1,130.3l-0.4-0.4l0.4-0.4l0.4,0.4L393.1,130.3z M392.9,130.5l-0.4,0.4
			l-0.4-0.4l0.4-0.4L392.9,130.5z M392.5,131.5l0.4,0.4l-0.4,0.4l-0.4-0.4L392.5,131.5z M392.6,132.7l0.4,0.4l-0.1,0.1
			C392.8,133.1,392.7,132.9,392.6,132.7L392.6,132.7z M392.6,134.1c0.1,0.1,0.3,0.2,0.4,0.4l-0.3,0.3l-0.4-0.4L392.6,134.1z
			 M392.4,135.1l-0.4,0.4l-0.4-0.4l0.4-0.4L392.4,135.1z M391.8,135.8l-0.4,0.4l-0.4-0.4l0.4-0.4L391.8,135.8z M391.5,136.7l0.4,0.4
			l-0.4,0.4l-0.4-0.4L391.5,136.7z M391.5,138l0.4,0.4l-0.4,0.4l-0.4-0.4L391.5,138z M392.2,138.6l0.4,0.4l-0.4,0.4l-0.4-0.4
			L392.2,138.6z M392.9,139.2l0.4,0.4l-0.1,0.1c-0.1,0.1-0.2,0.2-0.3,0.3l-0.4-0.3L392.9,139.2z M393.3,140.9l-0.4,0.4l-0.1-0.1
			C393,141,393.1,140.9,393.3,140.9L393.3,140.9z M392.7,141.5l-0.4,0.4l-0.1-0.1c0.1-0.1,0.2-0.3,0.3-0.4L392.7,141.5z M393,141.8
			l0.4,0.4l-0.4,0.4l-0.4-0.4L393,141.8z M393.1,143.1l0.4,0.4l-0.4,0.4l-0.4-0.4L393.1,143.1z M393.3,142.8l0.4-0.4l0.4,0.4
			l-0.4,0.4L393.3,142.8z M393.6,141.9l-0.4-0.4l0.4-0.4l0.4,0.4L393.6,141.9z M393.9,140.8l0.4-0.4l0.4,0.4l-0.4,0.4L393.9,140.8z
			 M394.5,140.2l0.3-0.4c0,0,0,0,0.1,0l0.4,0.3l-0.4,0.4L394.5,140.2z M395.5,140.4l0.4,0.4l-0.4,0.4l-0.4-0.4L395.5,140.4z
			 M395.8,140.1l0.4-0.4l0.4,0.4l-0.4,0.4L395.8,140.1z M396.4,139.4L396.4,139.4c0.2,0,0.3,0,0.5,0c0.1,0,0.2,0,0.3,0l-0.4,0.4
			L396.4,139.4z M397.4,139.6l0.4,0.4l-0.4,0.4L397,140L397.4,139.6z M398.1,140.3l0.4,0.4l-0.4,0.4l-0.4-0.4L398.1,140.3z
			 M398.8,140.9l0.4,0.4l-0.4,0.4l-0.4-0.4L398.8,140.9z M399.4,141.5l0.4,0.4l-0.4,0.4l-0.4-0.4L399.4,141.5z M400.1,142.1l0.4,0.4
			l-0.4,0.4l-0.4-0.4L400.1,142.1z M400.2,143.4l0.4,0.4l-0.4,0.4l-0.4-0.4L400.2,143.4z M400.4,143.1l0.4-0.4l0.4,0.4l-0.4,0.4
			L400.4,143.1z M401.1,142.5l0.4-0.4l0.3,0.3c0,0,0,0.1,0.1,0.1l-0.3,0.4L401.1,142.5z M401.3,140.3l-0.4-0.4l0.4-0.4l0.4,0.4
			L401.3,140.3z M401.5,139.2l0.4-0.4l0.4,0.4l-0.4,0.4L401.5,139.2z M402.2,138.5l0.4-0.4l0.4,0.4l-0.4,0.4L402.2,138.5z
			 M403.2,138.7l0.4,0.4l-0.4,0.4l-0.4-0.4L403.2,138.7z M403.9,139.4l0.4,0.4l-0.4,0.4l-0.4-0.4L403.9,139.4z M403.9,140.6l0.4,0.4
			l-0.4,0.4l-0.4-0.4L403.9,140.6z M404,141.9l0.4,0.4l-0.4,0.4l-0.4-0.4L404,141.9z M404.1,143.2l0.4,0.4l-0.4,0.4l-0.4-0.4
			L404.1,143.2z M403.8,144.3l-0.4,0.4l-0.2-0.2c0-0.1,0-0.2,0-0.3l0.2-0.2L403.8,144.3z M404.1,144.5l0.4,0.4l-0.4,0.4l-0.4-0.4
			L404.1,144.5z M404.7,143.3l-0.4-0.4l0.4-0.4l0.4,0.4L404.7,143.3z M404.6,142l-0.4-0.4l0.4-0.4l0.4,0.4L404.6,142z M404.6,140.7
			l-0.4-0.4l0.4-0.4l0.4,0.4L404.6,140.7z M404.8,139.7l0.4-0.4l0.4,0.4l-0.4,0.4L404.8,139.7z M405.4,139l0.4-0.4l0.4,0.4l-0.4,0.4
			L405.4,139z M406.5,139.2l0.4,0.4l-0.4,0.4l-0.4-0.4L406.5,139.2z M407.1,139.9l0.2,0.2c-0.1,0.1-0.3,0.2-0.4,0.4l-0.2-0.2
			L407.1,139.9z M406.8,142l0.1,0.1l-0.4,0.4l0,0C406.6,142.4,406.7,142.2,406.8,142z M407.2,142.4l0.4,0.4l-0.4,0.4l-0.4-0.4
			L407.2,142.4z M407.9,143.1l0.4,0.4l-0.4,0.4l-0.4-0.4L407.9,143.1z M408.2,142.8l0.4-0.4l0.4,0.4l-0.4,0.4L408.2,142.8z
			 M408.5,141.9l-0.4-0.4l0.4-0.4l0.4,0.4L408.5,141.9z M408.7,140.8l0.4-0.4l0.4,0.4l-0.4,0.4L408.7,140.8z M409.3,140.1l0.4-0.4
			l0.4,0.4l-0.4,0.4L409.3,140.1z M410.1,139.6c0.2,0,0.4-0.1,0.6-0.1l-0.4,0.4L410.1,139.6z M411,139.7l0.4,0.4l-0.4,0.4l-0.4-0.4
			L411,139.7z M411.3,139.4L411.3,139.4c0.1,0,0.2,0,0.2,0c0.2,0,0.3,0,0.5,0l-0.3,0.4L411.3,139.4z M412.3,139.6l0.4,0.4l-0.4,0.4
			l-0.4-0.4L412.3,139.6z M413,140.3l0.4,0.4l-0.4,0.4l-0.4-0.4L413,140.3z M413.6,140.9l0.4,0.4l-0.4,0.4l-0.4-0.4L413.6,140.9z
			 M414.3,141.5l0.4,0.4l-0.4,0.4l-0.4-0.4L414.3,141.5z M414.4,142.8l0.4,0.4l-0.4,0.3l-0.4-0.4L414.4,142.8z M415,143.4l0.4,0.4
			l-0.4,0.4l-0.4-0.4L415,143.4z M415.3,143.1l0.4-0.4l0.4,0.4l-0.4,0.4L415.3,143.1z M415.9,142.4l0.3-0.4c0.1,0.2,0.2,0.4,0.3,0.5
			l-0.2,0.2L415.9,142.4z M416.2,140.2l-0.4-0.4l0.4-0.4l0.4,0.4L416.2,140.2z M416.2,138.9l-0.4-0.4l0.4-0.4l0.4,0.4L416.2,138.9z
			 M416.1,137.6l-0.4-0.4l0.4-0.4l0.4,0.4L416.1,137.6z M416,136.4l-0.4-0.4l0.4-0.4l0.4,0.4L416,136.4z M416,135.1l-0.4-0.4
			l0.4-0.4l0.4,0.4L416,135.1z M415.9,132.5l-0.4-0.4l0.4-0.4l0.4,0.4L415.9,132.5z M416.1,131.4l0.4-0.4l0.2,0.2
			c-0.1,0.2-0.1,0.4-0.2,0.6L416.1,131.4z M416.4,130.5l-0.4-0.4l0.4-0.4l0.4,0.4L416.4,130.5z M415.7,129.9l-0.4-0.4l0.4-0.4
			l0.4,0.4L415.7,129.9z M415.1,129.3l-0.4-0.4l0.4-0.4l0.4,0.4L415.1,129.3z M414.4,128.7l-0.4-0.4l0.4-0.4l0.4,0.4L414.4,128.7z
			 M414.2,128.9l-0.4,0.4l-0.4-0.4l0.4-0.4L414.2,128.9z M413.2,128.6c-0.1-0.2-0.2-0.3-0.3-0.5l0.1-0.2l0.4,0.4L413.2,128.6z
			 M413.2,130.5l0.4,0.4l-0.4,0.4l-0.4-0.4L413.2,130.5z M413,131.6l-0.4,0.4l-0.4-0.4l0.4-0.4L413,131.6z M412.6,132.5l0.4,0.4
			l-0.4,0.4l-0.4-0.4L412.6,132.5z M412.4,133.5l-0.4,0.4l-0.4-0.4l0.4-0.4L412.4,133.5z M411.4,133.3l-0.4-0.4l0.4-0.4l0.4,0.4
			L411.4,133.3z M411.1,132.3l-0.4,0.4l-0.4-0.4l0.4-0.4L411.1,132.3z M410.6,131.4l-0.4-0.4l0.1-0.1c0.1,0.1,0.3,0.2,0.5,0.3
			L410.6,131.4z M410.4,131.7l-0.4,0.4l-0.4-0.4l0.4-0.4L410.4,131.7z M410,130.8l-0.4-0.4l0.2-0.2c0.1,0.2,0.2,0.3,0.3,0.5
			L410,130.8z M409.3,130.2l-0.4-0.4l0.4-0.4l0.3,0.3v0.1L409.3,130.2z M409.5,129.1L409.5,129.1
			C409.6,129.1,409.6,129.2,409.5,129.1L409.5,129.1z M409.2,128.9l-0.4-0.4l0.4-0.4l0.4,0.4L409.2,128.9z M409,129.2l-0.4,0.4
			l-0.4-0.4l0.4-0.4L409,129.2z M407.9,129l-0.4-0.4l0.4-0.4l0.4,0.4L407.9,129z M407.7,129.2l-0.4,0.4l-0.4-0.4l0.4-0.4
			L407.7,129.2z M406.7,129l-0.4-0.4l0.4-0.4l0.4,0.4L406.7,129z M406.7,129.5l0.4,0.4l-0.4,0.4l-0.4-0.4L406.7,129.5z M406.5,130.6
			l-0.3,0.3c-0.1-0.2-0.1-0.4-0.1-0.6l0,0L406.5,130.6z M406.7,130.8l0.4,0.4l-0.4,0.4l-0.4-0.4L406.7,130.8z M406.7,133.6
			c0.1,0.1,0.2,0.3,0.4,0.4l-0.2,0.2l-0.4-0.4L406.7,133.6z M406.6,134.5l-0.4,0.4l-0.4-0.4l0.4-0.4L406.6,134.5z M405.6,134.2
			l-0.4-0.4l0.4-0.4l0.4,0.4L405.6,134.2z M404.9,133.6l-0.4-0.4l0.4-0.4l0.4,0.4L404.9,133.6z M404.9,132.3l-0.4-0.4l0.4-0.4
			l0.4,0.4L404.9,132.3z M405.1,131.3l0.2-0.3c0,0.2,0.1,0.4,0.2,0.6l0,0L405.1,131.3z M405.3,127.8l-0.4-0.4l0.4-0.4l0.2,0.2
			C405.4,127.4,405.3,127.6,405.3,127.8z M405.1,128l-0.4,0.4l-0.4-0.4l0.4-0.4L405.1,128z M404,127.8l-0.4-0.4l0.4-0.4l0.4,0.4
			L404,127.8z M403.8,128.1l-0.4,0.4l-0.2-0.2c0-0.1,0-0.2-0.1-0.3l0.2-0.3L403.8,128.1z M402.9,132.3l0.4,0.4l-0.4,0.4l-0.4-0.4
			L402.9,132.3z M403,133.6l0.4,0.4l-0.4,0.4l-0.4-0.4L403,133.6z M402.8,134.6l-0.4,0.4l-0.4-0.4l0.4-0.4L402.8,134.6z
			 M401.7,134.4l-0.4-0.4l0.4-0.4l0.4,0.4L401.7,134.4z M401.6,131.8l-0.4-0.4l0.4-0.4l0.4,0.4l0,0L401.6,131.8z M401.8,130.8
			l0.4-0.4l0.1,0.1c0,0.2-0.1,0.4-0.1,0.6L401.8,130.8z M401.6,130.5l-0.4-0.4l0.4-0.4l0.4,0.4L401.6,130.5z M400.8,128.6l-0.4-0.4
			l0.4-0.4l0.4,0.4L400.8,128.6z M400.6,128.9l-0.4,0.4l-0.4-0.4l0.4-0.4L400.6,128.9z M399.5,128.7l-0.4-0.4l0.4-0.4l0.4,0.4
			L399.5,128.7z M399.3,129l-0.4,0.4l-0.1-0.1c0-0.2,0-0.3-0.1-0.5l0.2-0.2L399.3,129z M398.9,129.9l0.4,0.4l-0.4,0.4l-0.4-0.4
			c0,0,0,0,0-0.1L398.9,129.9z M398.5,128.4c-0.1-0.2-0.2-0.3-0.3-0.4l0,0L398.5,128.4L398.5,128.4z M398.4,130.6l0.4,0.3l-0.4,0.4
			l-0.4-0.4C398.1,130.9,398.3,130.7,398.4,130.6z M396.4,132.1l-0.4-0.4l0.4-0.4l0.4,0.4L396.4,132.1z M396.1,131.1l-0.3,0.3
			l-0.4-0.4l0.2-0.2C395.7,130.9,395.9,131,396.1,131.1z M396,127.7l0.2-0.2l0.1,0.1C396.2,127.6,396.1,127.6,396,127.7z
			 M395.5,131.7l-0.4,0.4l-0.4-0.4l0.4-0.4L395.5,131.7z M395.1,130.8l-0.4-0.4l0.4-0.4l0,0c0.1,0.2,0.2,0.3,0.3,0.5L395.1,130.8z
			 M395,129.5l-0.3-0.3l0.4-0.4l0,0C395,129,395,129.2,395,129.5C394.9,129.4,395,129.4,395,129.5z M394.4,128.9l-0.4-0.4l0.4-0.4
			l0.4,0.4L394.4,128.9z M394.1,129.2l-0.4,0.4l-0.4-0.4l0.4-0.4L394.1,129.2z M393.1,129l-0.4-0.4l0.4-0.4l0.4,0.4L393.1,129z
			 M392.8,129.2l-0.4,0.4l-0.4-0.4l0.4-0.4L392.8,129.2z M391.9,130.8l0.4,0.4l-0.4,0.4l-0.1-0.1c-0.1-0.2-0.1-0.3-0.2-0.5
			L391.9,130.8z M391.9,133.5c0.1,0.1,0.2,0.3,0.4,0.4l-0.3,0.3l-0.4-0.4L391.9,133.5z M391.8,134.5l-0.4,0.4l-0.4-0.4l0.4-0.4
			L391.8,134.5z M390.7,134.8l0.4,0.4l-0.4,0.4l-0.4-0.4L390.7,134.8z M390.8,136.1l0.4,0.4l-0.4,0.4l-0.4-0.4L390.8,136.1z
			 M390.9,137.4l0.4,0.4l-0.4,0.4l-0.4-0.4L390.9,137.4z M390.9,138.6l0.4,0.4l-0.4,0.4l-0.4-0.4L390.9,138.6z M391,139.9l0.4,0.4
			l-0.4,0.4l-0.4-0.4L391,139.9z M391.2,139.7l0.4-0.4l0.4,0.4l-0.4,0.4L391.2,139.7z M392.3,139.9l0.3,0.3
			c-0.1,0.1-0.3,0.2-0.4,0.4l-0.3-0.3L392.3,139.9z M392.1,142.2L392.1,142.2L392.1,142.2L392.1,142.2z M392.4,142.5l0.4,0.4
			l-0.4,0.4l-0.4-0.4L392.4,142.5z M392.2,143.5l-0.4,0.4l-0.3-0.2c0-0.1,0.1-0.3,0.1-0.4l0.1-0.1L392.2,143.5z M392.4,143.7
			l0.4,0.4l-0.4,0.4l-0.4-0.4L392.4,143.7z M393.1,144.4l0.4,0.4l-0.4,0.4l-0.4-0.4L393.1,144.4z M393.4,144.1l0.4-0.4l0.4,0.4
			l-0.4,0.4L393.4,144.1z M394.4,144.3l0.4,0.4l-0.4,0.4l-0.4-0.4L394.4,144.3z M394.4,143.8l-0.4-0.4l0.4-0.4l0.4,0.4L394.4,143.8z
			 M394.3,142.5l-0.4-0.4l0.4-0.4l0.4,0.4L394.3,142.5z M394.5,141.5l0.4-0.4l0.4,0.4l-0.4,0.4L394.5,141.5z M395.6,141.7l0.4,0.4
			l-0.4,0.4l-0.4-0.4L395.6,141.7z M395.8,141.4l0.4-0.4l0.4,0.4l-0.4,0.4L395.8,141.4z M396.4,140.7l0.4-0.4l0.4,0.4l-0.4,0.4
			L396.4,140.7z M397.5,140.9l0.4,0.4l-0.4,0.4l-0.4-0.4L397.5,140.9z M398.1,141.6l0.4,0.4l-0.4,0.4l-0.4-0.4L398.1,141.6z
			 M398.8,142.2l0.4,0.4l-0.4,0.4l-0.4-0.4L398.8,142.2z M399.5,142.8l0.4,0.4l-0.4,0.4l-0.4-0.4L399.5,142.8z M399.6,144.1l0.4,0.4
			l-0.4,0.4l-0.4-0.4L399.6,144.1z M400.2,144.7l0.4,0.4l-0.4,0.4l-0.4-0.4L400.2,144.7z M400.5,144.4l0.4-0.4l0.4,0.4l-0.4,0.4
			L400.5,144.4z M401.1,143.8l0.4-0.4l0.4,0.4l-0.4,0.4L401.1,143.8z M401.7,143.1l0.2-0.2c0.1,0.2,0.1,0.4,0.2,0.6l0,0L401.7,143.1
			z M402,140.9l-0.4-0.4l0.4-0.4l0.4,0.4L402,140.9z M402.2,139.8l0.4-0.4l0.4,0.4l-0.4,0.4L402.2,139.8z M403.3,140l0.4,0.4
			l-0.4,0.4l-0.4-0.4L403.3,140z M403.3,141.3l0.4,0.4l-0.4,0.4l-0.4-0.4L403.3,141.3z M403.4,142.6l0.4,0.4l-0.4,0.4L403,143
			L403.4,142.6z M403.2,143.7L403.2,143.7L403.2,143.7L403.2,143.7z M403.2,146.1l0.1,0.1l-0.2,0.2
			C403.1,146.4,403.1,146.2,403.2,146.1z M403.2,145.7c0-0.1,0-0.2,0-0.2l0.2-0.3l0.4,0.4l-0.4,0.4L403.2,145.7z M404.2,145.8
			l0.4,0.4l-0.4,0.4l-0.4-0.4L404.2,145.8z M404.4,145.5l0.4-0.4l0.4,0.3v0.1l-0.3,0.4L404.4,145.5z M405.2,146c0,0.1,0,0.2,0.1,0.3
			l-0.2-0.2L405.2,146z M405.2,143.8l-0.2-0.2l0.4-0.4l0,0C405.3,143.4,405.2,143.6,405.2,143.8z M405.3,142.6l-0.4-0.4l0.4-0.4
			l0.4,0.4L405.3,142.6z M405.3,141.4l-0.4-0.4l0.4-0.4l0.4,0.4L405.3,141.4z M405.5,140.3l0.4-0.4l0.4,0.4l-0.4,0.4L405.5,140.3z
			 M406.5,140.5l0.2,0.2c-0.1,0.1-0.2,0.3-0.3,0.4l-0.2-0.2L406.5,140.5z M406.6,143.1l0.4,0.4l-0.4,0.4l-0.4-0.4L406.6,143.1z
			 M407.3,143.7l0.4,0.4l-0.4,0.4l-0.4-0.4L407.3,143.7z M408,144.4l0.4,0.4l-0.4,0.4l-0.4-0.4L408,144.4z M408.2,144.1l0.4-0.4
			l0.4,0.4l-0.4,0.4L408.2,144.1z M409.2,143.8l-0.4-0.4l0.4-0.4l0.4,0.4L409.2,143.8z M409.2,142.5l-0.4-0.4l0.4-0.4l0.4,0.4
			L409.2,142.5z M409.4,141.4l0.4-0.4l0.4,0.4l-0.4,0.4L409.4,141.4z M410,140.8l0.4-0.4l0.4,0.4l-0.4,0.4L410,140.8z M411.1,141
			l0.4,0.4l-0.4,0.4l-0.4-0.4L411.1,141z M411.3,140.7l0.4-0.4l0.4,0.4l-0.4,0.4L411.3,140.7z M412.4,140.9l0.4,0.4l-0.4,0.4
			l-0.4-0.4L412.4,140.9z M413,141.5l0.4,0.4l-0.4,0.4l-0.4-0.4L413,141.5z M413.7,142.2l0.4,0.4l-0.4,0.4l-0.4-0.4L413.7,142.2z
			 M414.4,144.1l0.4,0.4l-0.4,0.4l-0.4-0.4L414.4,144.1z M415.1,144.7l0.4,0.4l-0.4,0.4l-0.4-0.4L415.1,144.7z M415.4,144.4l0.4-0.4
			l0.4,0.4l-0.4,0.4L415.4,144.4z M416.4,144.6l0.4,0.4l-0.4,0.4L416,145L416.4,144.6z M416.4,144.1l-0.4-0.4l0.4-0.4l0.4,0.4
			L416.4,144.1z M416.6,143.1L416.6,143.1c0.1,0,0.1,0.1,0.1,0.1L416.6,143.1z M416.5,140.5l0.4-0.4l0.4,0.4l-0.4,0.4L416.5,140.5z
			 M416.8,139.5l-0.4-0.4l0.4-0.4l0.4,0.4L416.8,139.5z M416.8,138.3l-0.4-0.4l0.4-0.4l0.4,0.4L416.8,138.3z M416.7,137l-0.4-0.4
			l0.4-0.4l0.4,0.4L416.7,137z M416.7,135.7l-0.4-0.4l0.4-0.4l0.4,0.4L416.7,135.7z M416.6,134.4l-0.4-0.4l0.4-0.4l0.4,0.4
			L416.6,134.4z M416.7,130.8l0.1-0.2C416.8,130.7,416.8,130.8,416.7,130.8L416.7,130.8z M416.6,129.5l0.3-0.4c0,0.1,0,0.2,0,0.3
			s0,0.3,0,0.4L416.6,129.5z M416.7,128.8l-0.4,0.4l-0.4-0.4l0.4-0.4L416.7,128.8z M416.6,128.2l0.2-0.2c0,0.2,0.1,0.4,0.1,0.5
			L416.6,128.2z M415.7,128.6l-0.4-0.4l0.4-0.4l0.4,0.4L415.7,128.6z M415.6,127.3l-0.4-0.4l0.4-0.4l0.4,0.4L415.6,127.3z
			 M415.4,127.6L415,128l-0.4-0.4l0.4-0.4L415.4,127.6z M414.3,127.4l-0.4-0.4l0.4-0.4l0.4,0.4L414.3,127.4z M414.1,127.6l-0.4,0.4
			l-0.4-0.4l0.4-0.4L414.1,127.6z M413.1,127.4l-0.4-0.4l0.4-0.4l0.4,0.4L413.1,127.4z M412.8,127.7l-0.1,0.2
			c-0.1-0.1-0.3-0.2-0.5-0.3l0.2-0.2L412.8,127.7z M412.4,132.3l-0.4,0.4l-0.4-0.4l0.4-0.4L412.4,132.3z M411.8,131.3
			c0.1,0,0.2,0,0.2-0.1l-0.1,0.1H411.8z M411.8,127.5C411.8,127.5,411.7,127.5,411.8,127.5l-0.4-0.4l0.4-0.4l0.4,0.4L411.8,127.5z
			 M411.1,126.9l-0.4-0.4l0.4-0.4l0.4,0.4L411.1,126.9z M410.8,127.1l-0.4,0.4l-0.4-0.4l0.4-0.4L410.8,127.1z M410.2,127.8l-0.4,0.4
			l-0.4-0.4l0.4-0.4L410.2,127.8z M409.2,127.6l-0.4-0.4l0.4-0.4l0.4,0.4L409.2,127.6z M408.9,127.9l-0.4,0.4l-0.4-0.4l0.4-0.4
			L408.9,127.9z M407.9,127.7l-0.4-0.4l0.4-0.4l0.4,0.4L407.9,127.7z M407.6,127.9l-0.4,0.4l-0.4-0.4l0.4-0.4L407.6,127.9z
			 M406.6,127.7l-0.3-0.2c0.1-0.2,0.1-0.4,0.2-0.5l0.4,0.4L406.6,127.7z M406.4,128l-0.2,0.3c0-0.1,0.1-0.3,0.1-0.4L406.4,128z
			 M406.4,129.3l-0.4,0.4l0,0c0-0.1,0-0.2,0-0.3s0-0.3,0-0.4L406.4,129.3z M406.1,132.9c0.1,0.2,0.2,0.3,0.3,0.4l-0.2,0.3l-0.4-0.4
			L406.1,132.9z M405.5,132.9l-0.4-0.4l0.4-0.4l0.4,0.4L405.5,132.9z M405.6,126.8l-0.1-0.1l0.3-0.3
			C405.8,126.5,405.7,126.7,405.6,126.8z M405.3,126.5l-0.4-0.4l0.4-0.4l0.4,0.4L405.3,126.5z M405,126.8l-0.4,0.4l-0.4-0.4l0.4-0.4
			L405,126.8z M404,126.5l-0.4-0.4l0.4-0.4l0.4,0.4L404,126.5z M403.7,126.8l-0.4,0.4l-0.4-0.4l0.4-0.4L403.7,126.8z M402.7,126.6
			L402.7,126.6c-0.1-0.2-0.2-0.3-0.3-0.5l0.3-0.3l0.4,0.4L402.7,126.6z M402.7,133.3l-0.4,0.4l-0.4-0.4l0.4-0.4L402.7,133.3z
			 M402.4,129.7l-0.2,0.2l-0.4-0.4l0.4-0.4l0.2,0.2v0.1C402.4,129.5,402.4,129.6,402.4,129.7z M402.2,125.8
			c-0.1-0.1-0.2-0.3-0.3-0.4l0.1-0.1l0.4,0.4L402.2,125.8z M401.9,127.1l-0.2-0.2l0.1-0.1C401.8,126.9,401.8,127,401.9,127.1z
			 M401.8,127.5l-0.4,0.4l-0.4-0.4l0.4-0.4L401.8,127.5z M400.8,127.3l-0.4-0.4l0.4-0.4l0.4,0.4L400.8,127.3z M400.5,127.6l-0.4,0.4
			l-0.4-0.4l0.4-0.4L400.5,127.6z M399.5,127.4l-0.4-0.4l0.4-0.4l0.4,0.4L399.5,127.4z M399.2,127.7l-0.4,0.4l-0.4-0.4l0.4-0.4
			L399.2,127.7z M398.2,127.4l-0.4-0.4l0.4-0.4l0.4,0.4L398.2,127.4z M397.5,126.8l-0.4-0.4l0.4-0.4l0.4,0.4L397.5,126.8z
			 M397.3,127.1l-0.3,0.4c0,0,0,0-0.1,0l0,0l-0.4-0.3l0.4-0.4L397.3,127.1z M396.2,126.9l-0.4-0.4l0.4-0.4l0.4,0.4L396.2,126.9z
			 M396,127.2l-0.4,0.4l-0.4-0.4l0.4-0.4L396,127.2z M395.4,127.8l-0.4,0.4l-0.4-0.4l0.4-0.4L395.4,127.8z M394.3,127.6l-0.4-0.4
			l0.4-0.4l0.4,0.4L394.3,127.6z M394.1,127.9l-0.4,0.4l-0.4-0.4l0.4-0.4L394.1,127.9z M393,127.7l-0.4-0.4l0.4-0.4l0.4,0.4
			L393,127.7z M392.8,128l-0.4,0.4L392,128l0.4-0.4L392.8,128z M392.1,128.6l-0.4,0.4l-0.4-0.3v-0.1l0.3-0.3L392.1,128.6z
			 M391.4,126.2L391.4,126.2l0.3-0.5l0,0C391.5,125.9,391.4,126,391.4,126.2z M391.3,132.8l0.4,0.4l-0.4,0.4l-0.4-0.4L391.3,132.8z
			 M390.9,127l-0.3-0.3l0.4-0.4l0.2,0.1C391.1,126.7,391,126.9,390.9,127z M390.4,126.5l-0.4-0.4l0.4-0.4l0.4,0.4L390.4,126.5z
			 M390.4,127l0.4,0.4l-0.4,0.4l-0.4-0.4L390.4,127z M390.5,128.3l0.1,0.1c0,0.2-0.1,0.4-0.1,0.7l0,0l-0.4-0.4L390.5,128.3z
			 M390.6,130.4L390.6,130.4l-0.4-0.4l0.3-0.4C390.5,129.9,390.5,130.1,390.6,130.4z M390.3,130.6l-0.4,0.4l-0.4-0.4l0.4-0.4
			L390.3,130.6z M390,131.6l0.4,0.4l-0.4,0.4l-0.4-0.4L390,131.6z M390,132.9l0.4,0.4l-0.4,0.4l-0.4-0.4L390,132.9z M390.1,134.2
			l0.4,0.4l-0.4,0.4l-0.4-0.4L390.1,134.2z M390.1,135.4l0.4,0.4l-0.4,0.4l-0.4-0.4L390.1,135.4z M390.2,136.7l0.4,0.4l-0.4,0.4
			l-0.4-0.4L390.2,136.7z M390.2,138l0.4,0.4l-0.4,0.4l-0.4-0.4L390.2,138z M390.3,139.3l0.4,0.4l-0.4,0.4l-0.4-0.4L390.3,139.3z
			 M390.4,140.6l0.4,0.4l-0.4,0.4L390,141L390.4,140.6z M390.4,141.9l0.4,0.4l-0.4,0.4l-0.4-0.4L390.4,141.9z M390.8,142.8
			c0,0.1,0,0.1-0.1,0.2h-0.1L390.8,142.8z M390.5,143.2l0.2,0.2c0,0.2-0.1,0.4-0.1,0.5v0.1l-0.4-0.4L390.5,143.2z M390.7,146.5
			L390.7,146.5l-0.5-0.3l0.3-0.4C390.6,146,390.6,146.3,390.7,146.5z M390.5,145.2l-0.3-0.3l0.3-0.4c0,0.1,0,0.2,0,0.4
			C390.5,145,390.5,145.1,390.5,145.2z M390.3,145.5l-0.4,0.4l-0.4-0.4l0.4-0.4L390.3,145.5z M390,146.5l0.4,0.4l-0.4,0.4l-0.4-0.4
			L390,146.5z M390.6,147.1l0.3,0.3v0.1l-0.3,0.4l-0.4-0.4L390.6,147.1z M390.7,141.6l0.4-0.4l0.4,0.4c0,0,0,0.1-0.1,0.1l-0.3,0.3
			L390.7,141.6z M391.3,141l0.4-0.4l0.3,0.3c-0.1,0.1-0.2,0.3-0.3,0.4L391.3,141z M391.4,144.1l0.1,0.1l-0.1,0.1
			C391.4,144.2,391.4,144.2,391.4,144.1z M391.8,144.4l0.4,0.4l-0.4,0.4l-0.4-0.4L391.8,144.4z M392.5,145l0.4,0.4l-0.4,0.4
			l-0.4-0.4L392.5,145z M393.2,145.7l0.4,0.4l-0.4,0.4l-0.4-0.4L393.2,145.7z M393.4,145.4l0.4-0.4l0.4,0.4l-0.4,0.4L393.4,145.4z
			 M394.5,145.6l0.4,0.4l-0.4,0.4l-0.4-0.4L394.5,145.6z M394.7,145.3l0.2-0.3c0,0.2,0.1,0.4,0.2,0.6l0,0L394.7,145.3z M395,144.4
			l-0.4-0.3l0.4-0.4l0.2,0.2C395.2,144,395.1,144.2,395,144.4z M395,143.1l-0.4-0.4l0.4-0.4l0.4,0.4L395,143.1z M395.6,143l0.3,0.3
			c-0.2,0.1-0.3,0.2-0.4,0.3l-0.2-0.2L395.6,143z M397.5,142.2l0.4,0.4l-0.4,0.4l-0.4-0.4L397.5,142.2z M398.1,146.4L398.1,146.4
			l-0.3,0.4l-0.2-0.2C397.7,146.6,397.9,146.5,398.1,146.4z M397.8,143.2l0.4-0.4l0.4,0.4l-0.3,0.4
			C398.2,143.5,398,143.3,397.8,143.2z M398.5,143.9l0.4-0.4l0.4,0.4l-0.4,0.4L398.5,143.9z M398.7,145.8l-0.4,0.4l0,0
			c0.1-0.1,0.2-0.3,0.3-0.5L398.7,145.8z M398.8,144.9l0.1-0.2l0.4,0.4l-0.4,0.4l-0.2-0.2C398.8,145.2,398.8,145.1,398.8,144.9z
			 M399.6,145.4l0.4,0.4l-0.4,0.4l-0.4-0.4L399.6,145.4z M400.3,146l0.4,0.4l-0.4,0.4l-0.4-0.4L400.3,146z M400.5,145.7l0.4-0.4
			l0.4,0.4l-0.4,0.4L400.5,145.7z M401.6,145.4l-0.4-0.4l0.4-0.4l0.4,0.4L401.6,145.4z M401.8,144.4l0.4-0.4l0.2,0.1
			c0,0.1,0,0.3,0,0.4l-0.2,0.2L401.8,144.4z M402.3,141.1l0.4-0.4l0.4,0.4l-0.4,0.4L402.3,141.1z M402.7,142l0.4,0.4l-0.2,0.3
			C402.8,142.4,402.7,142.3,402.7,142L402.7,142z M402.8,147.3l0.1-0.1l0.4,0.4l-0.4,0.4l-0.3-0.3
			C402.7,147.5,402.8,147.4,402.8,147.3z M403.2,146.9l0.4-0.4l0.4,0.4l-0.4,0.4L403.2,146.9z M404.2,147.1l0.4,0.4l-0.4,0.4
			l-0.4-0.4L404.2,147.1z M404.5,146.8l0.4-0.4l0.4,0.4l-0.4,0.4L404.5,146.8z M405.5,147.1c0.1,0.2,0.1,0.4,0.2,0.5l-0.2,0.2
			l-0.4-0.4L405.5,147.1z M405.5,141.6l0.4-0.4l0.2,0.2c-0.1,0.2-0.2,0.3-0.3,0.5L405.5,141.6z M406.1,143.9l0.3,0.3l-0.4,0.4l0,0
			C406,144.3,406.1,144.1,406.1,143.9z M406.7,144.4l0.4,0.4l-0.4,0.4l-0.4-0.4L406.7,144.4z M407.4,145l0.4,0.4l-0.4,0.4l-0.4-0.4
			L407.4,145z M408,145.6l0.4,0.4l-0.4,0.4l-0.4-0.4L408,145.6z M408.3,145.4l0.4-0.4l0.4,0.4l-0.4,0.4L408.3,145.4z M409.3,145.6
			l0.4,0.4l-0.4,0.4l-0.4-0.4L409.3,145.6z M409.7,144.2l-0.2-0.2l0.4-0.4l0.1,0.1C409.9,143.9,409.8,144,409.7,144.2z M409.9,143.1
			l-0.4-0.4l0.4-0.4l0.4,0.4L409.9,143.1z M410.5,142.9l0.2,0.2c-0.2,0.1-0.3,0.2-0.5,0.3l-0.1-0.1L410.5,142.9z M410.5,142.4
			l-0.4-0.4l0.4-0.4l0.4,0.4L410.5,142.4z M412.4,142.2l0.4,0.4l-0.4,0.4l-0.4-0.4L412.4,142.2z M413.1,142.8l0.4,0.4l-0.4,0.4
			l-0.4-0.4L413.1,142.8z M413.3,145.5l0.3,0.3l-0.4,0.4L413,146C413.2,145.9,413.3,145.7,413.3,145.5z M413.5,145.1l0.4-0.4
			l0.4,0.4l-0.4,0.4L413.5,145.1z M414.5,145.4l0.4,0.4l-0.4,0.4l-0.4-0.4L414.5,145.4z M415.2,146l0.4,0.4l-0.4,0.4l-0.4-0.4
			L415.2,146z M415.4,145.7l0.4-0.4l0.4,0.4l-0.4,0.4L415.4,145.7z M416.5,145.9l0.4,0.3v0.1l-0.3,0.3l-0.4-0.4L416.5,145.9z
			 M416.7,145.6l0.3-0.3c0,0.2,0,0.3-0.1,0.5L416.7,145.6z M416.7,144.4l0.3-0.3c0,0.2,0,0.4,0.1,0.6L416.7,144.4z M416.9,141.4
			L416.9,141.4l0.4,0.4l-0.1,0.2C417.1,141.7,417,141.6,416.9,141.4z M417.5,140.2l-0.4-0.4l0.4-0.4l0.4,0.4L417.5,140.2z
			 M417.4,138.9l-0.4-0.4l0.4-0.4l0.4,0.4L417.4,138.9z M417.4,137.6l-0.4-0.4l0.4-0.4l0.4,0.4L417.4,137.6z M417.3,136.3l-0.4-0.4
			l0.4-0.4l0.4,0.4L417.3,136.3z M417.3,135l-0.4-0.4l0.4-0.4l0.4,0.4L417.3,135z M417.2,133.7l-0.4-0.4l0.4-0.4l0.4,0.4
			L417.2,133.7z M417.2,132.4L417.2,132.4c0.1-0.2,0.1-0.4,0.2-0.6l0.2,0.1L417.2,132.4z M417.5,126.6l-0.4-0.4l0.4-0.4l0.4,0.4
			L417.5,126.6z M417.6,127.1l0.4,0.4l-0.3,0.3C417.6,127.6,417.6,127.4,417.6,127.1L417.6,127.1z M417.5,125.3l-0.4-0.4l0.4-0.4
			l0.4,0.4L417.5,125.3z M417.2,125.6l-0.4,0.4c-0.1-0.2-0.2-0.3-0.3-0.5l0.3-0.3L417.2,125.6z M416.6,127.5
			C416.6,127.5,416.7,127.5,416.6,127.5l-0.3,0.4l-0.4-0.4l0.4-0.4L416.6,127.5z M416.3,125.2c-0.1-0.1-0.2-0.3-0.4-0.4l0.2-0.2
			l0.4,0.4L416.3,125.2z M416.2,126.6l-0.4-0.4l0.1-0.1C416,126.3,416.1,126.5,416.2,126.6z M415.7,124.6c-0.1-0.1-0.3-0.2-0.4-0.4
			l0.2-0.2l0.4,0.4L415.7,124.6z M415.3,125.5c0.1,0.1,0.2,0.3,0.4,0.4l-0.1,0.1l-0.4-0.4L415.3,125.5z M415.3,126.3l-0.4,0.4
			l-0.4-0.4l0.4-0.4L415.3,126.3z M414.9,125.4l-0.4-0.4l0.1-0.1c0.1,0.1,0.3,0.2,0.4,0.3L414.9,125.4z M414,126.4l-0.4,0.4
			l-0.4-0.4l0.4-0.4L414,126.4z M413,126.1l-0.4-0.4l0.4-0.4l0.4,0.4L413,126.1z M412.7,126.4l-0.4,0.4l-0.4-0.4l0.4-0.4
			L412.7,126.4z M411.7,126.2l-0.4-0.4l0.4-0.4l0.4,0.4L411.7,126.2z M411,125.6l-0.4-0.4l0.4-0.4l0.4,0.4L411,125.6z M410.8,125.9
			l-0.4,0.4l-0.4-0.4l0.4-0.4L410.8,125.9z M410.2,126.5l-0.4,0.4l-0.4-0.4l0.4-0.4L410.2,126.5z M409.1,126.3l-0.4-0.4l0.4-0.4
			l0.4,0.4L409.1,126.3z M408.9,126.6l-0.4,0.4l-0.4-0.4l0.4-0.4L408.9,126.6z M407.8,126.4l-0.4-0.4l0.4-0.4l0.4,0.4L407.8,126.4z
			 M407.6,126.6l-0.4,0.4l-0.4-0.4l0.4-0.4L407.6,126.6z M406.5,125.1l-0.4-0.4l0.4-0.4l0.4,0.4L406.5,125.1z M406.2,125.4l-0.4,0.4
			l-0.4-0.4l0.4-0.4L406.2,125.4z M405.2,125.2l-0.4-0.4l0.4-0.4l0.4,0.4L405.2,125.2z M404.9,125.5l-0.4,0.4l-0.4-0.4l0.4-0.4
			L404.9,125.5z M403.9,125.3l-0.4-0.4l0.4-0.4l0.4,0.4L403.9,125.3z M403.7,125.5l-0.4,0.4l-0.4-0.4l0.4-0.4L403.7,125.5z
			 M402.6,125.3l-0.4-0.4l0.4-0.4l0.4,0.4L402.6,125.3z M401.9,124.7l-0.4-0.4l0.4-0.4l0.4,0.4L401.9,124.7z M401.7,125l-0.1,0.1
			c-0.1-0.1-0.2-0.3-0.4-0.4l0.1-0.1L401.7,125z M401.2,126c0.1,0.1,0.2,0.3,0.3,0.5l-0.2,0.2l-0.4-0.4L401.2,126z M400.6,125.4
			c0.1,0.1,0.3,0.2,0.4,0.4l-0.3,0.3l-0.4-0.4L400.6,125.4z M400.5,124.1l0.1-0.1l0.4,0.4l-0.1,0.1
			C400.8,124.3,400.6,124.2,400.5,124.1z M400.4,126.3l-0.4,0.4l-0.4-0.4l0.4-0.4L400.4,126.3z M399.2,126.4l-0.4,0.4l-0.4-0.4
			l0.4-0.4L399.2,126.4z M398.1,126.2l-0.4-0.4l0.4-0.4l0.4,0.4L398.1,126.2z M397.4,125.5l-0.4-0.4l0.4-0.4l0.4,0.4L397.4,125.5z
			 M397.2,125.8l-0.4,0.4l-0.4-0.4l0.4-0.4L397.2,125.8z M396.1,125.6l-0.4-0.4l0.4-0.4l0.4,0.4L396.1,125.6z M395.9,125.9l-0.4,0.4
			l-0.4-0.4l0.4-0.4L395.9,125.9z M395.3,126.5l-0.4,0.4l-0.4-0.4l0.4-0.4L395.3,126.5z M394.2,126.3l-0.4-0.4l0.4-0.4l0.4,0.4
			L394.2,126.3z M394,126.6l-0.4,0.4l-0.4-0.4l0.4-0.4L394,126.6z M393,126.4l-0.4-0.4l0.4-0.4l0.4,0.4L393,126.4z M392.5,124.7
			L392.5,124.7l0.4-0.4l0,0C392.8,124.5,392.6,124.6,392.5,124.7z M392.7,126.7l-0.4,0.4l-0.3-0.3c0.1-0.2,0.2-0.3,0.3-0.5
			L392.7,126.7z M392.1,127.3l-0.4,0.4l-0.1-0.1c0.1-0.2,0.1-0.4,0.2-0.5L392.1,127.3z M391.6,125.2l-0.4-0.4l0.4-0.4l0.4,0.4
			L391.6,125.2z M391.4,125.4l-0.4,0.4l-0.4-0.4l0.4-0.4L391.4,125.4z M390.3,125.2l-0.4-0.4l0.4-0.4l0.4,0.4L390.3,125.2z
			 M390.1,125.5l-0.4,0.4l-0.4-0.4l0.4-0.4L390.1,125.5z M389.7,126.4l0.4,0.4l-0.4,0.4l-0.4-0.4L389.7,126.4z M389.8,127.7l0.4,0.4
			l-0.4,0.4l-0.4-0.4L389.8,127.7z M389.8,129l0.4,0.4l-0.4,0.4l-0.4-0.4L389.8,129z M389.6,130l-0.4,0.4l-0.4-0.4l0.4-0.4
			L389.6,130z M389.3,130.9l0.4,0.4l-0.4,0.4l-0.4-0.4L389.3,130.9z M389.3,132.2l0.4,0.4l-0.4,0.4l-0.4-0.4L389.3,132.2z
			 M389.4,133.5l0.4,0.4l-0.4,0.4l-0.4-0.4L389.4,133.5z M389.5,134.8l0.4,0.4l-0.4,0.4l-0.4-0.4L389.5,134.8z M389.5,136.1l0.4,0.4
			l-0.4,0.4l-0.4-0.4L389.5,136.1z M389.6,137.4l0.4,0.4l-0.4,0.4l-0.4-0.4L389.6,137.4z M389.6,138.7l0.4,0.4l-0.4,0.4l-0.4-0.4
			L389.6,138.7z M389.7,140l0.4,0.4l-0.4,0.4l-0.4-0.4L389.7,140z M389.7,141.3l0.4,0.4l-0.4,0.4l-0.4-0.4L389.7,141.3z
			 M389.8,142.6l0.4,0.4l-0.4,0.4l-0.4-0.4L389.8,142.6z M389.9,143.9l0.4,0.4l-0.4,0.4l-0.4-0.4L389.9,143.9z M389.6,144.9
			l-0.4,0.4l-0.4-0.4l0.4-0.4L389.6,144.9z M389.3,145.8l0.4,0.4l-0.4,0.4l-0.4-0.4L389.3,145.8z M389.4,147.1l0.4,0.4l-0.4,0.4
			l-0.4-0.4L389.4,147.1z M389.4,148.4l0.4,0.4l-0.4,0.4l-0.4-0.4L389.4,148.4z M389.7,148.1l0.4-0.4l0.4,0.4l-0.4,0.4L389.7,148.1z
			 M390.7,148.4l0.4,0.4l-0.4,0.4l-0.4-0.4L390.7,148.4z M390.9,148.1l0.2-0.3c0.1,0.2,0.2,0.3,0.3,0.5l-0.1,0.1L390.9,148.1z
			 M391.4,145.6c0-0.1,0-0.2,0-0.4l0.2,0.2L391.4,145.6z M391.9,145.7l0.4,0.4l-0.4,0.4l-0.4-0.3l0,0L391.9,145.7z M391.7,148.6
			c0.1,0.1,0.2,0.3,0.3,0.4l0,0L391.7,148.6L391.7,148.6z M391.8,147.1L391.8,147.1l0.5,0.3l-0.2,0.2
			C392,147.5,391.9,147.3,391.8,147.1z M392.2,146.7l0.4-0.4l0.4,0.4l-0.4,0.4L392.2,146.7z M393.2,147l0.4,0.4l-0.4,0.4l-0.4-0.4
			L393.2,147z M393.5,146.7l0.4-0.4l0.4,0.4l-0.4,0.4L393.5,146.7z M394.5,146.9l0.4,0.4l-0.4,0.4l-0.4-0.4L394.5,146.9z
			 M394.8,146.6l0.4-0.4l0.4,0.4l-0.4,0.4L394.8,146.6z M395.8,146.8l0.4,0.4l-0.4,0.4l-0.4-0.4L395.8,146.8z M396.5,147.5l0.4,0.4
			l-0.4,0.4l-0.4-0.4L396.5,147.5z M396.7,147.2l0.3-0.4c0,0,0,0,0.1,0l0.4,0.3l-0.4,0.4L396.7,147.2z M397.8,147.4l0.4,0.4
			l-0.4,0.4l-0.4-0.4L397.8,147.4z M398,147.1l0.4-0.4l0.4,0.4l-0.4,0.4L398,147.1z M398.6,146.5l0.4-0.4l0.4,0.4l-0.4,0.4
			L398.6,146.5z M399.7,146.7l0.4,0.4l-0.4,0.4l-0.4-0.4L399.7,146.7z M400.3,147.3l0.4,0.4l-0.4,0.4l-0.4-0.4L400.3,147.3z
			 M400.6,147l0.4-0.4l0.4,0.4l-0.4,0.4L400.6,147z M401.6,147.2l0.1,0.1c-0.1,0.2-0.2,0.3-0.3,0.5l-0.2-0.2L401.6,147.2z
			 M402,148.8l0.1,0.1l-0.4,0.4l-0.1-0.1C401.7,149,401.9,148.9,402,148.8z M401.8,145.7l0.4-0.4l0.1,0.1c0,0.2,0,0.4-0.1,0.6l0,0
			L401.8,145.7z M402.5,148l0.2,0.2l-0.4,0.4l-0.2-0.1C402.3,148.3,402.4,148.1,402.5,148z M403,148.5l0.4,0.4l-0.4,0.4l-0.4-0.4
			L403,148.5z M403.2,148.2l0.4-0.4l0.4,0.4l-0.4,0.4L403.2,148.2z M404.3,148.4l0.4,0.4l-0.4,0.4l-0.4-0.4L404.3,148.4z
			 M404.5,148.1l0.4-0.4l0.4,0.4l-0.4,0.4L404.5,148.1z M405.6,148.3l0.4,0.4l-0.4,0.4l-0.4-0.4L405.6,148.3z M405.8,148.1l0.1-0.1
			c0.1,0.1,0.2,0.3,0.2,0.4L405.8,148.1z M406.1,145.9L406.1,145.9c0-0.2-0.1-0.5-0.1-0.7v-0.1l0.4,0.4L406.1,145.9z M406.4,146.1
			l0.4-0.4l0.4,0.4l-0.4,0.4L406.4,146.1z M406.5,146.7l-0.1,0.1c0-0.1-0.1-0.3-0.1-0.4L406.5,146.7z M406.8,147l0.4,0.4l-0.4,0.4
			l0,0c-0.1-0.1-0.2-0.3-0.2-0.5L406.8,147z M407.1,146.7l0.4-0.4l0.4,0.4l-0.4,0.4L407.1,146.7z M408.1,146.9l0.4,0.4l-0.4,0.4
			l-0.4-0.4L408.1,146.9z M408.3,146.7l0.4-0.4l0.4,0.4l-0.4,0.4L408.3,146.7z M409.4,146.9l0.4,0.4l-0.4,0.4l-0.4-0.4L409.4,146.9z
			 M409.6,146.6l0.4-0.4l0.4,0.4L410,147L409.6,146.6z M410.7,146.8l0.4,0.4l-0.4,0.4l-0.4-0.4L410.7,146.8z M411.3,147.4l0.4,0.4
			l-0.4,0.4l-0.4-0.4L411.3,147.4z M411.6,147.2l0.4-0.4l0,0l0.4,0.4l-0.4,0.4L411.6,147.2z M412.4,146.6c0.2-0.1,0.3-0.2,0.5-0.3
			l0.2,0.1l-0.4,0.4L412.4,146.6z M413.3,146.7l0.4,0.4l-0.4,0.4l-0.4-0.4L413.3,146.7z M413.5,146.4l0.4-0.4l0.4,0.4l-0.4,0.4
			L413.5,146.4z M414.6,146.6l0.4,0.4l-0.4,0.4l-0.4-0.4L414.6,146.6z M415.2,147.3l0.4,0.4l-0.4,0.4l-0.4-0.4L415.2,147.3z
			 M415.9,147.9l0.1,0.1c-0.1,0.1-0.2,0.3-0.3,0.4l-0.2-0.2L415.9,147.9z M415.9,147.4l-0.4-0.4l0.4-0.4l0.4,0.4L415.9,147.4z
			 M416.5,147.3c-0.1,0.1-0.1,0.3-0.2,0.4l-0.1-0.1L416.5,147.3z M416.7,148.6l0.3,0.2l-0.4,0.4l-0.2-0.2
			C416.5,148.9,416.6,148.8,416.7,148.6z M416.9,148.3c0.1-0.2,0.2-0.3,0.3-0.5l0.4,0.4l-0.4,0.4L416.9,148.3z M417.9,148.4l0.4,0.4
			l-0.4,0.4l-0.4-0.4L417.9,148.4z M417.8,147.9l-0.4-0.4l0.4-0.4l0.4,0.4L417.8,147.9z M417.8,146.6L417.8,146.6c0-0.3,0-0.5,0-0.7
			l0.3,0.3L417.8,146.6z M417.7,143.4l0.3,0.3l-0.2,0.2C417.8,143.7,417.8,143.5,417.7,143.4z M417.9,144.8l0.2,0.2l-0.2,0.2
			c0-0.1,0-0.2,0-0.2C417.9,144.9,417.9,144.8,417.9,144.8z M417.9,144.3l0.4-0.4l0.4,0.4l-0.4,0.4L417.9,144.3z M418.3,143.4
			l-0.4-0.4l0.4-0.4l0.4,0.4L418.3,143.4z M418.2,142.1l-0.4-0.4l0.4-0.4l0.4,0.4L418.2,142.1z M418.2,140.8l-0.4-0.4l0.4-0.4
			l0.4,0.4L418.2,140.8z M418.1,139.5l-0.4-0.4l0.4-0.4l0.4,0.4L418.1,139.5z M418.1,138.2l-0.4-0.4l0.4-0.4l0.4,0.4L418.1,138.2z
			 M418,136.9l-0.4-0.4l0.4-0.4l0.4,0.4L418,136.9z M417.9,135.6l-0.4-0.4l0.4-0.4l0.4,0.4L417.9,135.6z M417.9,134.3l-0.4-0.4
			l0.4-0.4l0.4,0.4L417.9,134.3z M417.8,133l-0.4-0.4l0.4-0.4l0.4,0.4L417.8,133z M417.8,131.8l-0.3-0.2c0-0.1,0.1-0.3,0.1-0.5
			l0.1-0.1l0.4,0.4L417.8,131.8z M417.9,129.9l0.2,0.2l-0.3,0.3C417.8,130.2,417.9,130,417.9,129.9z M417.8,128.6l0.2,0.2l-0.2,0.2
			C417.9,128.8,417.8,128.7,417.8,128.6z M417.9,129.4l0.4-0.4l0.4,0.4l-0.4,0.4L417.9,129.4z M418.3,128.5l-0.4-0.4l0.4-0.4
			l0.4,0.4L418.3,128.5z M418.2,127.2l-0.4-0.4l0.4-0.4l0.4,0.4L418.2,127.2z M418.2,125.9l-0.4-0.4l0.4-0.4l0.4,0.4L418.2,125.9z
			 M418.1,124.6l-0.4-0.4l0.4-0.4l0.4,0.4L418.1,124.6z M417.4,124l-0.4-0.4l0.4-0.4l0.4,0.4L417.4,124z M417.2,124.3l-0.4,0.4
			l-0.4-0.4l0.4-0.4L417.2,124.3z M416.1,124.1l-0.4-0.4l0.4-0.4l0.4,0.4L416.1,124.1z M415.5,123.4l-0.4-0.4l0.4-0.4l0.4,0.4
			L415.5,123.4z M415.2,123.7l-0.3,0.3c-0.2-0.1-0.3-0.2-0.5-0.3l0.3-0.4L415.2,123.7z M414.2,123.5l-0.4-0.4l0.4-0.4l0.4,0.4
			L414.2,123.5z M414,125.1l-0.4,0.4l-0.4-0.4l0.4-0.4L414,125.1z M412.7,125.1l-0.4,0.4l-0.4-0.4l0.4-0.4L412.7,125.1z
			 M412.3,124.2l-0.4-0.3c0.2,0,0.4,0,0.6,0.1L412.3,124.2z M411,124.3l-0.4-0.3c0.2,0,0.5-0.1,0.7-0.1L411,124.3z M409.1,125
			l-0.4-0.4c0.2-0.1,0.3-0.2,0.5-0.3l0.2,0.2L409.1,125z M409.4,123.4c-0.2,0.1-0.4,0.1-0.5,0.2l-0.2-0.2l0.4-0.4L409.4,123.4
			L409.4,123.4z M408.8,125.3l-0.4,0.4l-0.4-0.4l0.4-0.4L408.8,125.3z M408,124l0.3-0.4l0.1,0.1C408.3,123.8,408.2,123.9,408,124z
			 M407.7,123.8l-0.4-0.4l0.4-0.4l0.4,0.4L407.7,123.8z M407.5,124.1l-0.4,0.4l-0.4-0.4l0.4-0.4L407.5,124.1z M406.4,123.9l-0.4-0.4
			l0.4-0.4l0.4,0.4L406.4,123.9z M406.2,124.1l-0.4,0.4l-0.4-0.4l0.4-0.4L406.2,124.1z M405.1,123.9l-0.4-0.4l0.4-0.4l0.4,0.4
			L405.1,123.9z M404.9,124.2l-0.4,0.4l-0.4-0.4l0.4-0.4L404.9,124.2z M403.8,124l-0.4-0.4l0.4-0.4l0.4,0.4L403.8,124z M403.6,124.2
			l-0.4,0.4l-0.4-0.4l0.4-0.4L403.6,124.2z M402.6,124l-0.4-0.4l0.4-0.4l0.4,0.4L402.6,124z M401.9,123.4l-0.4-0.4l0.4-0.4l0.4,0.4
			L401.9,123.4z M401.6,123.7l-0.4,0.4l-0.4-0.4l0.4-0.4L401.6,123.7z M400.6,123.5l-0.4-0.4l0.4-0.4l0.4,0.4L400.6,123.5z
			 M400.3,123.7l-0.2,0.2c-0.2-0.1-0.3-0.2-0.5-0.3l0.2-0.3L400.3,123.7z M399.9,124.8c0.1,0.1,0.3,0.2,0.4,0.3l-0.3,0.3l-0.4-0.4
			L399.9,124.8z M399.3,123.5h-0.1l-0.3-0.3l0.4-0.4l0.4,0.4L399.3,123.5z M399.1,125.1l-0.4,0.4l-0.4-0.4l0.4-0.4L399.1,125.1z
			 M397.4,124.3l-0.4-0.4c0.2,0,0.4,0,0.6,0L397.4,124.3z M396.1,124.3l-0.3-0.3c0.2,0,0.5-0.1,0.7-0.1L396.1,124.3z M394.2,125
			l-0.3-0.3c0.2-0.1,0.3-0.2,0.5-0.3l0.2,0.1L394.2,125z M394.3,123.5c-0.1,0.1-0.2,0.1-0.3,0.1l-0.3-0.3l0.4-0.4l0.4,0.4
			L394.3,123.5z M393.9,125.3l-0.4,0.4l-0.4-0.4l0,0c0.1-0.1,0.3-0.2,0.4-0.3L393.9,125.3z M393.2,124.1l-0.1-0.1l0.4-0.4l0.2,0.2
			C393.5,123.9,393.4,124,393.2,124.1z M392.8,123.8l-0.4-0.4l0.4-0.4l0.4,0.4L392.8,123.8z M392.6,124.1l-0.4,0.4l-0.4-0.4l0.4-0.4
			L392.6,124.1z M391.6,123.9l-0.4-0.4l0.4-0.4l0.4,0.4L391.6,123.9z M391.3,124.1l-0.4,0.4l-0.4-0.4l0.4-0.4L391.3,124.1z
			 M390.3,123.9l-0.4-0.4l0.4-0.4l0.4,0.4L390.3,123.9z M390,124.2l-0.4,0.4l-0.4-0.4l0.4-0.4L390,124.2z M389,124l-0.4-0.4l0.4-0.4
			l0.4,0.4L389,124z M389,124.5l0.4,0.4l-0.4,0.4l-0.4-0.4L389,124.5z M389,125.8l0.4,0.4l-0.4,0.4l-0.4-0.4L389,125.8z
			 M389.1,127.1l0.4,0.4l-0.4,0.4l-0.4-0.4L389.1,127.1z M389.2,128.4l0.4,0.4l-0.4,0.4l-0.4-0.4L389.2,128.4z M389,129.4l-0.4,0.4
			l-0.4-0.4l0.4-0.4L389,129.4z M388.6,130.3l0.4,0.4l-0.4,0.4l-0.4-0.4L388.6,130.3z M388.7,131.6l0.4,0.4l-0.4,0.4l-0.4-0.4
			L388.7,131.6z M388.7,132.9l0.4,0.4l-0.4,0.4l-0.4-0.4L388.7,132.9z M388.8,134.2l0.4,0.4l-0.4,0.4l-0.4-0.4L388.8,134.2z
			 M388.8,135.5l0.4,0.4l-0.4,0.4l-0.4-0.4L388.8,135.5z M388.9,136.8l0.4,0.4l-0.4,0.4l-0.4-0.4L388.9,136.8z M389,138.1l0.4,0.4
			l-0.4,0.4l-0.4-0.4L389,138.1z M389,139.4l0.4,0.4l-0.4,0.4l-0.4-0.4L389,139.4z M389.1,140.7l0.4,0.4l-0.4,0.4l-0.4-0.4
			L389.1,140.7z M389.1,142l0.4,0.4l-0.4,0.4l-0.4-0.4L389.1,142z M389.2,143.3l0.4,0.4l-0.4,0.4l-0.4-0.4L389.2,143.3z M389,144.3
			l-0.4,0.4l-0.4-0.4l0.4-0.4L389,144.3z M388.6,145.2l0.4,0.4l-0.4,0.4l-0.4-0.4L388.6,145.2z M388.7,146.5l0.4,0.4l-0.4,0.4
			l-0.4-0.4L388.7,146.5z M388.7,147.8l0.4,0.4l-0.4,0.4l-0.4-0.4L388.7,147.8z M388.8,149.1l0.4,0.4l-0.4,0.4l-0.4-0.4L388.8,149.1
			z M389.5,149.7l0.4,0.4l-0.4,0.4l-0.4-0.4L389.5,149.7z M389.7,149.4l0.4-0.4l0.4,0.4l-0.4,0.4L389.7,149.4z M390.8,149.6l0.4,0.4
			l-0.4,0.4l-0.4-0.4L390.8,149.6z M391,149.4l0.4-0.4l0.4,0.4l-0.4,0.4L391,149.4z M392,149.6l0.4,0.4l-0.4,0.4l-0.4-0.4L392,149.6
			z M392.3,147.9l0.3-0.3l0.4,0.4l-0.4,0.4C392.5,148.2,392.4,148.1,392.3,147.9z M393.5,148l0.4-0.4l0.4,0.4l-0.4,0.4L393.5,148z
			 M394.8,147.9l0.4-0.4l0.4,0.4l-0.4,0.4L394.8,147.9z M395.9,148.1l0.4,0.4l-0.4,0.4l-0.4-0.4L395.9,148.1z M396.5,148.7l0.4,0.4
			l-0.4,0.4l-0.4-0.4L396.5,148.7z M396.8,148.5l0.4-0.4l0.4,0.4l-0.4,0.4L396.8,148.5z M397.8,148.7l0.4,0.4l-0.4,0.4l-0.4-0.4
			L397.8,148.7z M398.1,148.4l0.4-0.4l0.4,0.4l-0.4,0.4L398.1,148.4z M398.7,147.7l0.4-0.4l0.4,0.4l-0.4,0.4L398.7,147.7z
			 M399.7,148l0.4,0.4l-0.4,0.4l-0.4-0.4L399.7,148z M400.4,148.6l0.3,0.3c-0.1,0.1-0.3,0.2-0.4,0.4l-0.2-0.2L400.4,148.6z
			 M400.7,150l0.2,0.2l-0.4,0.4l-0.3-0.3C400.4,150.3,400.5,150.1,400.7,150z M400.7,148.3l0.4-0.4l0.3,0.2
			c-0.1,0.1-0.2,0.3-0.3,0.4L400.7,148.3z M401.4,149.5l0.1,0.1l-0.4,0.4l-0.2-0.1C401.1,149.7,401.2,149.6,401.4,149.5z
			 M401.8,149.8l0.4,0.4l-0.4,0.4l-0.4-0.4L401.8,149.8z M402,149.5l0.4-0.4l0.4,0.4l-0.4,0.4L402,149.5z M403.1,149.7l0.4,0.4
			l-0.4,0.4l-0.4-0.4L403.1,149.7z M403.3,149.5l0.4-0.4l0.4,0.4l-0.4,0.4L403.3,149.5z M404.3,149.7l0.4,0.4l-0.3,0.4l-0.4-0.4
			L404.3,149.7z M404.6,149.4l0.4-0.4l0.4,0.4l-0.4,0.4L404.6,149.4z M405.6,149.6l0.4,0.4l-0.4,0.4l-0.4-0.4L405.6,149.6z
			 M405.9,149.4l0.4-0.4l0.4,0.4l-0.4,0.4L405.9,149.4z M406.9,149.6l0.4,0.4l-0.4,0.4l-0.4-0.4L406.9,149.6z M407.1,148l0.4-0.4
			l0.4,0.4l-0.4,0.4L407.1,148z M408.2,148.2l0.4,0.4l-0.4,0.4l-0.4-0.4L408.2,148.2z M408.4,148l0.4-0.4l0.4,0.4l-0.4,0.4
			L408.4,148z M409.4,148.2l0.4,0.4l-0.4,0.4l-0.4-0.4L409.4,148.2z M409.7,147.9l0.4-0.4l0.4,0.4l-0.4,0.4L409.7,147.9z
			 M410.7,148.1l0.4,0.4l-0.4,0.4l-0.3-0.4L410.7,148.1z M411.4,148.7l0.4,0.4l-0.4,0.4l-0.4-0.4L411.4,148.7z M411.7,148.5l0.4-0.4
			l0.4,0.4l-0.4,0.4L411.7,148.5z M412.3,147.8l0.4-0.4l0.4,0.4l-0.4,0.4L412.3,147.8z M413.3,148l0.4,0.4l-0.4,0.4l-0.4-0.4
			L413.3,148z M413.6,147.7l0.4-0.4l0.4,0.4l-0.4,0.4L413.6,147.7z M414.6,147.9l0.4,0.4l-0.4,0.4l-0.4-0.4L414.6,147.9z
			 M415.3,148.6l0.2,0.2c-0.1,0.1-0.3,0.3-0.4,0.4l-0.1-0.1L415.3,148.6z M415.4,149.9l0.3,0.3l-0.4,0.4l-0.4-0.4
			C415.1,150.2,415.3,150.1,415.4,149.9z M415.7,149.7c0.1-0.1,0.3-0.2,0.4-0.4l0.2,0.2l-0.4,0.4L415.7,149.7z M416.6,149.8l0.4,0.4
			l-0.4,0.4l-0.4-0.4L416.6,149.8z M416.9,149.5l0.4-0.4l0.4,0.4l-0.4,0.4L416.9,149.5z M417.9,149.7l0.4,0.4l-0.4,0.4l-0.4-0.4
			L417.9,149.7z M418.2,149.5l0.4-0.4l0.4,0.4l-0.4,0.4L418.2,149.5z M418.5,148.5l-0.4-0.4l0.4-0.4l0.4,0.4L418.5,148.5z
			 M418.5,147.2l-0.4-0.4l0.4-0.4l0.4,0.4L418.5,147.2z M418.4,146l-0.4-0.4l0.4-0.4l0.4,0.4L418.4,146z M418.6,144.9l0.4-0.4
			l0.4,0.4l-0.4,0.4L418.6,144.9z M419,144l-0.4-0.4l0.4-0.4l0.4,0.4L419,144z M418.9,142.7l-0.4-0.4l0.4-0.4l0.4,0.4L418.9,142.7z
			 M418.9,141.4l-0.4-0.4l0.4-0.4l0.4,0.4L418.9,141.4z M418.8,140.1l-0.4-0.4l0.4-0.4l0.4,0.4L418.8,140.1z M418.7,138.8l-0.4-0.4
			l0.4-0.4l0.4,0.4L418.7,138.8z M418.7,137.5l-0.4-0.4l0.4-0.4l0.4,0.4L418.7,137.5z M418.6,136.3l-0.4-0.4l0.4-0.4l0.4,0.4
			L418.6,136.3z M418.6,135l-0.4-0.4l0.4-0.4l0.4,0.4L418.6,135z M418.5,133.7l-0.4-0.4l0.4-0.4l0.4,0.4L418.5,133.7z M418.5,132.4
			l-0.4-0.4l0.4-0.4l0.4,0.4L418.5,132.4z M418.4,131.1l-0.4-0.4l0.4-0.4l0.4,0.4L418.4,131.1z M418.6,130l0.4-0.4l0.4,0.4l-0.4,0.4
			L418.6,130z M418.9,129.1l-0.4-0.4l0.4-0.4l0.4,0.4L418.9,129.1z M418.9,127.8l-0.4-0.4l0.4-0.4l0.4,0.4L418.9,127.8z
			 M418.8,126.5l-0.4-0.4l0.4-0.4l0.4,0.4L418.8,126.5z M418.8,125.2l-0.4-0.4l0.4-0.4l0.4,0.4L418.8,125.2z M418.7,123.9l-0.4-0.4
			l0.4-0.4l0.4,0.4L418.7,123.9z M418.7,122.7l-0.4-0.4l0.4-0.4l0.4,0.4L418.7,122.7z M418.4,122.9l-0.4,0.4l-0.4-0.4l0.4-0.4
			L418.4,122.9z M418,122l-0.3-0.2h0.5L418,122z M417.7,122.3l-0.4,0.4l-0.4-0.4l0.4-0.4L417.7,122.3z M417.1,123l-0.4,0.4l-0.4-0.4
			l0.4-0.4L417.1,123z M416.7,122.1l-0.3-0.3h0.6L416.7,122.1z M416.4,122.4l-0.4,0.4l-0.4-0.4l0.4-0.4L416.4,122.4z M415.4,122.1
			l-0.4-0.4h0.7L415.4,122.1z M415.2,122.4l-0.4,0.4l-0.4-0.3l0.4-0.4L415.2,122.4z M414.1,122.2l-0.4-0.4v-0.1h0.7l0,0L414.1,122.2
			z M413.9,122.5l-0.4,0.4l-0.4-0.4l0.4-0.4L413.9,122.5z M412.8,122.3l-0.4-0.4l0.1-0.1h0.6l0.1,0.1L412.8,122.3z M412.6,122.5
			l-0.4,0.4l-0.4-0.4l0.4-0.4L412.6,122.5z M411.5,122.3l-0.4-0.4l0.1-0.2h0.5l0.1,0.1L411.5,122.3z M411.3,122.6l-0.4,0.4l-0.4-0.4
			l0.4-0.4L411.3,122.6z M410.2,122.4l-0.4-0.4l0.2-0.2h0.4l0.2,0.2L410.2,122.4z M410,122.7l-0.4,0.4l-0.4-0.4l0.4-0.4L410,122.7z
			 M409,122.4l-0.4-0.4l0.2-0.3h0.3l0.3,0.2L409,122.4z M408.7,122.7l-0.4,0.4l-0.4-0.4l0.4-0.4L408.7,122.7z M407.7,122.5l-0.4-0.4
			l0.3-0.3h0.2l0.3,0.3L407.7,122.5z M406.4,122.6l-0.4-0.4l0.4-0.4l0,0l0.4,0.4L406.4,122.6z M405.1,122.6l-0.4-0.4l0.4-0.4
			l0.4,0.4L405.1,122.6z M403.8,122.7l-0.4-0.4l0.4-0.4l0.4,0.4L403.8,122.7z M403.5,122.9l-0.4,0.4l-0.4-0.4l0.4-0.4L403.5,122.9z
			 M403.1,122.1l-0.3-0.3h0.5L403.1,122.1z M402.9,122.3l-0.4,0.4l-0.4-0.4l0.4-0.4L402.9,122.3z M401.8,122.1l-0.3-0.3h0.6
			L401.8,122.1z M401.6,122.4l-0.4,0.4l-0.4-0.4l0.4-0.4L401.6,122.4z M400.5,122.2l-0.4-0.4h0.8L400.5,122.2z M400.3,122.4
			l-0.4,0.4l-0.4-0.4l0.4-0.4L400.3,122.4z M399.2,122.2l-0.4-0.4l0,0h0.7l0,0L399.2,122.2z M399,122.5l-0.4,0.4l-0.4-0.4l0.4-0.4
			L399,122.5z M397.9,122.3l-0.4-0.4l0.1-0.1h0.6l0.1,0.1L397.9,122.3z M397.7,122.5l-0.4,0.4l-0.4-0.4l0.4-0.4L397.7,122.5z
			 M396.6,122.4l-0.4-0.4l0.2-0.2h0.5l0.1,0.1L396.6,122.4z M396.4,122.6L396,123l-0.4-0.4l0.4-0.4L396.4,122.6z M395.4,122.4
			L395,122l0.2-0.2h0.3l0.2,0.2L395.4,122.4z M395.1,122.7l-0.4,0.4l-0.4-0.4l0.4-0.4L395.1,122.7z M394.1,122.5l-0.4-0.4l0.3-0.3
			h0.2l0.3,0.3L394.1,122.5z M393.8,122.7l-0.4,0.4l-0.4-0.4l0.4-0.4L393.8,122.7z M392.8,122.5l-0.4-0.4l0.3-0.3h0.1l0.3,0.3
			L392.8,122.5z M391.5,122.6l-0.4-0.4l0.4-0.4l0.4,0.4L391.5,122.6z M390.2,122.6l-0.4-0.4l0.4-0.4l0.4,0.4L390.2,122.6z
			 M388.9,122.7l-0.4-0.4l0.4-0.4l0.4,0.4L388.9,122.7z M388.3,123.9l0.4,0.4l-0.4,0.4l-0.2-0.2V124L388.3,123.9z M388.4,125.2
			l0.4,0.4l-0.4,0.4l-0.2-0.2v-0.3L388.4,125.2z M388.4,126.5l0.4,0.4l-0.4,0.4l-0.3-0.3v-0.2L388.4,126.5z M388.2,127.5
			L388.2,127.5L388.2,127.5L388.2,127.5z M388.5,127.8l0.4,0.4l-0.4,0.4l-0.4-0.3v-0.1L388.5,127.8z M388.3,128.8l-0.1,0.1v-0.2
			L388.3,128.8z M388.3,130.1l-0.2,0.2V130L388.3,130.1z M388.4,131.4l-0.2,0.2v-0.5L388.4,131.4z M388.4,132.7l-0.3,0.3v-0.6
			L388.4,132.7z M388.5,134l-0.3,0.4v-0.7L388.5,134z M388.6,135.3l-0.4,0.4l0,0V135L388.6,135.3z M388.2,136.2l0.4,0.4l-0.4,0.4
			l-0.1-0.1L388.2,136.2L388.2,136.2z M388.3,137.5l0.4,0.4l-0.4,0.4l-0.1-0.1v-0.5L388.3,137.5z M388.3,138.8l0.4,0.4l-0.3,0.3
			l-0.2-0.2v-0.4L388.3,138.8z M388.4,140l0.4,0.4l-0.4,0.4l-0.2-0.2v-0.3L388.4,140z M388.4,141.3l0.4,0.4l-0.4,0.4l-0.3-0.3v-0.2
			L388.4,141.3z M388.2,142.4L388.2,142.4L388.2,142.4L388.2,142.4z M388.5,142.6l0.4,0.4l-0.4,0.4l-0.4-0.3V143L388.5,142.6z
			 M388.3,143.7l-0.1,0.1v-0.2L388.3,143.7z M388.4,145l-0.2,0.2v-0.4L388.4,145z M388.4,146.3l-0.2,0.3v-0.5L388.4,146.3z
			 M388.5,147.5l-0.3,0.3v-0.6L388.5,147.5z M388.5,148.8l-0.4,0.4v-0.7L388.5,148.8z M388.2,149.8l0.4,0.4l-0.4,0.4l0,0V149.8
			L388.2,149.8z M388.5,150.8l0.4-0.4l0.4,0.4l-0.4,0.4L388.5,150.8z M389.5,151l0.4,0.4l-0.4,0.4l-0.4-0.4L389.5,151z M389.8,150.7
			l0.4-0.4l0.4,0.4l-0.4,0.4L389.8,150.7z M390.8,150.9l0.4,0.4l-0.4,0.4l-0.4-0.4L390.8,150.9z M391,150.7l0.4-0.4l0.4,0.4
			l-0.4,0.4L391,150.7z M392.1,150.9l0.4,0.4l-0.4,0.4l-0.4-0.4L392.1,150.9z M392.4,150.6l0.4-0.4l0.4,0.4l-0.4,0.4L392.4,150.6z
			 M393.4,150.8l0.4,0.4l-0.4,0.4l-0.4-0.4L393.4,150.8z M393.6,150.5L393.6,150.5c0.2,0,0.4,0.1,0.6,0.2l-0.2,0.2L393.6,150.5z
			 M394,149.6c-0.1-0.1-0.2-0.1-0.3-0.2l-0.1-0.1l0.4-0.4l0.4,0.4L394,149.6z M394.6,150.9c0.1,0,0.2,0.1,0.4,0.1l0.1,0.1l-0.4,0.4
			l-0.4-0.4L394.6,150.9z M396.6,150l0.4,0.4h-0.1c-0.2,0-0.4,0-0.6,0L396.6,150z M397.9,150l0.3,0.3c-0.2,0-0.4,0.1-0.6,0.1
			L397.9,150z M398.1,149.7l0.4-0.4l0.4,0.4l-0.4,0.4L398.1,149.7z M398.9,151L398.9,151l-0.4,0.4l-0.3-0.2
			C398.5,151.1,398.7,151,398.9,151z M398.8,149l0.4-0.4l0.4,0.4l-0.4,0.4L398.8,149z M399.8,149.2l0.2,0.2
			c-0.2,0.1-0.3,0.2-0.5,0.3l-0.1-0.1L399.8,149.2z M399.8,150.6L399.8,150.6l0.5,0.3l-0.4,0.4l-0.4-0.4L399.8,150.6z M400.5,151.1
			l0.4,0.4l-0.4,0.4l-0.4-0.4L400.5,151.1z M400.8,150.9l0.4-0.4l0.4,0.4l-0.4,0.4L400.8,150.9z M401.8,151.1l0.4,0.4l-0.4,0.4
			l-0.4-0.4L401.8,151.1z M402.1,150.8l0.4-0.4l0.4,0.4l-0.4,0.4L402.1,150.8z M403.1,151l0.4,0.4l-0.4,0.4l-0.4-0.4L403.1,151z
			 M403.4,150.8l0.4-0.4l0.4,0.4l-0.4,0.4L403.4,150.8z M404.4,151l0.4,0.4l-0.4,0.4l-0.4-0.4L404.4,151z M404.6,150.7l0.4-0.4
			l0.4,0.4l-0.4,0.4L404.6,150.7z M405.7,150.9l0.4,0.4l-0.4,0.4l-0.4-0.4L405.7,150.9z M405.9,150.6l0.4-0.4l0.4,0.4l-0.4,0.4
			L405.9,150.6z M407,150.9l0.4,0.4l-0.4,0.4l-0.4-0.4L407,150.9z M407.2,150.6l0.4-0.4l0.4,0.4l-0.4,0.4L407.2,150.6z M408.3,150.8
			l0.4,0.4l-0.4,0.4l-0.4-0.4L408.3,150.8z M408.5,150.6c0.2,0.1,0.3,0.2,0.5,0.2l-0.1,0.1L408.5,150.6z M408.9,149.6l-0.4-0.4
			l0.4-0.4l0.4,0.4L408.9,149.6z M409.5,149.5l0.4,0.4l-0.2,0.2c-0.2-0.1-0.4-0.1-0.5-0.2L409.5,149.5z M409.4,150.9
			c0.2,0.1,0.4,0.1,0.6,0.2l0,0l-0.4,0.4l-0.4-0.4L409.4,150.9z M411.5,150l0.4,0.4c-0.1,0-0.2,0-0.4,0s-0.2,0-0.4,0L411.5,150z
			 M412.8,150l0.2,0.2c-0.2,0-0.4,0.1-0.6,0.1L412.8,150z M412.7,149.4l-0.4-0.4l0.4-0.4l0.4,0.4L412.7,149.4z M413.4,149.3l0.4,0.4
			l-0.4,0.4l0,0l-0.4-0.4L413.4,149.3z M413.8,150.9L413.8,150.9l-0.3,0.5l-0.3-0.3C413.4,151,413.6,151,413.8,150.9z M413.6,149
			l0.4-0.4l0.4,0.4l-0.4,0.4L413.6,149z M414.7,149.2l0.1,0.1c-0.1,0.1-0.3,0.2-0.5,0.3L414.7,149.2z M414.7,150.5l0.4,0.4l-0.4,0.4
			l-0.4-0.4L414.7,150.5z M415.4,151.1l0.4,0.4l-0.4,0.4l-0.4-0.4L415.4,151.1z M415.6,150.9l0.4-0.4l0.4,0.4l-0.4,0.4L415.6,150.9z
			 M416.7,151.1l0.4,0.4l-0.4,0.4l-0.4-0.4L416.7,151.1z M416.9,150.8l0.4-0.4l0.4,0.4l-0.4,0.4L416.9,150.8z M418,151l0.4,0.4
			l-0.4,0.4l-0.4-0.4L418,151z M418.2,150.8l0.4-0.4l0.4,0.4l-0.4,0.4L418.2,150.8z M419.3,150.4l-0.4-0.4l0.4-0.4l0.2,0.2v0.5
			L419.3,150.4z M419.2,149.2l-0.4-0.4l0.4-0.4l0.2,0.2v0.3L419.2,149.2z M419.1,147.9l-0.4-0.4l0.4-0.4l0.3,0.3v0.2L419.1,147.9z
			 M419.3,146.8L419.3,146.8L419.3,146.8L419.3,146.8z M419.1,146.6l-0.4-0.4l0.4-0.4l0.4,0.3v0.1L419.1,146.6z M419.3,145.5
			l0.1-0.1v0.2L419.3,145.5z M419.2,144.2l0.2-0.2v0.3L419.2,144.2z M419.2,143l0.2-0.2v0.5L419.2,143z M419.1,141.7l0.3-0.3v0.5
			L419.1,141.7z M419.1,140.4l0.3-0.4v0.7L419.1,140.4z M419,139.1l0.4-0.4l0,0v0.7L419,139.1z M419.3,138.1l-0.4-0.4l0.4-0.4
			l0.1,0.1L419.3,138.1L419.3,138.1z M419.3,136.9l-0.4-0.4l0.4-0.4l0.1,0.1v0.5L419.3,136.9z M419.2,135.6l-0.4-0.4l0.4-0.4
			l0.2,0.2v0.4L419.2,135.6z M419.2,134.3l-0.4-0.4l0.4-0.4l0.2,0.2v0.3L419.2,134.3z M419.1,133l-0.4-0.4l0.4-0.4l0.3,0.3v0.2
			L419.1,133z M419.3,131.9L419.3,131.9L419.3,131.9L419.3,131.9z M419.1,131.7l-0.4-0.4l0.4-0.4l0.4,0.3v0.1L419.1,131.7z
			 M419.3,130.7l0.1-0.1v0.2L419.3,130.7z M419.2,129.4l0.2-0.2v0.4L419.2,129.4z M419.2,128.1l0.2-0.3v0.5L419.2,128.1z
			 M419.1,126.8l0.3-0.3v0.6L419.1,126.8z M419,125.5l0.4-0.4v0.7L419,125.5z M419.4,124.6l-0.4-0.4l0.4-0.4l0,0V124.6L419.4,124.6z
			 M419.3,123.3l-0.4-0.4l0.4-0.4l0.1,0.1L419.3,123.3L419.3,123.3z M419.3,122l-0.2-0.2h0.3L419.3,122L419.3,122z M388.9,152.4
			l-0.4-0.4l0.4-0.4l0.4,0.4L388.9,152.4z M389.4,152.5l0.2-0.2l0.3,0.2H389.4z M390.2,152.4l-0.4-0.4l0.4-0.4l0.4,0.4L390.2,152.4z
			 M390.6,152.5l0.3-0.3l0.3,0.3H390.6z M391.1,152l0.4-0.4l0.4,0.4l-0.4,0.4L391.1,152z M391.8,152.5l0.3-0.4l0.4,0.4H391.8z
			 M392.4,151.9l0.4-0.4l0.4,0.4l-0.4,0.4L392.4,151.9z M393.8,152.5h-0.7l0,0l0.4-0.4L393.8,152.5L393.8,152.5z M393.7,151.8
			l0.4-0.4l0.4,0.4l-0.4,0.4L393.7,151.8z M395.1,152.5h-0.6l-0.1-0.1l0.4-0.4l0.4,0.4L395.1,152.5z M395,151.8l0.4-0.4l0.4,0.4
			l-0.4,0.4L395,151.8z M396.3,152.5h-0.5l-0.1-0.1l0.4-0.4l0.4,0.4L396.3,152.5z M396.3,151.7l0.4-0.4l0.4,0.4l-0.4,0.4
			L396.3,151.7z M397.5,152.5h-0.4l-0.2-0.2l0.4-0.4l0.4,0.4L397.5,152.5z M397.6,151.7l0.4-0.4l0.4,0.4l-0.4,0.4L397.6,151.7z
			 M398.8,152.5h-0.3l-0.3-0.2l0.4-0.4l0.4,0.4L398.8,152.5z M398.9,151.6l0.4-0.4l0.4,0.4l-0.4,0.4L398.9,151.6z M400,152.5h-0.2
			l-0.3-0.3l0.4-0.4l0.4,0.4L400,152.5z M400.5,152.5L400.5,152.5h0.1H400.5z M401.2,152.5L401.2,152.5l-0.4-0.4l0.4-0.4l0.4,0.4
			L401.2,152.5z M401.7,152.5l0.1-0.1l0.2,0.1H401.7z M402.5,152.5l-0.4-0.4l0.4-0.4l0.4,0.4L402.5,152.5z M403,152.5l0.2-0.2
			l0.2,0.2H403z M403.8,152.4l-0.4-0.4l0.4-0.4l0.4,0.4L403.8,152.4z M404.2,152.5l0.2-0.3l0.3,0.3H404.2z M404.7,152l0.4-0.4
			l0.4,0.4l-0.4,0.4L404.7,152z M405.5,152.5l0.3-0.3l0.3,0.3H405.5z M406,151.9l0.4-0.4l0.4,0.4l-0.4,0.4L406,151.9z M406.7,152.5
			l0.3-0.4l0.4,0.4H406.7z M407.3,151.9l0.4-0.4l0.4,0.4l-0.4,0.4L407.3,151.9z M408.7,152.5H408l0,0l0.4-0.4L408.7,152.5
			L408.7,152.5z M408.6,151.8l0.4-0.4l0.4,0.4l-0.4,0.4L408.6,151.8z M409.9,152.5h-0.6l-0.1-0.1l0.4-0.4l0.4,0.4L409.9,152.5z
			 M409.9,151.8l0.4-0.4l0.4,0.4l-0.4,0.4L409.9,151.8z M411.2,152.5h-0.5l-0.1-0.1l0.4-0.4l0.4,0.4L411.2,152.5z M411.2,151.7
			l0.4-0.4l0.4,0.4l-0.4,0.4L411.2,151.7z M412.4,152.5h-0.3l-0.2-0.2l0.4-0.4l0.4,0.4L412.4,152.5z M412.4,151.6l0.4-0.4l0.4,0.4
			l-0.4,0.4L412.4,151.6z M413.6,152.5h-0.2l-0.3-0.3l0.4-0.4l0.4,0.4L413.6,152.5z M413.7,151.6l0.4-0.4l0.4,0.4l-0.4,0.4
			L413.7,151.6z M414.9,152.5h-0.1l-0.3-0.3l0.4-0.4l0.4,0.4L414.9,152.5z M415.4,152.5L415.4,152.5h0.2H415.4z M416.1,152.5
			L416.1,152.5l-0.4-0.4l0.4-0.4l0.4,0.4L416.1,152.5z M416.6,152.5l0.1-0.1l0.2,0.1H416.6z M417.4,152.5l-0.4-0.4l0.4-0.4l0.4,0.4
			L417.4,152.5z M417.8,152.5l0.2-0.2l0.2,0.2H417.8z M418.3,152l0.4-0.4l0.4,0.4l-0.4,0.4L418.3,152z"/>
	</g>
</g>
<g>
	<path d="M357.9,125.9c0.4,0.4,1.5,0.6,2,0.6c0.2,0.2,4.1,0.6,3,4.7c-0.4,1.5-2,3.6-6.5,3.6c-1.1,0-1.7,0-1.7,0h-0.2
		c-1.7,0-3.2,0.6-7.1,7.5c-0.2,0.4-0.6,0.9-0.9,1.1l0.2,2.6c0,0.4,0.2,0.6,0.4,0.9v0.2v41.5c0,3.6,2.8,6.5,6.5,6.5s6.5-2.8,6.5-6.5
		v-41.5l0,0h2.8l0,0v41.5c0,3.6,2.8,6.5,6.5,6.5s6.5-2.8,6.5-6.5v-41.5v-0.2c0.2-0.2,0.4-0.4,0.4-0.9l2.4-31.4l-21,10.8
		C357.9,125.7,357.9,125.9,357.9,125.9z"/>
	<ellipse cx="361.6" cy="69.6" rx="12.1" ry="12"/>
	<path d="M417.7,93c-1.1-1.1-1.7-2.4-1.7-3.9c0-0.2-0.2-0.2-0.4-0.2c-2.2,1.1-6.3,2.8-8.5,2.1c0,0-0.4,0-0.2,0.4
		c0,0-0.2,1.9-1.7,2.8c-5.4,2.6,18.4-9-50.7,24.5c-0.2,0.2-0.6,0-0.9-0.2c-0.4-0.6-1.1-2.1,0.6-4.9c0,0,0.9-1.1,2.8-2.1
		c0,0,1.5-0.6-0.2-2.1c0,0-2-1.1-4.3,0.2c0,0-2.8,1.7-3.9,3.4c0,0-1.5,2.1-4.1,3.2v1.7l1.7,4.3c0.9,2.1,0.4,4.5-0.9,6.2
		c-0.6,0.9-1.7,1.7-2.8,2.1c-3.2,1.3-7.1-0.2-8.5-3.6l-3.9-10.1c-1.5,0.2-3,0.9-4.1,1.9c0,0-8,4.3-3.5,15.9c0,0,2.6,9,10.4,11.6
		c0,0,7.6,2.4,12.8-4.9c0.2-0.2,2.8-4.1,2.6-3.9c0,0,2-4.7,6.7-4.5c0,0,5,0.6,5.9-1.9c0,0,0.4-1.7-0.9-1.9c0,0-5,0-4.3-4.1
		c0-0.4,0.4-0.9,0.6-1.1c3.5-1.7-12.1,6.2,32.9-16.8l3.9-5.8c2-3,6.1-3.9,9.1-1.7c0.2,0.2,0.6,0.4,0.9,0.6l3.2-1.7
		c0,0,2.4-1.1,3.9,0.4c0,0,0.2,0,0.4-0.2l0.6-0.6c0,0,2.4-2.4,6.3-4.3C417.7,93.2,417.7,93,417.7,93z"/>
	<path d="M336.2,126.1c0.9,2.1,3.5,3.2,5.6,2.4c2.2-0.9,3.2-3.4,2.4-5.6L339,110l4.3-6.2l0.9,10.3c1.5-0.9,2.4-2.1,2.4-2.1
		c1.1-1.7,5-4.9,8.2-4.9s5,1.9,4.8,4.3c-0.2,1.3-1.1,1.9-1.7,2.4c-1.1,0.6-1.7,1.1-2,1.3c-0.2,0.4-0.4,0.9-0.4,1.1l24.3-11.6v-1.1
		l0.6,0.9l7.8-3.9l-6.3-8.8c-6.1-8.8-32.5-11.8-40.3-0.4l-11,15.9c-0.9,1.1-0.9,2.6-0.4,3.9L336.2,126.1z"/>
	<path d="M401,101.1c-2-1.3-4.8-0.9-6.1,1.3l-4.1,6.2l-5.4,2.6l3.5,4.9c1.7,2.4,5.4,2.6,7.1,0c0.2-0.2,6.5-9.7,6.1-9.2
		C403.6,105,403,102.4,401,101.1z"/>
</g>
<text transform="matrix(1 0 0 1 106.0777 234.4266)" class="st7 st8">JUHY</text>
<text transform="matrix(1 0 0 1 106.0777 248.8266)" class="st7 st9">kytara, zpv</text>
<text transform="matrix(1 0 0 1 348.3755 234.4265)" class="st7 st8">VANAD</text>
<text transform="matrix(1 0 0 1 348.3755 246.4265)" class="st7 st10">basa</text>
<text transform="matrix(1 0 0 1 224.3489 234.4266)" class="st7 st8">MARTIN</text>
<text transform="matrix(1 0 0 1 224.3489 246.4266)" class="st7 st10">zpv</text>
<text transform="matrix(1 0 0 1 312.6319 40.3114)" class="st7 st8"></text>
<text transform="matrix(1 0 0 1 312.6319 52.3114)" class="st7 st10">bic</text>
<g>
	<path class="st11" d="M265,210.8l18.1-13.2v-106l-5.6-2.9c-1,0.5-2,0.7-3.1,0.7c-1.3,0-2.5-0.4-3.6-1.1c-3.5-2.1-4.9-7.2-3-11.1
		c1.2-2.8,3.8-4.5,6.8-4.5c1.3,0,2.5,0.3,3.7,1c1.9,1.2,3.3,3.4,3.7,5.8l15.2,9.9c1.7,1.2,2.3,3.2,1.6,5.3v0.1v0.1
		c-0.6,1.4-2,2.3-3.5,2.3c-0.6,0-1.2-0.1-1.7-0.4l-3.3-1.7v102.2l18.9,13.4L265,210.8L265,210.8z"/>
	<path d="M288.2,198.4V91.9l6.2,3.2c1,0.5,2.1,0,2.5-0.9c0.4-1.2,0.2-2.3-0.8-3l-16-10.4l0,0c-0.2-2.1-1.2-4.2-2.9-5.3
		c-2.7-1.6-6.2-0.5-7.6,2.6c-1.4,3-0.4,7,2.3,8.6c1.9,1.2,3.9,0.9,5.6-0.2l0,0l7.6,3.9v108.2l-14,10.2h31.7L288.2,198.4z"/>
</g>
<g>
	<rect x="181.3" y="121.4" class="st4" width="36.1" height="36.5"/>
	<g>
		<polygon class="st5" points="199.2,149.5 199.2,149.5 203.4,153.7 207.6,149.5 207.6,149.5 203.4,153.7 		"/>
		<polygon class="st5" points="189.9,140.8 185.7,145 185.7,145 		"/>
		<path class="st5" d="M186.8,124.9c0,0,0.1,0.2,0.1,0.5c0.5,0.2,0.9,0.7,0.9,1.3c0,0.5-0.2,0.9-0.6,1.1c0,0.2,0,0.3,0,0.5
			c0,0.1-0.1,0.3-0.2,0.3c0,0-0.2,0.1-0.6,0.1l0,0c0.3,0,0.5-0.1,0.6-0.1c0.1-0.1,0.2-0.2,0.2-0.3c0-0.2,0-0.3,0-0.5
			c0.4-0.2,0.6-0.7,0.6-1.1c0-0.6-0.4-1.1-0.9-1.3C186.9,125.1,186.8,124.9,186.8,124.9c0-0.2-0.2-0.3-0.4-0.3l0,0
			C186.6,124.6,186.8,124.7,186.8,124.9z"/>
		<polygon class="st5" points="192.7,137.4 194.1,136 192,133.9 194.1,136 		"/>
		<polygon class="st5" points="192,142.9 194.1,145 189.9,149.2 194.1,145 		"/>
		<polygon class="st5" points="212.1,145 207.9,140.8 207.9,140.8 212.1,145 207.9,149.2 207.9,149.2 		"/>
		<polygon class="st5" points="199.2,140.5 203.4,136.3 207.6,140.5 207.6,140.5 203.4,136.3 		"/>
		<polygon class="st5" points="198.6,149.5 194.4,145.3 194.4,145.3 198.6,149.5 194.4,153.7 194.4,153.7 		"/>
		<path class="st5" d="M194.7,145l2.5,2.5L194.7,145z"/>
		<path class="st5" d="M207.5,128.4c-0.2,0-0.4-0.2-0.4-0.4c0-0.2,0.2-0.4,0.4-0.4c-0.2,0-0.4,0.2-0.4,0.4
			C207.1,128.2,207.3,128.4,207.5,128.4z"/>
		<path class="st5" d="M207.5,126c-0.2,0-0.4-0.2-0.4-0.4c0-0.2,0.1-0.3,0.3-0.4c-0.2,0.1-0.3,0.2-0.3,0.4S207.3,126,207.5,126z"/>
		<path class="st5" d="M207.5,126.4c0.4,0,0.8-0.3,0.9-0.7C208.3,126.1,207.9,126.4,207.5,126.4z"/>
		<path class="st5" d="M185.8,125.5c0.1,0,0.1-0.1,0.2-0.1C185.9,125.5,185.8,125.5,185.8,125.5z"/>
		<polygon class="st5" points="211.4,128.8 211.4,128.8 211.8,128.4 211.4,126.9 211.4,126.9 211.8,128.4 		"/>
		<path class="st5" d="M207.5,128.8c0.4,0,0.8-0.3,0.9-0.7C208.3,128.5,207.9,128.8,207.5,128.8z"/>
		<path class="st5" d="M190.9,127.8c0,0.3-0.1,0.5-0.1,0.5c0,0.2,0.1,0.4,0.3,0.4l0,0h0.1h-0.1l0,0c-0.2-0.1-0.3-0.2-0.3-0.4
			C190.8,128.3,190.9,128.1,190.9,127.8c-0.3-0.2-0.5-0.6-0.5-1.1c0-0.6,0.4-1.2,1-1.3c0-0.1,0.1-0.3,0.1-0.5c0-0.1,0.2-0.2,0.3-0.3
			c0,0,0.1,0,0.2,0c-0.1,0-0.2,0-0.2,0c-0.1,0-0.2,0.1-0.3,0.3c-0.1,0.1-0.1,0.3-0.1,0.5c-0.6,0.1-1,0.7-1,1.3
			C190.4,127.2,190.6,127.5,190.9,127.8z"/>
		<polygon class="st5" points="194.7,136 198.9,140.2 198.9,140.2 194.7,136 198.9,131.8 198.9,131.8 		"/>
		<path class="st5" d="M197.8,125.8c0.2,0.2,0.4,0.6,0.4,0.9C198.2,126.3,198,126,197.8,125.8z"/>
		<path class="st5" d="M201.3,127.9c0,0.3,0,0.5,0,0.5c0,0.1,0.1,0.3,0.2,0.3c0.2,0.1,0.3,0.1,0.5,0.1l0,0c-0.2,0-0.4,0-0.5-0.1
			s-0.2-0.2-0.2-0.3S201.3,128.1,201.3,127.9c-0.4-0.2-0.6-0.7-0.6-1.1c0-0.6,0.3-1.1,0.8-1.3c0-0.2,0.1-0.4,0.1-0.5
			s0.2-0.3,0.4-0.3l0,0c-0.2,0-0.3,0.1-0.4,0.3c-0.1,0.2-0.1,0.4-0.1,0.5c-0.5,0.2-0.8,0.7-0.8,1.3
			C200.6,127.2,200.9,127.6,201.3,127.9z"/>
		<path class="st5" d="M195.6,127.4c-0.1-0.2-0.2-0.4-0.2-0.7C195.4,127,195.5,127.2,195.6,127.4z"/>
		<polygon class="st5" points="207.9,131.8 207.9,131.8 212.1,136 207.9,140.2 207.9,140.2 212.1,136 		"/>
		<polygon class="st5" points="190.3,131.6 190.3,131.6 194.4,135.7 194.4,135.7 		"/>
		<polygon class="st5" points="199.3,131.6 199.3,131.6 203.4,135.7 203.4,135.7 		"/>
		<polygon class="st5" points="185.4,135.7 185.4,135.7 182.1,132.5 		"/>
		<polygon class="st5" points="194.4,144.7 194.4,144.7 190.2,140.5 194.4,136.3 194.4,136.3 190.2,140.5 		"/>
		
			<rect x="204.9" y="133.1" transform="matrix(0.7071 -0.7071 0.7071 0.7071 -35.3057 186.8024)" class="st5" width="5.9" height="5.9"/>
		
			<rect x="204.8" y="142.1" transform="matrix(0.7071 -0.7071 0.7071 0.7071 -41.7419 189.3983)" class="st5" width="5.9" height="5.9"/>
		
			<rect x="200.3" y="137.6" transform="matrix(0.7071 -0.7071 0.7071 0.7071 -39.8789 184.8963)" class="st5" width="5.9" height="5.9"/>
		
			<rect x="191.3" y="137.6" transform="matrix(0.7071 -0.7071 0.7071 0.7071 -42.5145 178.5311)" class="st5" width="5.9" height="5.9"/>
		<polygon class="st5" points="182.1,142.1 182.1,148 185.1,145 		"/>
		
			<rect x="195.8" y="133.1" transform="matrix(0.7071 -0.7071 0.7071 0.7071 -38.0141 180.3959)" class="st5" width="5.9" height="5.9"/>
		
			<rect x="200.3" y="146.6" transform="matrix(0.7071 -0.7071 0.7071 0.7071 -46.2439 187.5337)" class="st5" width="5.9" height="5.9"/>
		<polygon class="st5" points="192,142.9 189.9,140.8 185.7,145 189.9,149.2 194.1,145 		"/>
		<polygon class="st5" points="198.9,140.8 194.7,145 197.2,147.5 198.9,149.2 203.1,145 		"/>
		<path class="st5" d="M215,120.3h-31.3c-2.2,0-3.9,1.8-3.9,3.9v31.4c0,2.2,1.8,3.9,3.9,3.9h31.4c2.2,0,3.9-1.8,3.9-3.9v-31.4
			C219,122.1,217.2,120.3,215,120.3z M217,131.6v24c0,1.1-0.9,2-2,2h-31.3c-1.1,0-2-0.9-2-2v-24v-7.3c0-1.1,0.9-2,2-2h31.4
			c1.1,0,2,0.9,2,2L217,131.6L217,131.6z"/>
		<polygon class="st5" points="189.6,140.5 185.4,136.3 182.1,139.6 182.1,141.5 185.4,144.7 		"/>
		<polygon class="st5" points="182.1,133.1 182.1,138.9 185.1,136 		"/>
		<polygon class="st5" points="189.6,149.5 185.4,145.3 182.1,148.6 182.1,150.5 185.4,153.7 		"/>
		
			<rect x="191.3" y="146.6" transform="matrix(0.7071 -0.7071 0.7071 0.7071 -48.8791 181.1687)" class="st5" width="5.9" height="5.9"/>
		<polygon class="st5" points="189.9,140.2 192.7,137.4 194.1,136 192,133.9 189.9,131.8 185.7,136 		"/>
		<polygon class="st5" points="208.2,149.5 212.4,153.7 216.6,149.5 216.6,149.5 212.4,145.3 		"/>
		<polygon class="st5" points="216.6,148.9 216.6,141.2 212.7,145 		"/>
		<polygon class="st5" points="208.2,140.5 212.4,144.7 216.6,140.5 216.6,140.5 212.4,136.3 		"/>
		<path class="st5" d="M209.6,157.2h5.5c0.1,0,0.1,0,0.1,0l-2.8-2.8L209.6,157.2z"/>
		<path class="st5" d="M215.7,157c0.5-0.2,0.9-0.8,0.9-1.4v-5.5l-3.9,3.9L215.7,157z"/>
		<path class="st5" d="M182.1,151.1v4.5c0,0.4,0.1,0.7,0.4,1l2.6-2.6L182.1,151.1z"/>
		<polygon class="st5" points="182.1,131.6 182.1,132.5 185.4,135.7 189.5,131.6 189.5,131.6 190.2,131.6 190.2,131.6 194.4,135.7 
			198.5,131.6 198.5,131.6 199.3,131.6 199.3,131.6 203.4,135.7 207.5,131.6 208.3,131.6 212.4,135.7 216.6,131.5 216.6,131.1 
			182.1,131.1 		"/>
		<polygon class="st5" points="216.6,139.9 216.6,132.1 212.7,136 		"/>
		<polygon class="st5" points="189.9,149.8 185.7,154 188.8,157.2 190.9,157.2 194.1,154 		"/>
		<polygon class="st5" points="207.9,149.8 203.7,154 206.8,157.2 209,157.2 212.1,154 		"/>
		<path class="st5" d="M182.8,156.9c0.2,0.2,0.5,0.3,0.8,0.3h4.5l-2.8-2.8L182.8,156.9z"/>
		<polygon class="st5" points="191.6,157.2 197.2,157.2 194.4,154.3 		"/>
		<polygon class="st5" points="200.6,157.2 206.2,157.2 203.4,154.3 		"/>
		<polygon class="st5" points="198.9,149.8 194.7,154 197.8,157.2 200,157.2 203.1,154 		"/>
		<path class="st5" d="M185.7,127.9c0,0.3,0,0.5,0,0.5c0,0.1,0.1,0.3,0.2,0.3c0.2,0.1,0.3,0.1,0.5,0.1l0,0c0.3,0,0.5-0.1,0.6-0.1
			c0.1-0.1,0.2-0.2,0.2-0.3c0-0.2,0-0.3,0-0.5c0.4-0.2,0.6-0.7,0.6-1.1c0-0.6-0.4-1.1-0.9-1.3c-0.1-0.3-0.1-0.5-0.1-0.5
			c0-0.2-0.2-0.3-0.4-0.3l0,0l0,0c-0.2,0-0.3,0.1-0.4,0.3c-0.1,0.2-0.1,0.4-0.1,0.5l0,0c-0.1,0-0.1,0.1-0.2,0.1
			c-0.4,0.2-0.7,0.7-0.7,1.2C185.1,127.2,185.4,127.6,185.7,127.9z"/>
		<path class="st5" d="M191.5,124.9c-0.1,0.1-0.1,0.3-0.1,0.5c-0.6,0.1-1,0.7-1,1.3c0,0.4,0.2,0.8,0.5,1.1c0,0.3-0.1,0.5-0.1,0.5
			c0,0.2,0.1,0.4,0.3,0.4l0,0h0.1c0.1,0,0.3-0.1,0.3-0.2c0.1-0.2,0.2-0.3,0.3-0.5c0.7-0.1,1.3-0.6,1.3-1.4c0-0.3-0.1-0.6-0.3-0.9
			c0.1-0.3,0.2-0.4,0.2-0.5s0-0.3-0.1-0.4s-0.3-0.2-0.5-0.3c-0.1-0.1-0.3-0.1-0.4-0.1c-0.1,0-0.2,0-0.2,0
			C191.7,124.7,191.6,124.8,191.5,124.9z"/>
		<path class="st5" d="M195.8,128.6c0.3,0.1,0.5,0.1,0.6,0.1s0.3-0.1,0.3-0.2c0.1-0.1,0.1-0.3,0.2-0.4c0.7-0.1,1.2-0.6,1.2-1.4
			c0-0.4-0.2-0.7-0.4-0.9c0.1-0.3,0.1-0.5,0.1-0.5c0-0.2,0-0.4-0.2-0.4l0,0c-0.2-0.1-0.4,0-0.5,0.1s-0.2,0.3-0.3,0.4h-0.1
			c-0.8,0-1.4,0.6-1.4,1.4c0,0.2,0.1,0.5,0.2,0.7c-0.1,0.2-0.2,0.4-0.2,0.4c-0.1,0.1-0.1,0.3,0,0.4
			C195.5,128.4,195.7,128.5,195.8,128.6z"/>
		<path class="st5" d="M201.6,124.9c0,0.2-0.1,0.4-0.1,0.5c-0.5,0.2-0.8,0.7-0.8,1.3c0,0.5,0.2,0.9,0.6,1.1c0,0.3,0,0.5,0,0.5
			c0,0.1,0.1,0.3,0.2,0.3c0.2,0.1,0.3,0.1,0.5,0.1l0,0c0.3,0,0.5-0.1,0.6-0.1c0.1-0.1,0.2-0.2,0.2-0.3c0-0.2,0-0.3,0-0.5
			c0.4-0.2,0.6-0.7,0.6-1.1c0-0.6-0.4-1.1-0.9-1.3c-0.1-0.3-0.1-0.5-0.1-0.5c0-0.2-0.2-0.3-0.4-0.3l0,0l0,0
			C201.8,124.6,201.6,124.7,201.6,124.9z"/>
		<path class="st5" d="M207.5,126.4c0.4,0,0.8-0.3,0.9-0.7c0-0.1,0-0.1,0-0.2c0-0.5-0.4-0.9-0.9-0.9s-0.9,0.4-0.9,0.9
			C206.6,126,207,126.4,207.5,126.4z M207.3,125.1c0.1,0,0.1,0,0.2,0c0.2,0,0.4,0.2,0.4,0.4c0,0.2-0.2,0.4-0.4,0.4s-0.4-0.2-0.4-0.4
			C207.1,125.4,207.2,125.2,207.3,125.1z"/>
		<path class="st5" d="M207.5,128.8c0.4,0,0.8-0.3,0.9-0.7c0-0.1,0-0.1,0-0.2c0-0.5-0.4-0.9-0.9-0.9s-0.9,0.4-0.9,0.9
			C206.6,128.4,207,128.8,207.5,128.8z M207.5,127.5c0.2,0,0.4,0.2,0.4,0.4c0,0.2-0.2,0.4-0.4,0.4s-0.4-0.2-0.4-0.4
			C207.1,127.7,207.3,127.5,207.5,127.5z"/>
		<polygon class="st5" points="211.4,128.8 213.1,128.8 213.1,128.8 213.6,128.4 213.1,126.9 213.1,126.9 211.4,126.9 211.8,128.4 
					"/>
		<rect x="211.4" y="124.7" class="st5" width="1.8" height="1.8"/>
		<path class="st5" d="M211.4,128.8L211.4,128.8L211.4,128.8z"/>
	</g>
</g>
<g>
	<circle cx="161.8" cy="61.4" r="12.1"/>
	<path d="M201.2,93.3c-1.9-1.3-4.8-0.9-6.1,1.3l-4.1,6.3l-5.4,2.6l3.5,5c1.7,2.4,5.4,2.6,7.1,0c0.2-0.2,6.5-9.7,6.1-9.3
		C203.8,97.1,203.1,94.6,201.2,93.3z"/>
	<path d="M229.1,77.6c-0.2,0-0.5,0-0.5-0.3c0-0.1,0.1-0.3,0.1-0.4c0.1-0.1,0.1-0.3,0.1-0.4c0-0.2-0.1-0.4-0.2-0.5
		c-0.3-0.4-1.1-0.6-1.7-1.3s-1.1-1.9-1.1-1.9l-0.7,0.8c-0.7,0.7-1.5,1.3-2.3,1.8l-0.2-0.3l0,0c0.1,0,0.1-0.2,0.1-0.3
		c0,0,0-0.1-0.1-0.1l0.2-0.5l-0.5-1.2c0,0-0.7,0.4-1,0.2l-0.1,0.1c0,0.3-0.7,0.7-0.7,0.7l0.7,1.1l0.5,0.1v0.1c0,0.1,0.2,0.1,0.3,0.1
		l0,0l0.2,0.4c-0.8,0.5-1.6,0.9-2.4,1.3l-0.2-0.5l0,0c0.1,0,0.1-0.2,0.1-0.2s0-0.1-0.1-0.1l0.2-0.5l-0.5-1.2c0,0-0.7,0.4-1,0.2h-0.1
		c0,0.3-0.7,0.7-0.7,0.7l0.7,1.1l0.5,0.1v0.1c0,0.1,0.2,0.1,0.3,0.1l0,0l0.2,0.4c-0.9,0.4-1.9,0.8-2.7,1l-0.1-0.2l0,0
		c0.1,0,0.1-0.2,0.1-0.2s0-0.1-0.1-0.1l0.2-0.5l-0.5-1.2c0,0-0.7,0.4-1,0.2H215c0,0.3-0.7,0.7-0.7,0.7l0.7,1.1l0.5,0.1v0.1
		c0,0.1,0.2,0.1,0.2,0.1l0,0l0.1,0.1c-1.6,0.5-2.7,0.7-2.7,0.7c-0.6,3.1-2.5,4.1-2.5,4.1l-48.8,23c0,0-5.8,2.8-6.6-1.7
		c-0.7-3.7,3.3-5,4.7-5.4c0.2,0,0.2-0.3,0.1-0.4c-5.3-3.4-12.4-1.1-16.7,2.9c-1.7,1.6-2.8,3.7-5,4.7c-0.5,0.2-1,0.4-1.5,0.5
		c-2.5,0.5-5-0.7-7.4-0.9c-2.9-0.3-5.6,0.5-8,2.2c-1.7,1.2-3,2.8-3.7,4.7c-2.3,5.9-0.1,12.5,2.5,18c0.2,0.5,0.5,1,0.8,1.5
		c1.4,2.7,2.9,5.3,4.9,7.5c3.9,4.1,9.8,6.1,15,3c3.1-1.9,5.2-5.2,6.8-8.4c3.2-6.5,7.6-2.7,13.8-5.7c5.3-2.5,6.4-7.4,6.6-8.8
		c0-0.2-0.1-0.3-0.3-0.2c-1.1,0.5-4.3,1.5-5.8-1.3c-1.9-3.4,1.8-5.5,1.8-5.5l49-25.1c0,0,2-0.9,4.8,0.5c0,0,0.8-0.8,2.2-1.7l0.1,0.2
		l0,0c-0.1,0-0.1,0.2-0.1,0.2s0,0.1,0.1,0.1l-0.2,0.5l0.5,1.2c0,0,0.7-0.4,1-0.2h0.1c0-0.3,0.7-0.7,0.7-0.7l-0.7-1.1l-0.5-0.1v-0.1
		c-0.1-0.1-0.2-0.1-0.3-0.1l0,0l-0.2-0.3c0.7-0.5,1.5-1,2.3-1.4l0.3,0.6l0,0c-0.1,0.1-0.1,0.2-0.1,0.3c0,0,0,0.1,0.1,0.1l-0.2,0.5
		l0.5,1.2c0,0,0.7-0.4,1-0.2h0.1c0-0.3,0.7-0.7,0.7-0.7l-0.7-1.1l-0.5-0.1v-0.1c0-0.1-0.2-0.1-0.2-0.1l0,0l-0.3-0.6
		c0.8-0.4,1.7-0.8,2.6-1.2l0.2,0.5l0,0c-0.1,0.1-0.1,0.2-0.1,0.3c0,0,0,0.1,0.1,0.1l-0.2,0.5l0.5,1.2c0,0,0.7-0.4,1-0.2h0.1
		c0-0.3,0.7-0.7,0.7-0.7l-0.7-1.1L227,84v-0.1c0-0.1-0.2-0.1-0.3-0.1l0,0l-0.2-0.4c0.9-0.3,1.9-0.6,2.9-0.7l1-0.1c0,0-0.7-1.1-0.8-2
		c0-0.2-0.1-0.4-0.1-0.6c0-0.3,0-0.6,0.1-0.9c0-0.3,0-0.6-0.1-0.9C229.6,77.8,229.4,77.7,229.1,77.6z M128.1,136.8
		c-0.4,0.2-0.8,0-1-0.3s0-0.8,0.3-1c0.4-0.2,0.8,0,1,0.3C128.6,136.2,128.4,136.6,128.1,136.8z M133.8,140.9
		c-0.7,0.4-1.6,0.1-1.9-0.7c-0.4-0.7-0.1-1.6,0.7-2c0.7-0.4,1.6-0.1,1.9,0.7C134.8,139.7,134.5,140.6,133.8,140.9z M131.9,137
		c-0.7,0.4-1.6,0.1-1.9-0.7c-0.4-0.7-0.1-1.6,0.7-2c0.7-0.4,1.6-0.1,1.9,0.7C132.9,135.8,132.6,136.6,131.9,137z M139.2,140.2
		c-0.7,0.4-1.6,0.1-1.9-0.7c-0.4-0.7-0.1-1.6,0.7-2c0.7-0.4,1.6-0.1,1.9,0.7C140.2,139,140,139.8,139.2,140.2z M137.2,136
		c-0.7,0.4-1.6,0.1-1.9-0.7c-0.4-0.7-0.1-1.6,0.7-2c0.7-0.4,1.6-0.1,1.9,0.7C138.2,134.8,137.9,135.7,137.2,136z M152.1,110.8
		c-0.1-0.2,0-0.4,0.2-0.5l3.2-1.6c0.2-0.1,0.4,0,0.5,0.2l3.4,7c0.1,0.2,0,0.4-0.2,0.5L156,118c-0.2,0.1-0.4,0-0.5-0.2L152.1,110.8z
		 M142.1,115.6c-0.1-0.2,0-0.4,0.2-0.5l3.2-1.6c0.2-0.1,0.4,0,0.5,0.2l3.4,7c0.1,0.2,0,0.4-0.2,0.5l-3.2,1.6c-0.2,0.1-0.4,0-0.5-0.2
		L142.1,115.6z M164.7,123.3c-0.3,0.6-1.7,2.8-5.4,3.7c-4.2,1-9.5,0.8-11.7,5.9c0,0.1-0.2,0.1-0.2,0.1c-0.9-0.5-5-2.9-1.6-8.8l5-2.5
		l-1.2-2.4c-0.1-0.1,0-0.3,0.1-0.3l4.2-2.1c0.1-0.1,0.3,0,0.3,0.1l1.2,2.4l5-2.5c0,0-0.6,6.1,4.2,6.2
		C164.7,123.2,164.8,123.3,164.7,123.3z"/>
	<g>
		<path d="M165.4,114.7c-0.6,0.4-1.6,1.2-0.9,2.5c0.6,1.1,2,0.8,3,0.3l1.2-0.5l1.2,0.8c0.7,0.5,1,1.4,0.9,2.2
			c-0.3,1.8-1.6,7.5-7.8,10.5c-2.8,1.4-5.3,1.5-7.3,1.6c-2.8,0.2-4.1,0.2-5.5,3.1c-0.8,1.5-1.7,3.3-2.9,4.9v41.2
			c0,3.7,2.8,6.5,6.5,6.5s6.5-2.8,6.5-6.5v-41.8h2.8v41.8c0,3.7,2.8,6.5,6.5,6.5s6.5-2.8,6.5-6.5v-41.8v-0.2
			c0.2-0.2,0.4-0.4,0.4-0.9l2.3-30.6L165.4,114.7z"/>
	</g>
	<path d="M132.2,107.9c0.8,0.1,1.5,0.3,2.3,0.5c1.4,0.3,2.8,0.6,4,0.4c0.4-0.1,0.7-0.2,1.1-0.3c0.6-0.3,1.1-0.7,1.6-1.2l-1.9-5.1
		l4.3-6.3l0.2,2.8c5-3.7,12.2-5.5,17.9-1.9c0.8,0.5,1.2,1.5,1.1,2.4c-0.2,0.9-0.9,1.7-1.8,1.9c-1.3,0.3-3.4,1.2-3.1,2.9
		c0.1,0.5,0.3,0.6,0.3,0.7c0.6,0.3,2.2,0,3.2-0.5l26.4-12.5l-5.7-8.1c-6.1-8.9-32.5-11.9-40.3-0.4l-11,16c-0.9,1.1-0.9,2.6-0.4,3.9
		L132.2,107.9z"/>
</g>
<g>
	<path class="st11" d="M110.8,209.9l19.1-13.4V94.2l-3.5,1.8c-0.6,0.3-1.2,0.4-1.8,0.4c-1.5,0-2.8-0.9-3.5-2.3V94v-0.1
		c-0.7-2.1-0.1-4.1,1.6-5.3l15.7-10c0.5-2.4,1.9-4.6,3.8-5.8l0.1-0.1c1.1-0.7,2.4-1,3.7-1c3,0,5.6,1.7,6.9,4.5
		c1.8,3.9,0.4,9.1-3.1,11.1c-1.1,0.7-2.3,1.1-3.6,1.1c-1.1,0-2.1-0.2-3.1-0.7l-5.8,2.9v105.9l18.7,13.2h-45.2L110.8,209.9
		L110.8,209.9z"/>
	<path d="M131.9,197.5V91l-6.4,3.2c-1.1,0.5-2.1,0-2.5-0.9c-0.4-1.2-0.2-2.3,0.8-3l16.4-10.4l0,0c0.2-2.1,1.3-4.2,3-5.3
		c2.8-1.6,6.4-0.5,7.8,2.6c1.4,3,0.4,7-2.3,8.6c-1.9,1.2-4,0.9-5.7-0.2l0,0l-7.8,3.9v108.2l14.4,10.2h-32.5L131.9,197.5z"/>
</g>
</svg>
