<?xml version="1.0" encoding="utf-8"?>
<!-- Generator: Adobe Illustrator 15.0.0, SVG Export Plug-In . SVG Version: 6.00 Build 0)  -->
<!DOCTYPE svg PUBLIC "-//W3C//DTD SVG 1.1//EN" "http://www.w3.org/Graphics/SVG/1.1/DTD/svg11.dtd">
<svg version="1.1" id="Layer_1" xmlns="http://www.w3.org/2000/svg" xmlns:xlink="http://www.w3.org/1999/xlink" x="0px" y="0px" xml:space="preserve">
<path fill="#32A8AC" d="M23.856,0C10.681,0,0,10.681,0,23.856s10.681,23.856,23.855,23.856c13.176,0,23.856-10.681,23.856-23.856
	S37.031,0,23.856,0z M28.084,6.189L28.084,6.189H28.08H28.084z M33.175,25.233c-0.003,0.905-0.15,1.763-0.236,2.495
	c-0.51,4.106-1.964,7.535-1.876,11.683c-3.441,0.052-6.883,0.073-10.325,0.065c-0.09-1.636,0.217-3.344,0.012-4.95
	c-0.047-0.835-1.253-1.982-2.128-3.24l0.001,0c-1.475-2.341-3.463-6.793-5.763-8.714c-0.768-1.073-2.225-0.66-2.265-2.261
	c0.162-3.046,5.163-0.909,6.141-0.048l-0.003-0.003c0.49,0.41,1.579,1.685,1.579,1.685c0.018-4.188-2.151-8.244-1.75-12.569
	c0.161-1.111,0.875-2.069,2.131-2.165c0.668-0.02,1.314,0.479,1.579,1.112c0.491,2.98,1.228,5.997,2.363,8.798
	c0.198-2.907,0.742-5.746,1.633-8.521c0.215-0.741,0.524-2.43,2.35-2.594c0.051,0,0.101,0.001,0.152,0.005
	c1.253,0.004,1.875,1.293,1.819,2.052c-0.032,3.594-1.517,7.241-1.517,10.816c0.811-0.145,1.417-0.096,2.206,0.41l-0.008-0.007
	l0.027,0.019c-0.006-0.004-0.012-0.007-0.019-0.012l3.201,3.159c0.491,0.855,0.692,1.726,0.695,2.75c0-0.121,0-0.185,0,0.02
	C33.175,25.767,33.175,25.449,33.175,25.233z"/>
</svg>
